<svg width="301" height="72" viewBox="0 0 301 72" fill="none" xmlns="http://www.w3.org/2000/svg">
<path fill-rule="evenodd" clip-rule="evenodd" d="M72 36C72 55.8817 55.8817 72 36 72C16.1183 72 0 55.8817 0 36C0 16.1183 16.1183 0 36 0C55.8817 0 72 16.1183 72 36" fill="#93A8C1"/>
<path fill-rule="evenodd" clip-rule="evenodd" d="M120 22.6503C119.523 27.2401 116.609 30.6704 111.261 32.9441C110.001 33.4587 108.717 33.8448 107.413 34.1021C114.196 35.3464 117.587 38.5194 117.587 43.6238C117.587 47.9562 115.25 51.6014 110.577 54.5608C105.902 57.5203 100.109 59 93.1957 59C89.8043 59 86.9792 58.4744 84.7174 57.4245C82.457 56.3732 81.3261 54.6252 81.3261 52.1804C81.3261 49.1785 82.9357 43.9455 86.1522 36.4825C89.37 29.0196 92.3478 22.6503 95.087 17.3748C95.5227 16.5166 95.8488 15.917 96.0652 15.5734L93.7174 15.8951C90.3261 16.3674 87.2068 17.1599 84.3594 18.2755C81.5106 19.3911 79.5874 20.7846 78.587 22.4573C78.5439 22.586 78.4357 22.6503 78.2609 22.6503C78.0874 22.6503 78 22.5326 78 22.2972C78 22.0604 78.0222 21.9002 78.0652 21.814C79.7179 17.3529 82.7401 14.6303 87.1304 13.6434C89.1314 13.2149 91.8053 13 95.1522 13H108C111.957 13 114.946 13.8364 116.968 15.5091C118.99 17.1818 120 19.283 120 21.814V22.6503ZM113.217 20.9776C112.826 17.2037 109.805 15.1874 104.152 14.9301C102.11 17.5459 99.4135 22.4573 96.0652 29.6629C92.7183 36.8685 90.587 42.0688 89.6739 45.265C88.7609 48.4599 88.3043 50.8828 88.3043 52.535C88.3043 54.1858 88.7831 55.2576 89.7391 55.7517C90.6966 56.2445 92.2826 56.4909 94.5 56.4909C98.6309 56.4909 102.24 55.3863 105.326 53.1783C108.414 50.969 109.957 47.6769 109.957 43.3021C109.957 41.1571 109.424 39.3133 108.359 37.7692C107.294 36.2252 105.74 35.3245 103.696 35.0671C101.001 35.7967 98.3922 36.1608 95.8696 36.1608C95.1314 36.1608 94.7609 36.0103 94.7609 35.7105C94.7609 34.7236 95.4352 34.0487 96.7826 33.6846C98.1314 33.3191 99.4135 33.1371 100.63 33.1371C101.849 33.1371 103.043 33.2233 104.217 33.3944C107.044 32.5361 109.25 30.9921 110.838 28.7622C112.424 26.5324 113.217 24.2163 113.217 21.814V20.9776V20.9776Z" fill="#93A8C1"/>
<path fill-rule="evenodd" clip-rule="evenodd" d="M137.438 31.5246L140.792 31.5893H141.449C140.792 32.0644 139.86 33.4665 138.655 35.7969C137.45 38.1272 136.551 39.886 135.96 41.0732C135.368 42.2591 134.71 43.8567 133.987 45.8634C133.264 47.8701 132.901 49.4981 132.901 50.75C132.901 52.0019 133.341 52.6272 134.216 52.6272C134.787 52.5845 135.586 52.1851 136.617 51.4304C137.647 50.6742 138.502 49.8768 139.182 49.0353C139.86 48.1938 140.606 47.114 141.417 45.7987C142.227 44.482 142.929 43.3389 143.521 42.3679C144.113 41.3969 144.453 40.9107 144.54 40.9107C144.848 40.9107 145 41.3101 145 42.1089C145 42.9064 144.782 43.6722 144.342 44.4062C142.458 47.4707 140.902 49.8217 139.674 51.4621C138.447 53.1024 136.967 54.6023 135.236 55.9616C133.504 57.321 131.937 58 130.534 58C128.036 58 126.786 56.1875 126.786 52.5625C126.786 50.1027 127.269 47.3192 128.233 44.2121C129.198 41.1049 130.622 38.1052 132.507 35.2143C130.974 36.4222 129.439 37.0268 127.904 37.0268C127.423 37.0268 126.918 36.9194 126.392 36.7031C123.28 42.7453 121.603 45.7656 121.362 45.7656C121.12 45.7656 121 45.4103 121 44.6982C121 43.9862 121.274 42.9932 121.823 41.7206C122.37 40.4466 122.961 39.2277 123.598 38.0625C124.233 36.8973 124.573 36.25 124.616 36.1205C123.038 35.3438 122.249 34.0918 122.249 32.3661C122.249 31.5025 122.524 30.7257 123.072 30.0357C123.619 29.3457 124.376 29 125.34 29C126.305 29 127.094 29.3016 127.707 29.9062C127.62 30.1652 127.575 30.5536 127.575 31.0714C127.575 32.2366 128.003 33.1539 128.858 33.8232C129.713 34.4912 130.754 34.8259 131.981 34.8259C132.332 34.8259 132.595 34.8039 132.77 34.7612C134.305 32.603 135.86 31.5246 137.438 31.5246" fill="#93A8C1"/>
<path fill-rule="evenodd" clip-rule="evenodd" d="M173.223 42.4747C173.352 42.2145 173.482 42.0843 173.611 42.0843C173.87 42.0843 174 42.4096 174 43.0602C174 45.1422 173.169 46.867 171.507 48.2332C169.843 49.5995 168.289 50.2819 166.843 50.2819C165.396 50.2819 164.154 49.8694 163.117 49.0458C161.563 52.1258 159.717 54.5538 157.58 56.3325C155.442 58.1113 152.688 59 149.32 59C147.162 59 145.401 58.3383 144.041 57.0164C142.681 55.693 142 53.6761 142 50.9658C142 48.254 142.616 45.4564 143.847 42.573C145.078 39.6882 146.934 37.2048 149.418 35.1229C151.9 33.041 154.676 32 157.741 32C162.88 32 165.449 34.7325 165.449 40.1976C165.449 42.2795 164.996 44.4694 164.089 46.7687C164.737 47.6795 165.666 48.1349 166.874 48.1349C169.121 48.1349 171.237 46.2482 173.223 42.4747ZM162.405 38.441C162.233 36.1417 161.196 34.9928 159.296 34.9928C156.316 34.9928 153.401 37.8983 150.551 43.7108C148.996 46.9209 148.219 49.8265 148.219 52.4289C148.219 55.0313 149.342 56.3976 151.587 56.5277C153.445 56.5277 155.161 55.5407 156.738 53.5682C158.313 51.5942 159.641 49.414 160.721 47.0289C159.253 45.7706 158.518 44.1884 158.518 42.2795C158.518 41.1084 158.831 40.1754 159.458 39.4819C160.084 38.7884 160.937 38.441 162.016 38.441H162.405V38.441Z" fill="#93A8C1"/>
<path fill-rule="evenodd" clip-rule="evenodd" d="M202.223 42.4747C202.352 42.2145 202.482 42.0843 202.611 42.0843C202.87 42.0843 203 42.4096 203 43.0602C203 45.1422 202.169 46.867 200.507 48.2332C198.843 49.5995 197.289 50.2819 195.843 50.2819C194.396 50.2819 193.154 49.8694 192.117 49.0458C190.563 52.1258 188.717 54.5538 186.58 56.3325C184.442 58.1113 181.688 59 178.32 59C176.162 59 174.401 58.3383 173.041 57.0164C171.681 55.693 171 53.6761 171 50.9658C171 48.254 171.616 45.4564 172.847 42.573C174.078 39.6882 175.934 37.2048 178.418 35.1229C180.9 33.041 183.676 32 186.741 32C191.88 32 194.449 34.7325 194.449 40.1976C194.449 42.2795 193.996 44.4694 193.089 46.7687C193.737 47.6795 194.666 48.1349 195.874 48.1349C198.121 48.1349 200.237 46.2482 202.223 42.4747ZM191.405 38.441C191.233 36.1417 190.196 34.9928 188.296 34.9928C185.316 34.9928 182.401 37.8983 179.551 43.7108C177.996 46.9209 177.219 49.8265 177.219 52.4289C177.219 55.0313 178.342 56.3976 180.587 56.5277C182.445 56.5277 184.161 55.5407 185.738 53.5682C187.313 51.5942 188.641 49.414 189.721 47.0289C188.253 45.7706 187.518 44.1884 187.518 42.2795C187.518 41.1084 187.831 40.1754 188.458 39.4819C189.084 38.7884 189.937 38.441 191.016 38.441H191.405V38.441Z" fill="#93A8C1"/>
<path fill-rule="evenodd" clip-rule="evenodd" d="M229.284 45.494C227.765 48.0608 226.222 50.3875 224.659 52.4754C221.316 56.8247 218.015 59 214.759 59C212.979 59 211.643 58.1088 210.754 56.3249C209.862 54.541 209.418 52.5628 209.418 50.3875C209.418 46.0382 210.069 43.8629 211.372 43.8629C213.413 43.8629 215.302 43.395 217.038 42.4607C218.776 41.5251 219.644 40.2965 219.644 38.7736C219.644 37.5562 218.949 36.9467 217.559 36.9467C214.563 36.9467 211.241 40.2091 207.594 46.7337C207.247 47.3862 206.52 48.8979 205.413 51.269C204.305 53.6387 203.328 55.4337 202.482 56.6511C201.635 57.8686 200.799 58.478 199.973 58.478H196C197.347 55.9556 199.333 50.8553 201.96 43.1785C204.587 35.5002 206.531 30.3569 207.789 27.747C207.834 27.6595 208.104 27.0945 208.604 26.0506C209.103 25.0067 209.451 24.2889 209.646 23.8975C209.842 23.506 210.221 22.7661 210.785 21.6791C211.351 20.5921 211.807 19.787 212.153 19.265C212.501 18.743 212.979 17.9934 213.586 17.0147C214.195 16.036 214.738 15.285 215.215 14.763C215.693 14.241 216.257 13.6219 216.908 12.9042C217.559 12.1864 218.168 11.6534 218.732 11.3049C220.209 10.4345 221.555 10 222.77 10C225.159 10 226.352 11.087 226.352 13.2623C226.352 16.3067 224.518 20.3422 220.849 25.3662C217.18 30.3902 213.044 35.1421 208.441 39.6218L207.268 42.8842C209.352 40.1868 211.719 37.8283 214.368 35.8056C217.018 33.783 219.448 32.771 221.663 32.771C222.923 32.771 223.911 33.075 224.627 33.6844C225.344 34.2939 225.701 35.1198 225.701 36.1638C225.701 38.5557 224.648 40.4811 222.543 41.9388C220.436 43.395 218.015 44.3418 215.28 44.7763C215.67 49.3005 216.301 52.0617 217.169 53.0626C217.604 53.5415 218.146 53.7803 218.797 53.7803C219.448 53.7803 220.339 53.3888 221.467 52.6059C222.597 51.8229 223.52 50.9636 224.236 50.0293C224.953 49.0937 225.712 47.9734 226.516 46.6684C227.318 45.3635 228.014 44.2321 228.6 43.2756C229.187 42.3191 229.523 41.8402 229.609 41.8402C229.87 41.8402 230 42.265 230 43.1132C230 43.9614 229.762 44.7541 229.284 45.494ZM222.9 11.6964C220.47 11.6964 216.214 19.526 210.134 35.1851C215.693 28.6605 219.601 23.1575 221.858 18.6778C223.161 16.3289 223.812 14.3937 223.812 12.8708C223.812 12.0879 223.509 11.6964 222.9 11.6964V11.6964Z" fill="#93A8C1"/>
<path fill-rule="evenodd" clip-rule="evenodd" d="M250.531 18.7547C248.998 21.9338 246.656 25.5382 243.504 29.568C240.353 33.5965 237.521 36.8298 235.007 39.2693L233.985 42.2747C233.474 43.7996 232.985 45.6498 232.516 47.828C232.048 50.0062 231.835 51.552 231.877 52.4667C231.877 53.7733 232.346 54.4267 233.283 54.4267C234.22 54.4267 235.338 53.8818 236.637 52.7933C237.935 51.7049 238.884 50.7569 239.479 49.952C240.076 49.1458 240.768 48.0893 241.556 46.7827C242.343 45.476 243.025 44.3431 243.6 43.3853C244.175 42.4276 244.505 41.948 244.59 41.948C244.845 41.948 244.973 42.3511 244.973 43.1574C244.973 43.9622 244.761 44.7351 244.334 45.476C241.992 49.5267 240.098 52.3791 238.649 54.0347C235.71 57.3444 232.687 59 229.577 59C227.193 59 226 57.3444 226 54.0347C226 50.768 227.427 45.0618 230.28 36.9173C230.493 36.2209 230.983 34.7613 231.749 32.54C232.516 30.3187 233.177 28.588 233.73 27.3467C234.284 26.1054 235.029 24.4609 235.966 22.4133C236.903 20.3658 237.807 18.7324 238.681 17.5133C239.554 16.2942 240.523 15.0529 241.587 13.7893C243.675 11.2636 245.931 10 248.359 10C250.786 10 252 11.1329 252 13.3973C252 15.1391 251.511 16.9253 250.531 18.7547ZM249.189 11.6333H248.742C246.145 11.6333 241.992 19.604 236.285 35.5453C242.12 28.5324 246.102 22.7831 248.231 18.2973C249.424 15.5533 250.02 13.7574 250.02 12.908C250.02 12.0587 249.744 11.6333 249.189 11.6333V11.6333Z" fill="#93A8C1"/>
<path fill-rule="evenodd" clip-rule="evenodd" d="M268.375 33H271C269.677 33.814 268.333 35.8291 266.966 39.044C265.857 41.7445 264.917 44.1988 264.149 46.4068C263.38 48.6134 262.912 49.9527 262.74 50.4247C262.57 50.8967 262.175 52.0431 261.556 53.8653C260.936 55.6862 260.435 57.0898 260.051 58.0761C258.984 61.0762 257.746 63.4553 256.337 65.2132C254.928 66.9711 253.179 68.3747 251.087 69.4254C248.995 70.4747 246.882 71 244.748 71C242.614 71 240.789 70.5827 239.274 69.7469C237.757 68.911 237 67.5922 237 65.7919C237 64.8493 237.289 64.0025 237.865 63.2528C238.441 62.5017 239.102 62.1269 239.85 62.1269C240.597 62.1269 241.226 62.2979 241.738 62.6413C242.25 62.9847 242.614 63.3705 242.827 63.7986C242.058 64.0558 241.674 64.956 241.674 66.4992C241.674 67.3131 241.963 67.9671 242.539 68.4609C243.116 68.9534 243.851 69.1997 244.748 69.1997C248.205 69.1997 251.108 66.0915 253.456 59.8765L257.105 50.1032C255.1 52.6327 253.36 54.5288 251.888 55.7943C250.415 57.0583 249.262 57.819 248.43 58.0761C247.598 58.3333 246.615 58.4619 245.485 58.4619C244.353 58.4619 243.447 58.0009 242.763 57.0802C242.08 56.1582 241.749 54.8079 241.771 53.0294C241.791 51.2496 242.304 48.7106 243.308 45.4095C244.31 42.1084 245.421 39.4941 246.637 37.5651C247.854 35.6362 249.113 34.3927 250.415 33.8359C251.716 33.2791 253.499 33 255.761 33C255.932 33 256.017 33.0862 256.017 33.2572C256.017 33.4282 255.889 33.643 255.633 33.9002C253.884 35.4433 252.1 38.2081 250.287 42.1946C248.472 46.181 247.565 49.5464 247.565 52.2893C247.565 53.7463 247.971 54.4755 248.782 54.4755C250.318 54.4755 252.283 52.9323 254.672 49.846C257.063 46.7597 258.898 43.6734 260.179 40.5871C260.351 40.1589 260.596 39.5365 260.916 38.7225C261.236 37.9085 261.46 37.3504 261.588 37.0508C261.716 36.7512 261.919 36.3325 262.197 35.7976C262.473 35.2614 262.72 34.8975 262.932 34.7046C263.146 34.5117 263.434 34.2641 263.797 33.9645C264.16 33.6649 264.533 33.472 264.917 33.3858C266.156 33.1286 267.308 33 268.375 33" fill="#93A8C1"/>
<path fill-rule="evenodd" clip-rule="evenodd" d="M300.351 45.4015C298.749 48.1173 297.288 50.383 295.968 52.2014C294.647 54.0185 293.143 55.6063 291.455 56.9635C289.766 58.3207 288.23 59 286.844 59C284.291 59 283.013 57.5771 283.013 54.7299C283.013 51.8827 284.636 46.1674 287.883 37.5839C288.057 37.1898 288.143 36.7733 288.143 36.3358C288.143 35.4161 287.569 34.9562 286.423 34.9562C285.275 34.9562 284.15 35.3182 283.046 36.0408C281.942 36.7635 280.935 37.7922 280.026 39.1284C279.117 40.4633 278.295 41.8219 277.558 43.2014C276.823 44.581 276.141 46.1674 275.514 47.9635C274.885 49.7596 274.388 51.2594 274.02 52.4642C273.651 53.6677 273.284 54.9606 272.916 56.3401C272.547 57.7197 272.343 58.4745 272.299 58.6058H266C266 57.6861 267.905 52.4083 271.714 42.7737C273.273 38.2632 274.052 35.11 274.052 33.3139C274.052 32.8764 273.987 32.5479 273.857 32.3285H276.584C278.1 32.3285 279.074 32.4822 279.506 32.7883C279.94 33.0944 280.156 33.5109 280.156 34.0365C280.156 34.562 279.918 35.6355 279.442 37.2555C283.078 33.7514 286.736 32 290.416 32C292.883 32 294.117 33.1392 294.117 35.4161C294.117 36.161 294.009 36.9046 293.792 37.6496C293.577 38.3946 293.035 39.8832 292.169 42.1168C290.265 47.0214 289.312 50.3061 289.312 51.9708C289.312 53.0219 289.701 53.5474 290.481 53.5474C291.044 53.5474 291.833 53.1533 292.851 52.365C293.868 51.5766 294.712 50.7562 295.384 49.9022C296.054 49.0481 296.79 47.9747 297.592 46.6832C298.392 45.3903 299.074 44.2623 299.636 43.2993C300.2 42.3362 300.525 41.854 300.61 41.854C300.87 41.854 301 42.2594 301 43.07C301 43.8793 300.784 44.6565 300.351 45.4015" fill="#93A8C1"/>
<path fill-rule="evenodd" clip-rule="evenodd" d="M57 22.6503C56.5213 27.2401 53.6087 30.6704 48.2609 32.9441C46.9995 33.4587 45.7174 33.8448 44.413 34.1021C51.1957 35.3464 54.587 38.5194 54.587 43.6238C54.587 47.9562 52.2502 51.6014 47.5754 54.5608C42.9019 57.5203 37.1087 59 30.1957 59C26.8043 59 23.9778 58.4744 21.7174 57.4245C19.457 56.3732 18.3261 54.6252 18.3261 52.1804C18.3261 49.1785 19.9343 43.9455 23.1522 36.4825C26.37 29.0196 29.3478 22.6503 32.087 17.3748C32.5213 16.5166 32.8474 15.917 33.0652 15.5734L30.7174 15.8951C27.3261 16.3674 24.2068 17.1599 21.358 18.2755C18.5106 19.3911 16.5874 20.7846 15.587 22.4573C15.5439 22.586 15.4343 22.6503 15.2609 22.6503C15.0874 22.6503 15 22.5326 15 22.2972C15 22.0604 15.0222 21.9002 15.0652 21.814C16.7179 17.3529 19.7387 14.6303 24.1304 13.6434C26.13 13.2149 28.8039 13 32.1522 13H45C48.9561 13 51.945 13.8364 53.9667 15.5091C55.9884 17.1818 57 19.283 57 21.814V22.6503ZM50.2174 20.9776C49.8261 17.2037 46.8039 15.1874 41.1522 14.9301C39.1082 17.5459 36.4135 22.4573 33.0652 29.6629C29.7169 36.8685 27.587 42.0688 26.6739 45.265C25.7609 48.4599 25.3043 50.8828 25.3043 52.535C25.3043 54.1858 25.7831 55.2576 26.7391 55.7517C27.6952 56.2445 29.2826 56.4909 31.5 56.4909C35.6309 56.4909 39.2387 55.3863 42.3261 53.1783C45.4135 50.969 46.9565 47.6769 46.9565 43.3021C46.9565 41.1571 46.4237 39.3133 45.358 37.7692C44.2937 36.2252 42.7396 35.3245 40.6957 35.0671C37.9995 35.7967 35.3908 36.1608 32.8696 36.1608C32.13 36.1608 31.7609 36.0103 31.7609 35.7105C31.7609 34.7236 32.4352 34.0487 33.7826 33.6846C35.13 33.3191 36.4135 33.1371 37.6304 33.1371C38.8474 33.1371 40.0435 33.2233 41.2174 33.3944C44.0439 32.5361 46.2502 30.9921 47.8363 28.7622C49.4237 26.5324 50.2174 24.2163 50.2174 21.814V20.9776V20.9776Z" fill="#FFFFFE"/>
</svg>
