<svg width="350" height="68" viewBox="0 0 350 68" fill="none" xmlns="http://www.w3.org/2000/svg">
<path fill-rule="evenodd" clip-rule="evenodd" d="M29 56.4183C27.5365 56.4183 24.3133 55.1398 24.3133 51.7667C24.3133 48.3954 28.8831 43.7438 29 37.8137C29.1169 31.8836 33.6867 47.9293 33.6867 51.7667C33.6867 55.604 30.4635 56.4183 29 56.4183M55.9451 62.1937L38.4884 56.4183L55.9451 50.6429C57.5197 50.1226 58.3694 48.4361 57.8451 46.8771C57.3209 45.3143 55.6236 44.4769 54.051 44.9913L41.0549 49.291C41.809 47.6469 42.2826 45.6644 42.2826 43.2351C42.2826 32.3594 29.3313 -13.1202 29 3.68754C28.6687 20.4953 15.7174 33.6785 15.7174 43.2351C15.7174 45.6567 16.306 47.6953 17.2491 49.3915L3.94904 44.9913C2.37836 44.4769 0.679064 45.3143 0.154854 46.8771C-0.369355 48.4361 0.480293 50.1226 2.05487 50.6429L19.5116 56.4183L2.05487 62.1937C0.480293 62.714 -0.369355 64.4005 0.154854 65.9595C0.575781 67.2109 1.74697 68 3.00195 68C3.31765 68 3.63529 67.9497 3.94904 67.8453L29 59.5574L54.051 67.8453C54.3647 67.9497 54.6824 68 54.998 68C56.253 68 57.4242 67.2109 57.8451 65.9595C58.3694 64.4005 57.5197 62.714 55.9451 62.1937" fill="#93A8C1"/>
<path fill-rule="evenodd" clip-rule="evenodd" d="M88.6413 45C84.9825 45 81.7391 44.1432 78.913 42.4317C76.087 40.7182 73.8956 38.3782 72.337 35.4079C70.7803 32.4395 70 29.153 70 25.5445C70 22.0843 70.7337 18.7783 72.2011 15.6284C73.6685 12.4766 75.8346 9.91803 78.6957 7.95082C81.5586 5.98361 85 5 89.0217 5C90.4717 5 92.038 5.23614 93.7228 5.71038C95.4076 6.18267 96.9565 6.83841 98.3696 7.6776H98.4239L98.2065 5.38251H102.391V18.1148H98.8587C97.8804 12.0667 94.837 9.00664 89.7283 8.93247C87.302 8.93247 85.2446 9.65261 83.5598 11.0929C81.875 12.5312 80.6172 14.434 79.7826 16.8033C78.9499 19.1706 78.5326 21.7213 78.5326 24.4516C78.5326 27.5859 78.9868 30.3728 79.8913 32.8142C80.7977 35.2537 82.1021 37.1585 83.8043 38.5246C85.5085 39.8907 87.5543 40.5738 89.9457 40.5738C92.2651 40.5738 94.538 39.9727 96.7663 38.7705C98.9946 37.5664 100.87 35.929 102.391 33.8505L105 36.2549C102.609 39.5706 99.9825 41.856 97.1196 43.1148C94.2585 44.3716 91.4325 45 88.6413 45" fill="#93A8C1"/>
<path fill-rule="evenodd" clip-rule="evenodd" d="M105 40.2521C105.945 40.2521 106.736 39.9805 107.373 39.4373C108.008 38.8922 108.508 38.2326 108.873 37.4547C109.235 36.6749 109.691 35.5439 110.236 34.0599L120.873 5H124.691L136.309 34.6031C136.599 35.3267 136.909 36.2229 137.236 37.2918C137.564 38.3587 137.762 39.255 137.836 39.9805C139.036 39.8719 140.09 39.8156 141 39.8156V44H126.327V40.4131C128.073 40.4131 128.945 39.6895 128.945 38.2423C128.945 37.5168 128.745 36.6477 128.345 35.6332L127.255 32.6476L115.418 32.863L114.545 35.4159C114.436 35.7069 114.191 36.3587 113.809 37.3733C113.427 38.3859 113.09 39.2007 112.8 39.8156C113.963 39.7089 115.255 39.6527 116.673 39.6527V44H105V40.2521ZM125.891 28.7911L123.382 22.0014C122.326 19.0314 121.636 16.5502 121.309 14.5599H121.255C120.672 17.1671 120 19.5571 119.236 21.7298L116.782 28.7911H125.891V28.7911Z" fill="#93A8C1"/>
<path fill-rule="evenodd" clip-rule="evenodd" d="M156.285 25.9282C155.742 24.6452 155.099 22.8521 154.356 20.5451C153.612 18.238 152.987 15.8937 152.48 13.5141H152.426C152.535 16.8452 152.589 19.8859 152.589 22.6324V24.5L152.535 34.4403C152.535 36.712 152.443 38.3599 152.263 39.3859C153.459 39.2761 154.835 39.2192 156.394 39.2192V43.4507H144V39.8234C144.978 39.7881 145.722 39.6684 146.229 39.4683C146.735 39.2662 147.135 38.8366 147.425 38.1775C147.714 37.5183 147.86 36.4727 147.86 35.0465L148.186 14.0065C148.258 11.3346 148.331 9.68667 148.403 9.06479L144.326 9.22958V5H156.34L164.548 26.2558C165.092 27.6859 165.672 29.2593 166.288 30.9817C166.903 32.7022 167.338 34.0205 167.592 34.9366H167.647C167.792 34.5698 168.19 33.4339 168.843 31.531C169.349 30.0283 169.804 28.7472 170.202 27.6859L178.627 5H191.185V8.62339C190.206 8.66066 189.445 8.78033 188.901 8.98239C188.358 9.1825 187.94 9.61408 187.651 10.2713C187.362 10.9324 187.234 11.9761 187.271 13.4042L188.086 34.4403C188.195 36.3099 188.123 37.9558 187.869 39.3859C189.065 39.2761 190.441 39.2192 192 39.2192V43.4507H176.888V39.8234C177.866 39.7881 178.618 39.6684 179.144 39.4683C179.67 39.2662 180.078 38.8366 180.367 38.1775C180.656 37.5183 180.784 36.4727 180.747 35.0465L180.313 23.4014L180.204 21.3141C180.023 17.7613 179.915 15.2895 179.878 13.8986H179.823L168.68 44H163.624L156.285 25.9282" fill="#93A8C1"/>
<path fill-rule="evenodd" clip-rule="evenodd" d="M197 39.4257C197.976 39.3909 198.715 39.273 199.222 39.0758C199.727 38.8767 200.124 38.4533 200.414 37.8038C200.703 37.1543 200.848 36.1239 200.848 34.7186V13.986C200.848 11.9659 200.92 10.3421 201.065 9.11649L197 9.27888V5.1111L212.392 5.00091C217.269 4.96611 221.09 5.93073 223.854 7.89864C226.618 9.86461 228 12.8513 228 16.8567C228 18.9115 227.421 20.8795 226.266 22.7546C225.108 24.6316 223.374 26.1665 221.063 27.3573C218.75 28.5481 215.932 29.1976 212.608 29.3059L210.495 29.3581L208.706 29.3059V34.069C208.706 36.1239 208.633 37.7671 208.49 38.9946C209.645 38.8863 211.18 38.8303 213.096 38.8303V43H197V39.4257ZM211.145 25.4087C214.072 25.4087 216.212 24.6761 217.567 23.2146C218.922 21.7532 219.6 19.6171 219.6 16.8025C219.6 11.4614 217.178 8.79173 212.337 8.79173C211.072 8.79173 210.15 9.06043 209.573 9.6017C208.995 10.143 208.706 11.299 208.706 13.0658V25.2463C209.465 25.3546 210.278 25.4087 211.145 25.4087V25.4087Z" fill="#93A8C1"/>
<path fill-rule="evenodd" clip-rule="evenodd" d="M231 40.4152C231.996 40.3803 232.753 40.262 233.269 40.0643C233.785 39.8646 234.192 39.44 234.486 38.7886C234.781 38.1371 234.929 37.1038 234.929 35.6943V14.9009C234.929 12.8749 235.002 11.2463 235.15 10.0171L231 10.18V6H258.668L259 16.5295H255.348C255.348 13.852 254.694 11.9986 253.383 10.9652C252.073 9.93571 250.496 9.4549 248.652 9.52857L246.66 9.58092C245.775 9.61776 245.073 9.73602 244.557 9.93571C244.042 10.1335 243.644 10.5774 243.368 11.2638C243.091 11.952 242.953 12.966 242.953 14.3057V23.7514H248.652C248.615 23.2803 248.542 21.7235 248.431 19.0829H252.692V32.2743H249.04C249.04 30.826 248.808 29.75 248.348 29.0443C247.887 28.3386 247.279 27.8946 246.522 27.7123C245.765 27.532 244.796 27.4603 243.617 27.4971H242.953V35.0952C242.953 37.1232 242.879 38.7517 242.731 39.9829C243.911 39.8743 245.553 39.8181 247.656 39.8181V44H231V40.4152" fill="#93A8C1"/>
<path fill-rule="evenodd" clip-rule="evenodd" d="M262 40.4152C263.003 40.3803 263.766 40.262 264.286 40.0643C264.807 39.8646 265.216 39.44 265.512 38.7886C265.811 38.1371 265.958 37.1038 265.958 35.6943V14.9009C265.958 12.8749 266.034 11.2463 266.181 10.0171L262 10.18V6H278V9.58092C276.997 9.61776 276.236 9.73602 275.714 9.93571C275.195 10.1335 274.786 10.56 274.488 11.2095C274.191 11.8629 274.042 12.8943 274.042 14.3057V35.0952C274.042 37.1232 273.968 38.7517 273.819 39.9829C275.009 39.8743 276.403 39.8181 278 39.8181V44H262V40.4152" fill="#93A8C1"/>
<path fill-rule="evenodd" clip-rule="evenodd" d="M284 39.4257C284.984 39.3909 285.73 39.273 286.241 39.0758C286.751 38.8767 287.151 38.4533 287.444 37.8038C287.735 37.1543 287.881 36.124 287.881 34.7186V13.9861C287.881 11.966 287.953 10.3422 288.1 9.11658L284 9.27896V5.11119L299.524 5.00101C304.516 4.96621 308.37 5.83224 311.085 7.5991C313.799 9.36789 315.158 12.2366 315.158 16.2053C315.158 18.697 314.345 20.9066 312.725 22.8358C311.103 24.767 308.707 26.1839 305.537 27.0867V27.1389C306.193 27.3921 306.866 27.8348 307.559 28.4669C308.251 29.0971 308.834 29.793 309.309 30.5508L311.878 34.3397C313.116 36.2515 314.146 37.568 314.966 38.289C315.786 39.012 316.797 39.3909 318 39.4257V43H308.981C308.36 42.567 307.741 41.9445 307.122 41.1307C306.501 40.3207 305.791 39.2459 304.99 37.9101L300.945 31.4169C300.034 29.9728 299.268 28.927 298.65 28.2756H295.807V34.0691C295.807 36.124 295.733 37.7671 295.588 38.9946C296.754 38.8864 298.302 38.8303 300.235 38.8303V43H284V39.4257ZM298.431 24.3784C301.418 24.3784 303.577 23.7212 304.908 22.4047C306.238 21.0864 306.904 19.0218 306.904 16.2053C306.904 13.2109 306.129 11.2256 304.58 10.2532C303.03 9.27896 301.328 8.79182 299.469 8.79182C298.193 8.79182 297.263 9.06052 296.682 9.60179C296.098 10.1431 295.807 11.2991 295.807 13.0659V24.1639C296.9 24.3069 297.775 24.3784 298.431 24.3784V24.3784Z" fill="#93A8C1"/>
<path fill-rule="evenodd" clip-rule="evenodd" d="M321 40.4152C321.979 40.3803 322.724 40.262 323.231 40.0643C323.738 39.8646 324.138 39.44 324.428 38.7886C324.717 38.1371 324.863 37.1038 324.863 35.6943V14.9009C324.863 12.8749 324.935 11.2463 325.081 10.0171L321 10.18V6H348.205L348.531 16.5295H344.94C344.94 13.852 344.297 11.9986 343.008 10.9652C341.72 9.93571 340.169 9.4549 338.356 9.52857L336.398 9.58092C335.527 9.61776 334.837 9.73602 334.33 9.93571C333.823 10.1335 333.432 10.5774 333.16 11.2638C332.888 11.952 332.752 12.966 332.752 14.3057V22.4486H339.118C339.081 21.832 339.009 20.2578 338.901 17.7257H343.09V30.9171H339.499C339.499 29.4689 339.272 28.4006 338.819 27.7123C338.366 27.026 337.775 26.582 337.051 26.3823C336.326 26.1846 335.364 26.1032 334.167 26.14L332.752 26.1943V35.0952C332.752 37.0514 332.68 38.6432 332.535 39.8743H339.826C341.675 39.8743 343.244 39.25 344.532 38.0014C345.82 36.7529 346.463 34.7714 346.463 32.0571H350L349.728 44H321V40.4152" fill="#93A8C1"/>
<path fill-rule="evenodd" clip-rule="evenodd" d="M150.493 68C149.821 68 149.208 67.8591 148.656 67.5774C148.104 67.2956 147.632 66.9206 147.238 66.4524C146.844 65.9841 146.538 65.4504 146.323 64.8472C146.108 64.246 146 63.631 146 63C146 62.3433 146.113 61.7143 146.342 61.1111C146.571 60.5099 146.888 59.9782 147.291 59.5159C147.695 59.0516 148.172 58.6845 148.723 58.4107C149.275 58.1369 149.874 58 150.52 58C151.193 58 151.802 58.1468 152.35 58.4385C152.898 58.7302 153.368 59.1111 153.762 59.5833C154.156 60.0556 154.462 60.5913 154.677 61.1885C154.892 61.7857 155 62.3948 155 63.0139C155 63.6726 154.885 64.3016 154.656 64.9028C154.427 65.506 154.114 66.0357 153.714 66.494C153.316 66.9524 152.84 67.3175 152.288 67.5913C151.737 67.8651 151.139 68 150.493 68ZM147.224 63C147.224 63.5 147.303 63.9841 147.459 64.4524C147.616 64.9206 147.839 65.3333 148.126 65.6944C148.412 66.0556 148.758 66.3433 149.161 66.5556C149.565 66.7698 150.013 66.875 150.507 66.875C151.018 66.875 151.475 66.7619 151.879 66.5357C152.283 66.3095 152.625 66.0119 152.907 65.6468C153.19 65.2817 153.405 64.8671 153.553 64.4048C153.701 63.9405 153.776 63.4742 153.776 63C153.776 62.5 153.697 62.0179 153.539 61.5496C153.384 61.0813 153.159 60.6706 152.867 60.3135C152.577 59.9563 152.231 59.6726 151.831 59.4583C151.433 59.246 150.991 59.1389 150.507 59.1389C149.996 59.1389 149.538 59.25 149.135 59.4722C148.731 59.6944 148.387 59.9881 148.104 60.3472C147.822 60.7103 147.605 61.121 147.453 61.5833C147.301 62.0476 147.224 62.5198 147.224 63V63Z" fill="#93A8C1"/>
<path fill-rule="evenodd" clip-rule="evenodd" d="M165.993 66.8671C166.539 66.8671 166.995 66.7552 167.355 66.5335C167.716 66.3077 168.005 66.018 168.221 65.6583C168.438 65.2987 168.589 64.8891 168.678 64.4276C168.766 63.966 168.81 63.4965 168.81 63.021V58H170V63.021C170 63.6923 169.926 64.3297 169.781 64.9311C169.635 65.5325 169.405 66.0619 169.088 66.5175C168.77 66.975 168.358 67.3367 167.85 67.6024C167.344 67.8681 166.73 68 166.007 68C165.257 68 164.628 67.8601 164.116 67.5804C163.604 67.3007 163.192 66.9311 162.878 66.4695C162.567 66.008 162.342 65.4765 162.204 64.8751C162.068 64.2737 162 63.6563 162 63.021V58H163.19V63.021C163.19 63.5165 163.235 63.994 163.328 64.4555C163.421 64.9171 163.575 65.3247 163.791 65.6783C164.008 66.034 164.293 66.3197 164.65 66.5395C165.007 66.7592 165.455 66.8671 165.993 66.8671" fill="#93A8C1"/>
<path fill-rule="evenodd" clip-rule="evenodd" d="M185 59.1268H181.621V68H180.379V59.1268H177V58H185V59.1268" fill="#93A8C1"/>
<path fill-rule="evenodd" clip-rule="evenodd" d="M198 66.8732V68H191V58H197.869V59.1268H192.307V62.3662H197.143V63.4225H192.307V66.8732H198" fill="#93A8C1"/>
<path fill-rule="evenodd" clip-rule="evenodd" d="M205 68V58H208.926C209.33 58 209.703 58.0926 210.042 58.2757C210.384 58.4588 210.675 58.7022 210.921 59.008C211.166 59.3139 211.358 59.6559 211.496 60.0362C211.635 60.4165 211.703 60.8028 211.703 61.1972C211.703 61.5453 211.657 61.8813 211.566 62.2052C211.476 62.5292 211.347 62.8229 211.179 63.0845C211.011 63.3481 210.81 63.5734 210.572 63.7606C210.336 63.9497 210.072 64.0845 209.779 64.169L212 68H210.683L208.59 64.4085H206.162V68H205ZM206.162 63.2817H208.939C209.181 63.2817 209.397 63.2274 209.59 63.1127C209.784 63 209.95 62.8491 210.089 62.6559C210.227 62.4628 210.334 62.2394 210.411 61.9859C210.489 61.7324 210.528 61.4708 210.528 61.1972C210.528 60.9175 210.482 60.6519 210.391 60.4024C210.301 60.1529 210.181 59.9336 210.03 59.7404C209.88 59.5473 209.703 59.3984 209.5 59.2897C209.299 59.1811 209.085 59.1268 208.862 59.1268H206.162V63.2817V63.2817Z" fill="#93A8C1"/>
<path fill-rule="evenodd" clip-rule="evenodd" d="M222.558 58.0563H223.711L224.986 61.5352L226.275 58.0563H227.428L225.76 62.4085L227.415 66.5352L230.671 58H232L227.971 68H226.913L225 63.2817L223.074 68H222.016L218 58H219.316L222.585 66.5352L224.227 62.4085L222.558 58.0563" fill="#93A8C1"/>
<path fill-rule="evenodd" clip-rule="evenodd" d="M246 66.8732V68H239V58H245.869V59.1268H240.307V62.3662H245.143V63.4225H240.307V66.8732H246" fill="#93A8C1"/>
<path fill-rule="evenodd" clip-rule="evenodd" d="M254.986 58H256.027L260 68H258.685L257.534 65.0724H253.452L252.315 68H251L254.986 58ZM257.26 64.0845L255.507 59.4668L253.699 64.0845H257.26V64.0845Z" fill="#93A8C1"/>
<path fill-rule="evenodd" clip-rule="evenodd" d="M267 68V58H270.926C271.33 58 271.703 58.0926 272.042 58.2757C272.384 58.4588 272.675 58.7022 272.921 59.008C273.166 59.3139 273.358 59.6559 273.496 60.0362C273.635 60.4165 273.703 60.8028 273.703 61.1972C273.703 61.5453 273.657 61.8813 273.566 62.2052C273.476 62.5292 273.347 62.8229 273.179 63.0845C273.011 63.3481 272.81 63.5734 272.572 63.7606C272.336 63.9497 272.072 64.0845 271.779 64.169L274 68H272.683L270.59 64.4085H268.162V68H267ZM268.162 63.2817H270.939C271.181 63.2817 271.397 63.2274 271.59 63.1127C271.784 63 271.95 62.8491 272.089 62.6559C272.227 62.4628 272.334 62.2394 272.411 61.9859C272.489 61.7324 272.528 61.4708 272.528 61.1972C272.528 60.9175 272.482 60.6519 272.391 60.4024C272.301 60.1529 272.181 59.9336 272.03 59.7404C271.88 59.5473 271.703 59.3984 271.5 59.2897C271.299 59.1811 271.085 59.1268 270.862 59.1268H268.162V63.2817V63.2817Z" fill="#93A8C1"/>
</svg>
