<svg height="512pt" viewBox="0 -40 512 511" width="512pt" xmlns="http://www.w3.org/2000/svg"><g fill="#00479b"><path d="m159.601562 142.964844h-144.601562c-8.285156 0-15-6.714844-15-15s6.714844-15 15-15h144.601562c8.28125 0 15 6.714844 15 15s-6.71875 15-15 15zm0 0"/><path d="m159.601562 271.5h-144.601562c-8.285156 0-15-6.714844-15-15s6.714844-15 15-15h144.601562c8.28125 0 15 6.714844 15 15s-6.71875 15-15 15zm0 0"/><path d="m288.132812 432.167969c-3.976562 0-7.792968-1.582031-10.605468-4.394531l-32.132813-32.136719c-5.859375-5.855469-5.859375-15.351563 0-21.210938s15.355469-5.859375 21.214844 0l21.523437 21.527344 53.660157-53.660156c5.855469-5.859375 15.355469-5.859375 21.214843 0 5.855469 5.855469 5.855469 15.355469 0 21.210937l-64.269531 64.269532c-2.8125 2.8125-6.625 4.394531-10.605469 4.394531zm0 0"/><path d="m159.601562 400.03125h-144.601562c-8.285156 0-15-6.714844-15-15 0-8.28125 6.714844-15 15-15h144.601562c8.28125 0 15 6.71875 15 15 0 8.285156-6.71875 15-15 15zm0 0"/></g><path d="m324.855469 271.5h-68.855469c-8.285156 0-15-6.714844-15-15v-68.855469c0-3.976562 1.582031-7.792969 4.394531-10.605469l103.285157-103.285156c5.859374-5.859375 15.355468-5.859375 21.214843 0 5.859375 5.855469 5.859375 15.355469 0 21.210938l-98.894531 98.894531v47.640625h47.644531l98.890625-98.890625c5.859375-5.859375 15.355469-5.859375 21.214844 0 5.855469 5.855469 5.855469 15.351563 0 21.210937l-103.285156 103.285157c-2.8125 2.8125-6.628906 4.394531-10.609375 4.394531zm0 0" fill="#ffe477"/><path d="m428.140625 168.214844c-3.835937 0-7.675781-1.464844-10.605469-4.394532l-68.851562-68.855468c-5.859375-5.855469-5.859375-15.355469-.003906-21.210938l68.855468-68.859375c2.8125-2.8125 6.628906-4.394531 10.605469-4.394531 3.980469 0 7.796875 1.578125 10.609375 4.394531l68.855469 68.859375c2.8125 2.8125 4.394531 6.625 4.394531 10.605469 0 3.976563-1.578125 7.792969-4.394531 10.605469l-68.855469 68.855468c-2.929688 2.929688-6.769531 4.394532-10.609375 4.394532zm-47.640625-83.855469 47.640625 47.640625 47.648437-47.640625-47.648437-47.644531zm0 0" fill="#ff3f62"/></svg>