<svg height="512pt" viewBox="0 0 512 512" width="512pt" xmlns="http://www.w3.org/2000/svg"><path d="m497 0h-273.132812c-8.285157 0-15 6.714844-15 15v192.800781c0 8.285157 6.714843 15 15 15h121.566406v81.398438c0 8.285156 6.714844 15 15 15s15-6.714844 15-15v-81.398438h121.566406c8.285156 0 15-6.714843 15-15v-192.800781c0-8.285156-6.714844-15-15-15zm-15 192.800781h-243.132812v-162.800781h243.132812zm0 0" fill="#00479b"/><path d="m111.398438 222.800781h-96.398438c-8.285156 0-15-6.714843-15-15 0-8.285156 6.714844-15 15-15h96.398438c8.285156 0 15 6.714844 15 15 0 8.285157-6.714844 15-15 15zm0 0" fill="#ff3f62"/><path d="m111.398438 126.398438h-96.398438c-8.285156 0-15-6.714844-15-15 0-8.28125 6.714844-15 15-15h96.398438c8.285156 0 15 6.71875 15 15 0 8.285156-6.714844 15-15 15zm0 0" fill="#ff3f62"/><path d="m497 289.199219h-482c-8.285156 0-15 6.714843-15 15v192.800781c0 8.285156 6.714844 15 15 15s15-6.714844 15-15v-81.398438h452v81.398438c0 8.285156 6.714844 15 15 15s15-6.714844 15-15v-192.800781c0-8.285157-6.714844-15-15-15zm-467 96.402343v-66.402343h452v66.402343zm0 0" fill="#ff7956"/></svg>