<svg height="512pt" viewBox="0 -104 512 512" width="512pt" xmlns="http://www.w3.org/2000/svg"><path d="m175.667969 304.277344c-3.839844 0-7.679688-1.464844-10.605469-4.394532l-137.140625-137.136718c-18.007813-18.011719-27.921875-41.949219-27.921875-67.414063 0-25.464843 9.914062-49.402343 27.921875-67.410156s41.945313-27.921875 67.410156-27.921875c25.464844 0 49.402344 9.914062 67.410157 27.921875 18.007812 18.007813 27.925781 41.949219 27.925781 67.410156 0 8.285157-6.71875 15-15 15-8.285157 0-15-6.714843-15-15 0-17.449219-6.796875-33.855469-19.136719-46.199219-12.339844-12.335937-28.75-19.132812-46.199219-19.132812s-33.855469 6.796875-46.195312 19.136719c-12.339844 12.339843-19.136719 28.746093-19.136719 46.195312s6.796875 33.859375 19.136719 46.203125l126.53125 126.527344 126.53125-126.53125c12.335937-12.339844 19.132812-28.75 19.132812-46.195312 0-8.285157 6.714844-15 15-15 8.285157 0 15 6.714843 15 15 0 25.457031-9.914062 49.398437-27.917969 67.410156l-137.140624 137.136718c-2.929688 2.929688-6.765626 4.394532-10.605469 4.394532zm0 0" fill="#75efff"/><path d="m336.332031 304.277344c-3.839843 0-7.675781-1.464844-10.605469-4.394532l-137.136718-137.136718c-18.007813-18.011719-27.921875-41.949219-27.921875-67.414063-.003907-25.464843 9.914062-49.402343 27.921875-67.410156 18.003906-18.007813 41.945312-27.921875 67.410156-27.921875 25.460938 0 49.402344 9.914062 67.410156 27.917969 4.925782 4.925781 9.246094 10.296875 12.921875 16.019531 3.675781-5.722656 7.996094-11.089844 12.921875-16.015625 18.011719-18.007813 41.949219-27.921875 67.410156-27.921875 52.570313 0 95.335938 42.765625 95.335938 95.332031 0 25.460938-9.914062 49.402344-27.921875 67.410157l-137.140625 137.140624c-2.925781 2.929688-6.765625 4.390626-10.605469 4.394532zm-80.332031-274.277344c-17.449219 0-33.855469 6.796875-46.199219 19.136719-12.339843 12.339843-19.136719 28.746093-19.132812 46.195312 0 17.449219 6.796875 33.859375 19.136719 46.203125l126.527343 126.527344 126.53125-126.53125c12.339844-12.339844 19.136719-28.75 19.136719-46.199219 0-36.023437-29.308594-65.332031-65.335938-65.332031-17.445312 0-33.855468 6.796875-46.199218 19.136719-12.335938 12.339843-19.132813 28.746093-19.132813 46.195312 0 8.285157-6.714843 15-15 15-8.285156 0-15-6.714843-15-15 0-17.449219-6.796875-33.855469-19.136719-46.199219-12.339843-12.335937-28.746093-19.132812-46.195312-19.132812zm0 0" fill="#ff3f62"/></svg>