<svg height="512pt" viewBox="-16 0 512 512" width="512pt" xmlns="http://www.w3.org/2000/svg"><path d="m352.402344 512h-224.933594c-8.285156 0-15-6.714844-15-15 0-70.285156 57.179688-127.46875 127.464844-127.46875s127.46875 57.183594 127.46875 127.46875c0 8.285156-6.71875 15-15 15zm-208.785156-30h192.628906c-7.234375-46.644531-47.671875-82.46875-96.3125-82.46875-48.644532 0-89.078125 35.824219-96.316406 82.46875zm0 0" fill="#ff3f62"/><path d="m239.933594 303.132812c-34.847656 0-63.199219-28.351562-63.199219-63.199218s28.351563-63.199219 63.199219-63.199219 63.199218 28.351563 63.199218 63.199219-28.351562 63.199218-63.199218 63.199218zm0-96.398437c-18.304688 0-33.199219 14.894531-33.199219 33.199219 0 18.304687 14.894531 33.199218 33.199219 33.199218 18.304687 0 33.199218-14.894531 33.199218-33.199218 0-18.304688-14.894531-33.199219-33.199218-33.199219zm0 0" fill="#ffe477"/><g fill="#75efff"><path d="m239.933594 78.199219c-8.285156 0-15-6.714844-15-15v-48.199219c0-8.285156 6.714844-15 15-15s15 6.714844 15 15v48.199219c0 8.285156-6.714844 15-15 15zm0 0"/><path d="m63.199219 254.933594h-48.199219c-8.285156 0-15-6.714844-15-15s6.714844-15 15-15h48.199219c8.285156 0 15 6.714844 15 15s-6.714844 15-15 15zm0 0"/><path d="m464.867188 254.933594h-48.199219c-8.285157 0-15-6.714844-15-15s6.714843-15 15-15h48.199219c8.285156 0 15 6.714844 15 15s-6.714844 15-15 15zm0 0"/><path d="m114.964844 129.964844c-3.839844 0-7.679688-1.464844-10.605469-4.394532l-34.082031-34.082031c-5.859375-5.859375-5.859375-15.355469 0-21.214843 5.855468-5.859376 15.355468-5.859376 21.210937 0l34.082031 34.082031c5.859376 5.859375 5.859376 15.355469 0 21.214843-2.925781 2.929688-6.765624 4.394532-10.605468 4.394532zm0 0"/><path d="m364.902344 129.964844c-3.839844 0-7.675782-1.464844-10.605469-4.394532-5.859375-5.859374-5.859375-15.355468 0-21.214843l34.082031-34.082031c5.859375-5.859376 15.355469-5.859376 21.214844 0 5.855469 5.859374 5.855469 15.355468 0 21.214843l-34.085938 34.082031c-2.925781 2.929688-6.765624 4.394532-10.605468 4.394532zm0 0"/></g></svg>