<svg width="256" height="73" viewBox="0 0 256 73" fill="none" xmlns="http://www.w3.org/2000/svg">
<path fill-rule="evenodd" clip-rule="evenodd" d="M92.9693 17.7829V27.348H86.9942V17.7052L77 0.348022H83.3426L90.2391 12.3433L97.1369 0.348022H103L92.9693 17.7829" fill="#93A8C1"/>
<path fill-rule="evenodd" clip-rule="evenodd" d="M117.5 27C114.844 27 112.45 26.4149 110.317 25.2461C108.185 24.0786 106.516 22.4684 105.31 20.418C104.103 18.3663 103.5 16.0603 103.5 13.5C103.5 10.9397 104.103 8.63367 105.31 6.58199C106.516 4.53163 108.185 2.92138 110.317 1.75256C112.45 0.585066 114.844 0 117.5 0C120.157 0 122.545 0.585066 124.665 1.75256C126.784 2.92138 128.454 4.53163 129.672 6.58199C130.89 8.63367 131.5 10.9397 131.5 13.5C131.5 16.0603 130.89 18.3663 129.672 20.418C128.454 22.4684 126.784 24.0786 124.665 25.2461C122.545 26.4149 120.157 27 117.5 27ZM117.5 22C119.01 22 120.373 21.6393 121.592 20.9192C122.809 20.1978 123.765 19.1921 124.458 17.9022C125.153 16.6122 125.5 15.144 125.5 13.5C125.5 11.856 125.153 10.3878 124.458 9.09781C123.765 7.80786 122.809 6.80218 121.592 6.08077C120.373 5.3607 119.01 5 117.5 5C115.99 5 114.627 5.3607 113.41 6.08077C112.191 6.80218 111.236 7.80786 110.542 9.09781C109.847 10.3878 109.5 11.856 109.5 13.5C109.5 15.144 109.847 16.6122 110.542 17.9022C111.236 19.1921 112.191 20.1978 113.41 20.9192C114.627 21.6393 115.99 22 117.5 22V22Z" fill="#93A8C1"/>
<path fill-rule="evenodd" clip-rule="evenodd" d="M159 0.348022V27.348H154.028L140.981 10.9545V27.348H135V0.348022H140.01L153.019 16.7402V0.348022H159" fill="#93A8C1"/>
<path fill-rule="evenodd" clip-rule="evenodd" d="M185 22.3337V27.348H165V0.348022H184.52V5.36231H170.942V11.2257H182.933V16.0846H170.942V22.3337H185" fill="#93A8C1"/>
<path fill-rule="evenodd" clip-rule="evenodd" d="M195.078 5.44H187V0.348022H209V5.44H200.922V27.348H195.078V5.44" fill="#93A8C1"/>
<path fill-rule="evenodd" clip-rule="evenodd" d="M236 0.348022V27.348H229.945V16.2782H218.055V27.348H212V0.348022H218.055V10.994H229.945V0.348022H236" fill="#93A8C1"/>
<path fill-rule="evenodd" clip-rule="evenodd" d="M81 56.348H87V30.348H81V56.348Z" fill="#93A8C1"/>
<path fill-rule="evenodd" clip-rule="evenodd" d="M116 30.348V56.348H111.028L97.9812 40.5617V56.348H92V30.348H97.0103L110.019 46.1331V30.348H116" fill="#93A8C1"/>
<path fill-rule="evenodd" clip-rule="evenodd" d="M122.5 30H134.245C137.051 30 139.532 30.5381 141.686 31.6156C143.841 32.6919 145.515 34.2091 146.71 36.1647C147.904 38.1216 148.5 40.4 148.5 43C148.5 45.6 147.904 47.8771 146.71 49.834C145.515 51.7896 143.841 53.3068 141.686 54.3844C139.532 55.4606 137.051 56 134.245 56H122.5V30ZM132.981 51C135.574 51 137.642 50.281 139.185 48.8429C140.729 47.4048 141.5 45.4574 141.5 43.0007C141.5 40.5426 140.729 38.5952 139.185 37.1571C137.642 35.719 135.574 35 132.981 35H127.5V51H132.981V51Z" fill="#93A8C1"/>
<path fill-rule="evenodd" clip-rule="evenodd" d="M163 56C160.25 56 157.769 55.4162 155.561 54.2474C153.352 53.0785 151.624 51.4695 150.374 49.4177C149.125 47.3672 148.5 45.0611 148.5 42.5007C148.5 39.9389 149.125 37.6328 150.374 35.5823C151.624 33.5305 153.352 31.9215 155.561 30.7526C157.769 29.5838 160.25 29 163 29C165.75 29 168.224 29.5838 170.421 30.7526C172.616 31.9215 174.346 33.5305 175.607 35.5823C176.869 37.6328 177.5 39.9389 177.5 42.5007C177.5 45.0611 176.869 47.3672 175.607 49.4177C174.346 51.4695 172.616 53.0785 170.421 54.2474C168.224 55.4162 165.75 56 163 56ZM163 51C164.605 51 166.053 50.6393 167.347 49.918C168.641 49.198 169.655 48.1924 170.393 46.9012C171.131 45.6113 171.5 44.1445 171.5 42.5007C171.5 40.8555 171.131 39.3887 170.393 38.0988C169.655 36.809 168.641 35.8034 167.347 35.082C166.053 34.3607 164.605 34 163 34C161.395 34 159.947 34.3607 158.653 35.082C157.359 35.8034 156.345 36.809 155.607 38.0988C154.869 39.3887 154.5 40.8555 154.5 42.5007C154.5 44.1445 154.869 45.6113 155.607 46.9012C156.345 48.1924 157.359 49.198 158.653 49.918C159.947 50.6393 161.395 51 163 51V51Z" fill="#93A8C1"/>
<path fill-rule="evenodd" clip-rule="evenodd" d="M192.5 56C189.843 56 187.448 55.4162 185.317 54.2474C183.185 53.0785 181.515 51.4695 180.31 49.4177C179.103 47.3672 178.5 45.0611 178.5 42.5007C178.5 39.9389 179.103 37.6328 180.31 35.5823C181.515 33.5305 183.185 31.9215 185.317 30.7526C187.448 29.5838 189.843 29 192.5 29C195.156 29 197.544 29.5838 199.663 30.7526C201.784 31.9215 203.453 33.5305 204.672 35.5823C205.89 37.6328 206.5 39.9389 206.5 42.5007C206.5 45.0611 205.89 47.3672 204.672 49.4177C203.453 51.4695 201.784 53.0785 199.663 54.2474C197.544 55.4162 195.156 56 192.5 56ZM191.501 51C193.01 51 194.374 50.6393 195.591 49.918C196.81 49.198 197.765 48.1924 198.46 46.9012C199.153 45.6113 199.5 44.1445 199.5 42.5007C199.5 40.8555 199.153 39.3887 198.46 38.0988C197.765 36.809 196.81 35.8034 195.591 35.082C194.374 34.3607 193.01 34 191.501 34C189.99 34 188.626 34.3607 187.409 35.082C186.191 35.8034 185.235 36.809 184.54 38.0988C183.847 39.3887 183.5 40.8555 183.5 42.5007C183.5 44.1445 183.847 45.6113 184.54 46.9012C185.235 48.1924 186.191 49.198 187.409 49.918C188.626 50.6393 189.99 51 191.501 51V51Z" fill="#93A8C1"/>
<path fill-rule="evenodd" clip-rule="evenodd" d="M226.045 56L221.038 48.7565H215.51V56H209.5V30H220.74C223.041 30 225.037 30.3832 226.732 31.151C228.426 31.9188 229.73 33.0082 230.645 34.4191C231.56 35.8313 232.019 37.5021 232.019 39.434C232.019 41.3647 231.555 43.0302 230.627 44.4293C229.7 45.8284 228.383 46.8993 226.676 47.6422L232.5 56H226.045ZM225.5 39.5007C225.5 38.05 225.05 36.9369 224.148 36.1626C223.246 35.3871 221.93 35 220.198 35H215.5V44H220.198C221.93 44 223.246 43.6077 224.148 42.8204C225.05 42.0332 225.5 40.9266 225.5 39.5007V39.5007Z" fill="#93A8C1"/>
<path fill-rule="evenodd" clip-rule="evenodd" d="M244.774 56.348C242.682 56.348 240.66 56.0687 238.706 55.5086C236.753 54.9499 235.185 54.2224 234 53.3277L236.08 48.7774C237.214 49.5984 238.561 50.2572 240.124 50.754C241.686 51.2522 243.248 51.4999 244.811 51.4999C246.55 51.4999 247.835 51.2456 248.667 50.7356C249.498 50.2256 249.913 49.5483 249.913 48.7036C249.913 48.0816 249.668 47.5663 249.177 47.1552C248.686 46.7454 248.055 46.4159 247.287 46.1669C246.518 45.9191 245.479 45.645 244.169 45.3472C242.152 44.8741 240.502 44.4023 239.216 43.9293C237.931 43.4575 236.829 42.6985 235.909 41.6548C234.99 40.6111 234.529 39.2182 234.529 37.4774C234.529 35.962 234.946 34.5875 235.776 33.3567C236.609 32.1259 237.861 31.1507 239.538 30.4299C241.214 29.7091 243.262 29.348 245.681 29.348C247.369 29.348 249.02 29.547 250.632 29.945C252.245 30.3429 253.656 30.9149 254.866 31.6607L252.976 36.2466C250.532 34.8801 248.087 34.1961 245.642 34.1961C243.929 34.1961 242.663 34.4702 241.843 35.0171C241.024 35.564 240.616 36.2848 240.616 37.1796C240.616 38.0744 241.087 38.7398 242.033 39.1747C242.977 39.6096 244.42 40.0392 246.36 40.4609C248.377 40.9339 250.027 41.4057 251.312 41.8788C252.598 42.3506 253.7 43.0964 254.62 44.1164C255.539 45.135 256 46.5147 256 48.2555C256 49.7473 255.578 51.1085 254.734 52.3393C253.89 53.5701 252.623 54.5453 250.934 55.2661C249.245 55.9883 247.193 56.348 244.774 56.348" fill="#93A8C1"/>
<path fill-rule="evenodd" clip-rule="evenodd" d="M91.8559 61.0439C91.96 60.9078 92 60.822 92 60.7603C92 60.6065 91.7973 60.5321 91.3478 60.5321C90.8796 60.5321 90.9449 60.5762 90.8076 60.5762H90.7489C90.6448 60.5699 90.5661 60.5939 90.4168 60.754C89.127 62.1458 87.2383 64.1465 85.5577 65.6908C84.0478 67.0826 82.7193 68.0924 82.4645 68.0924C82.3285 68.0924 82.2765 68.0117 82.2765 67.8768C82.2765 67.3965 82.9927 66.2329 83.4089 65.629C84.1185 64.6079 86.1966 62.0096 87.0956 60.9141C87.1276 60.8712 87.1476 60.822 87.1476 60.7792C87.1476 60.5825 86.7634 60.3846 86.7434 60.4464C86.6194 60.3846 86.4833 60.348 86.3459 60.348C86.2166 60.348 86.0792 60.3846 85.9618 60.4779C85.2002 61.0565 83.7477 61.9113 83.3955 61.9113C83.3315 61.9113 83.3115 61.8936 83.3115 61.8621C83.3115 61.794 83.5062 61.6226 83.5062 61.5848C83.5062 61.5608 83.4542 61.5608 83.3835 61.5608C83.2662 61.5608 82.7446 61.9113 82.7446 62.2504C82.7446 62.6198 82.9727 62.9576 83.4089 62.9576C83.7743 62.9576 84.3079 62.5391 84.744 62.176C83.9824 63.0194 83.2261 64.004 82.4392 65.1613C81.6242 66.3501 81 67.4948 81 68.3256C81 68.7315 81.2534 69.2862 81.9697 69.2862C83.6503 69.2862 86.3459 66.3615 87.9225 64.6318C86.8021 66.0854 85.6497 67.8768 85.6497 68.6584C85.6497 69.0833 85.9298 69.348 86.2686 69.348C87.401 69.348 89.7325 67.8642 90.1367 66.8796C90.1753 66.7813 90.1953 66.6149 90.1953 66.4485C90.1953 66.1585 90.1367 65.8572 90.0193 65.8572C89.9939 65.8572 89.9673 65.8698 89.9352 65.9064C89.6805 66.1837 89.1203 66.6577 88.5868 67.0826C87.9879 67.5629 87.3623 67.8579 87.297 67.8579C87.2903 67.8579 87.2903 67.8516 87.2903 67.8516C87.2903 67.0334 91.6025 61.3704 91.8559 61.0439" fill="#93A8C1"/>
<path fill-rule="evenodd" clip-rule="evenodd" d="M95.9998 67.8191C95.9998 67.7131 96.0138 67.289 95.8216 67.289C95.6224 67.289 94.5128 68.495 93.862 68.495C93.6642 68.495 93.451 68.4251 93.451 68.236C93.451 67.83 94.2183 66.854 94.4441 66.554C94.712 66.201 95.5411 65.248 95.5411 64.889C95.5411 64.5649 95.2465 64.3601 94.8972 64.3601C93.8423 64.3601 92.7875 65.3131 92.1296 65.936C92.3287 65.6601 93.0133 64.854 93.0133 64.5769C93.0133 64.4769 92.9993 64.348 92.8492 64.348C92.4859 64.348 92.0412 64.43 91.8083 64.683C91.5685 64.942 91.4029 65.236 91.2051 65.5179C90.602 66.383 90.0002 67.248 89.411 68.13C89.2595 68.348 89 68.6601 89 68.854C89 68.889 89 68.9251 89.0477 68.948C89.1291 69.0071 89.5611 69.154 89.6775 69.154C89.8417 69.154 90.0128 69.0071 90.1096 68.901C90.5613 68.383 91.027 67.8721 91.5404 67.383C91.8827 67.0601 93.7399 65.383 94.0948 65.3601L94.1089 65.3709C94.0892 65.489 93.8143 65.836 93.7455 65.9239C93.1704 66.654 92.4241 67.648 92.4241 68.395C92.4241 68.9721 93.0273 69.336 93.5744 69.348C94.3894 69.348 95.1778 68.7312 95.6771 68.336C95.917 68.2131 95.9998 68.0191 95.9998 67.8191" fill="#93A8C1"/>
<path fill-rule="evenodd" clip-rule="evenodd" d="M98.5 63.2487C98.5 63.0868 98.3962 63 98.2331 63C97.8624 63 97.5 63.3927 97.5 63.7424C97.5 63.9123 97.5908 64 97.7669 64C98.1108 64 98.5 63.5716 98.5 63.2487ZM98.4998 67.4544C98.4998 67.3496 98.5112 66.9305 98.3556 66.9305C98.1842 66.9305 97.4575 68.1057 96.7864 68.1057C96.6479 68.1057 96.5037 68.07 96.5037 67.9081C96.5037 67.6282 96.7864 67.2103 96.9193 66.9769C97.0805 66.6864 98.2398 64.587 98.2398 64.4656C98.2398 64.2858 98.0116 64 97.8288 64C97.3519 64 96.4935 64.9883 96.4935 65.0812C96.4935 65.2158 96.7206 65.3313 96.7206 65.4658C96.7206 65.5587 95.5 67.4187 95.5 68.001C95.5 68.5118 96.0109 69 96.5094 69C97.1135 69 98.0786 68.5356 98.4669 67.7045C98.4998 67.6282 98.4998 67.5354 98.4998 67.4544V67.4544Z" fill="#93A8C1"/>
<path fill-rule="evenodd" clip-rule="evenodd" d="M104.5 64.2712C104.5 64.164 104.402 64 104.253 64C104.083 64 103.532 64.164 103.419 64.2971C103.356 64.3474 103.314 64.4353 103.272 64.5179C103.144 64.1963 102.735 64.1266 102.402 64.1266C101.88 64.1266 101.314 64.3539 100.87 64.5683C99.4851 65.2425 97.5 66.8571 97.5 68.3902C97.5 68.9443 97.8458 69.399 98.5099 69.399C99.3506 69.399 100.523 68.5349 101.059 67.9924C100.495 68.8436 98.6155 71.6193 98.6155 72.3942C98.6155 72.7042 98.9469 73 99.2941 73C99.6616 73 101.025 71.7768 101.35 71.4927C101.59 71.2847 102.014 71.0329 102.014 70.7926C102.014 70.7293 101.985 70.7164 101.943 70.679C101.752 70.4839 101.64 70.3393 101.321 70.3393C101.103 70.3393 100.466 70.976 100.29 71.1272C101.187 69.563 101.887 68.5349 102.855 66.9966C103.392 66.1441 103.985 65.3058 104.473 64.4353C104.5 64.3849 104.5 64.3345 104.5 64.2712ZM102.5 65.0732C102.075 65.5842 101.616 66.0825 101.096 66.525C100.719 66.849 99.1171 68 98.6304 68C98.5421 68 98.5 67.9489 98.5 67.8804C98.5 67.4379 99.4874 66.3949 99.8773 66.072C100.343 65.6864 101.486 65 102.165 65C102.288 65 102.405 65.0116 102.5 65.0732V65.0732Z" fill="#93A8C1"/>
<path fill-rule="evenodd" clip-rule="evenodd" d="M108.962 67.3601C108.955 67.2947 108.898 67.2474 108.827 67.2474C108.782 67.2474 108.737 67.2656 108.686 67.3007C108.571 67.3953 107.744 68.3541 107.205 68.4256C107.058 68.4256 107 68.3311 107 68.1771C107 67.6971 107.565 66.662 107.757 66.2947C107.91 66.005 108.212 65.6026 108.764 64.6195C108.764 64.6195 108.77 64.6135 108.77 64.6014C108.77 64.5432 108.686 64.365 108.622 64.3529C108.59 64.348 108.552 64.348 108.519 64.348C108.231 64.3529 107.904 64.4656 107.808 64.525C107.699 64.5904 107.43 64.9153 107.18 65.3711C106.962 65.7626 104.667 68.2062 104.212 68.2062C104.161 68.2062 104.141 68.1771 104.141 68.1177C104.141 67.6026 105.84 65.0692 105.84 64.862C105.84 64.7444 105.628 64.4777 105.404 64.4777C105.057 64.4777 104.821 64.9092 104.199 65.9153C103.903 66.3953 103 67.7214 103 68.5735C103 68.9456 103.302 69.348 103.801 69.348C104.615 69.348 105.667 68.2365 106.295 67.508C106.058 67.9044 106.02 68.3068 106.02 68.5492C106.02 69.1056 106.571 69.3129 106.956 69.3129C107.808 69.3129 108.789 68.342 108.962 68.0292C108.993 67.9698 109 67.8753 109 67.7747C109 67.6147 108.975 67.4365 108.962 67.3601" fill="#93A8C1"/>
<path fill-rule="evenodd" clip-rule="evenodd" d="M113 64.7078C113 64.4543 112.549 64.348 112.312 64.348C111.154 64.348 108.891 65.1799 108.891 66.3403C108.891 66.653 108.926 66.8836 109.3 67.0309C108.66 67.2374 108 67.6081 108 68.2625C108 69.1295 109.062 69.348 109.874 69.348C110.977 69.348 111.977 68.7817 112.632 68.3217C112.734 68.2517 112.87 68.1394 112.911 68.0452C112.953 67.945 112.953 67.8267 112.953 67.7264C112.953 67.6202 112.953 67.2604 112.775 67.2604C112.721 67.2604 112.66 67.2966 112.618 67.3195C111.991 67.7264 111.044 68.5402 110.049 68.5402C109.689 68.5402 109.144 68.4932 109.144 68.0802C109.144 67.8146 110.302 67.2604 110.581 67.1251C110.793 67.0249 111.025 67.0128 111.221 66.8716C111.311 66.8064 111.46 66.7061 111.46 66.6059C111.46 66.5118 111.283 66.2703 111.167 66.2171C111.126 66.2051 111.072 66.2051 111.032 66.2051C110.684 66.2051 110.377 66.3995 110.009 66.3995C109.982 66.3995 109.874 66.3995 109.874 66.3524C109.874 66.135 110.806 65.6038 111.032 65.4975C111.209 65.4094 111.391 65.3273 111.59 65.2681C111.576 65.3152 111.562 65.3623 111.562 65.4214C111.562 65.5917 111.59 65.6871 111.807 65.6871C112.414 65.6871 113 65.2331 113 64.7078" fill="#93A8C1"/>
<path fill-rule="evenodd" clip-rule="evenodd" d="M126.5 59.502C126.494 59.4179 126.443 59.3391 126.387 59.255C126.286 59.1041 126.109 59 125.845 59C125.083 59 124.528 59.3458 123.936 59.8545C123.123 59.984 122.028 60.0948 120.567 60.0948C119.018 60.0948 118.621 59.9065 118.621 59.8024C118.621 59.6916 118.785 59.4887 119.043 59.4887C119.106 59.4887 119.15 59.4633 119.15 59.4299C119.15 59.3845 119.043 59.3191 118.709 59.3191C118.055 59.3191 117.638 59.6916 117.638 60.0828C117.638 60.6956 118.168 61.1575 119.962 61.1575C121.417 61.1575 122.299 61.0401 122.853 60.9359C122.103 61.8425 121.24 63.1789 120.801 63.8705C119.484 63.8825 118.376 64.0067 118.256 64.0334C118.073 64.0788 117.865 64.3258 117.808 64.4433C117.752 64.5674 117.677 64.5674 117.526 64.9266C117.513 64.9586 117.5 65.004 117.5 65.0441C117.5 65.1602 117.563 65.271 117.677 65.271C117.777 65.271 117.909 65.2069 117.972 65.1936C118.243 65.1669 119.099 65.1015 120 65.0561C119.226 66.2109 118.016 68.036 117.884 68.4272C117.852 68.5247 117.828 68.6035 117.828 68.6609C117.828 68.8438 117.991 68.9025 118.337 68.968C118.439 68.988 118.52 69 118.59 69C118.835 69 118.917 68.8772 119.018 68.6876C119.093 68.5447 120.479 66.3151 121.291 65.004C121.436 65.004 121.574 64.9973 121.701 64.9973C122.015 64.9973 122.273 65.0107 122.437 65.0174C122.5 65.0307 122.475 65.0441 122.62 65.0441C122.809 65.0441 122.822 64.8999 122.953 64.7503C123.067 64.6462 123.313 64.4045 123.313 64.3004C123.313 64.1375 123.199 64 122.916 63.9613C122.62 63.9226 122.311 63.8959 121.985 63.8825C122.979 62.3378 123.754 61.2817 124.257 60.6235C125.699 60.5194 126.5 59.8144 126.5 59.502ZM125.095 59.461C125.095 59.471 125.028 59.491 124.905 59.539C124.964 59.51 125.027 59.481 125.095 59.461V59.461Z" fill="#93A8C1"/>
<path fill-rule="evenodd" clip-rule="evenodd" d="M127.962 67.3601C127.955 67.2947 127.898 67.2474 127.828 67.2474C127.782 67.2474 127.737 67.2656 127.686 67.3007C127.571 67.3953 126.744 68.3541 126.205 68.4256C126.058 68.4256 126 68.3311 126 68.1771C126 67.6971 126.565 66.662 126.757 66.2947C126.91 66.005 127.212 65.6026 127.764 64.6195C127.764 64.6195 127.77 64.6135 127.77 64.6014C127.77 64.5432 127.686 64.365 127.622 64.3529C127.59 64.348 127.552 64.348 127.519 64.348C127.231 64.3529 126.904 64.4656 126.808 64.525C126.699 64.5904 126.43 64.9153 126.18 65.3711C125.962 65.7626 123.667 68.2062 123.212 68.2062C123.161 68.2062 123.141 68.1771 123.141 68.1177C123.141 67.6026 124.84 65.0692 124.84 64.862C124.84 64.7444 124.628 64.4777 124.404 64.4777C124.057 64.4777 123.821 64.9092 123.199 65.9153C122.905 66.3953 122 67.7214 122 68.5735C122 68.9456 122.302 69.348 122.801 69.348C123.616 69.348 124.667 68.2365 125.295 67.508C125.058 67.9044 125.02 68.3068 125.02 68.5492C125.02 69.1056 125.571 69.3129 125.956 69.3129C126.808 69.3129 127.789 68.342 127.962 68.0292C127.993 67.9698 128 67.8753 128 67.7747C128 67.6147 127.975 67.4365 127.962 67.3601" fill="#93A8C1"/>
<path fill-rule="evenodd" clip-rule="evenodd" d="M133 64.9108C133 64.5736 132.742 64.3606 132.408 64.3606C131.451 64.3606 130.469 65.352 129.877 66.0001C130.06 65.713 130.689 64.8745 130.689 64.5862C130.689 64.4821 130.663 64.348 130.538 64.348C130.204 64.348 129.796 64.4333 129.582 64.6965C129.361 64.966 129.21 65.2718 129.027 65.5651C128.473 66.4651 127.919 67.3651 127.378 68.2826C127.239 68.5157 127 68.8216 127 69.0359C127 69.0723 127 69.1099 127.044 69.1337C127.107 69.1951 127.516 69.348 127.623 69.348C127.767 69.348 127.925 69.1951 128.007 69.0848C128.422 68.5408 128.863 68.0081 129.335 67.5055C129.65 67.1695 131.357 65.4247 131.683 65.4009L131.696 65.4122C131.476 65.6641 131.231 66.0126 131.231 66.3673C131.231 66.6067 131.375 66.8386 131.646 66.8386C131.81 66.8386 131.917 66.7534 132.005 66.6431C132.251 66.3247 133 65.2593 133 64.9108" fill="#93A8C1"/>
<path fill-rule="evenodd" clip-rule="evenodd" d="M138 67.8191C138 67.7131 138.011 67.289 137.847 67.289C137.676 67.289 136.726 68.495 136.168 68.495C135.998 68.495 135.816 68.4251 135.816 68.236C135.816 67.83 136.473 66.854 136.667 66.554C136.896 66.201 137.607 65.248 137.607 64.889C137.607 64.5649 137.354 64.3601 137.055 64.3601C136.151 64.3601 135.247 65.3131 134.683 65.936C134.854 65.6601 135.441 64.854 135.441 64.5769C135.441 64.4769 135.428 64.348 135.3 64.348C134.989 64.348 134.606 64.43 134.407 64.683C134.202 64.942 134.06 65.236 133.891 65.5179C133.374 66.383 132.857 67.248 132.352 68.13C132.224 68.348 132 68.6601 132 68.854C132 68.889 132 68.9251 132.042 68.948C132.112 69.0071 132.482 69.154 132.582 69.154C132.722 69.154 132.869 69.0071 132.952 68.901C133.339 68.383 133.738 67.8721 134.178 67.383C134.472 67.0601 136.062 65.383 136.367 65.3601L136.379 65.3709C136.361 65.489 136.127 65.836 136.068 65.9239C135.575 66.654 134.936 67.648 134.936 68.395C134.936 68.9721 135.453 69.336 135.921 69.348C136.62 69.348 137.295 68.7312 137.723 68.336C137.929 68.2131 138 68.0191 138 67.8191" fill="#93A8C1"/>
<path fill-rule="evenodd" clip-rule="evenodd" d="M142.5 63.2487C142.5 63.0868 142.292 63 141.966 63C141.225 63 140.5 63.3927 140.5 63.7424C140.5 63.9123 140.682 64 141.034 64C141.722 64 142.5 63.5716 142.5 63.2487ZM140.5 67.4544C140.5 67.3496 140.515 66.9305 140.307 66.9305C140.079 66.9305 139.11 68.1057 138.215 68.1057C138.031 68.1057 137.838 68.07 137.838 67.9081C137.838 67.6282 138.215 67.2103 138.392 66.9769C138.607 66.6864 140.152 64.587 140.152 64.4656C140.152 64.2858 139.849 64 139.605 64C138.969 64 137.823 64.9883 137.823 65.0812C137.823 65.2158 138.127 65.3313 138.127 65.4658C138.127 65.5587 136.5 67.4187 136.5 68.001C136.5 68.5118 137.181 69 137.846 69C138.651 69 139.938 68.5356 140.456 67.7045C140.5 67.6282 140.5 67.5354 140.5 67.4544V67.4544Z" fill="#93A8C1"/>
<path fill-rule="evenodd" clip-rule="evenodd" d="M140 68.1533C140 68.9317 140.357 69.2146 141.047 69.3295C141.108 69.3418 141.169 69.348 141.237 69.348C142.016 69.348 142.868 68.6425 143.321 68.2917C143.53 68.1298 143.625 67.9902 143.625 67.7616C143.625 67.6529 143.639 67.218 143.45 67.218C143.281 67.218 142.103 68.4251 141.453 68.4251C141.237 68.4251 141.122 68.3645 141.122 68.1298C141.122 68.0631 141.136 67.984 141.15 67.8938C141.244 67.2909 143.239 64.2503 143.727 63.5806C144.349 63.5497 144.836 63.4904 145.458 63.4361C145.662 63.4175 146 63.3211 146 63.0802C146 62.9888 145.952 62.953 145.885 62.9048C145.735 62.8084 145.688 62.6453 145.526 62.5848C145.472 62.5675 145.316 62.5613 145.154 62.5613C144.991 62.5613 144.572 62.591 144.484 62.5971C144.586 62.4464 145.167 61.668 145.167 61.5717C145.167 61.5049 145.093 61.4086 145.012 61.4086C144.904 61.4086 144.904 61.348 144.735 61.348C144.626 61.348 144.525 61.3851 144.417 61.3851C144.275 61.3851 144.261 61.4086 144.18 61.5049C143.835 61.8435 143.544 62.2475 143.253 62.6218C142.617 62.6453 143.281 62.6218 142.645 62.6453C142.354 62.6577 142.063 62.6639 141.772 62.6811C141.549 62.6997 140.993 62.9653 140.927 63.1519C140.878 63.273 140.709 63.357 140.709 63.4472C140.709 63.6832 141.082 63.7437 141.272 63.7437H141.333C141.481 63.7437 142.495 63.6288 142.502 63.635C141.894 64.4739 140.012 67.2056 140 68.1533" fill="#93A8C1"/>
<path fill-rule="evenodd" clip-rule="evenodd" d="M148.961 67.3601C148.955 67.2947 148.898 67.2474 148.827 67.2474C148.782 67.2474 148.737 67.2656 148.685 67.3007C148.571 67.3953 147.744 68.3541 147.206 68.4256C147.057 68.4256 147 68.3311 147 68.1771C147 67.6971 147.564 66.662 147.756 66.2947C147.911 66.005 148.211 65.6026 148.762 64.6195C148.762 64.6195 148.769 64.6135 148.769 64.6014C148.769 64.5432 148.685 64.365 148.622 64.3529C148.589 64.348 148.551 64.348 148.52 64.348C148.231 64.3529 147.904 64.4656 147.808 64.525C147.699 64.5904 147.429 64.9153 147.179 65.3711C146.961 65.7626 144.667 68.2062 144.212 68.2062C144.16 68.2062 144.142 68.1771 144.142 68.1177C144.142 67.6026 145.841 65.0692 145.841 64.862C145.841 64.7444 145.628 64.4777 145.403 64.4777C145.058 64.4777 144.821 64.9092 144.2 65.9153C143.904 66.3953 143 67.7214 143 68.5735C143 68.9456 143.302 69.348 143.802 69.348C144.616 69.348 145.667 68.2365 146.295 67.508C146.058 67.9044 146.019 68.3068 146.019 68.5492C146.019 69.1056 146.57 69.3129 146.955 69.3129C147.808 69.3129 148.789 68.342 148.961 68.0292C148.993 67.9698 149 67.8753 149 67.7747C149 67.6147 148.974 67.4365 148.961 67.3601" fill="#93A8C1"/>
<path fill-rule="evenodd" clip-rule="evenodd" d="M154 64.9108C154 64.5736 153.699 64.3606 153.309 64.3606C152.193 64.3606 151.047 65.352 150.356 66.0001C150.57 65.713 151.304 64.8745 151.304 64.5862C151.304 64.4821 151.276 64.348 151.128 64.348C150.738 64.348 150.262 64.4333 150.012 64.6965C149.755 64.966 149.579 65.2718 149.365 65.5651C148.72 66.4651 148.073 67.3651 147.441 68.2826C147.28 68.5157 147 68.8216 147 69.0359C147 69.0723 147 69.1099 147.051 69.1337C147.125 69.1951 147.602 69.348 147.727 69.348C147.897 69.348 148.08 69.1951 148.175 69.0848C148.661 68.5408 149.174 68.0081 149.726 67.5055C150.093 67.1695 152.083 65.4247 152.466 65.4009L152.481 65.4122C152.223 65.6641 151.936 66.0126 151.936 66.3673C151.936 66.6067 152.106 66.8386 152.422 66.8386C152.611 66.8386 152.736 66.7534 152.84 66.6431C153.126 66.3247 154 65.2593 154 64.9108" fill="#93A8C1"/>
<path fill-rule="evenodd" clip-rule="evenodd" d="M157 64.7078C157 64.4543 156.641 64.348 156.45 64.348C155.523 64.348 153.714 65.1799 153.714 66.3403C153.714 66.653 153.741 66.8836 154.041 67.0309C153.529 67.2374 153 67.6081 153 68.2625C153 69.1295 153.85 69.348 154.499 69.348C155.382 69.348 156.182 68.7817 156.705 68.3217C156.787 68.2517 156.896 68.1394 156.929 68.0452C156.962 67.945 156.962 67.8267 156.962 67.7264C156.962 67.6202 156.962 67.2604 156.82 67.2604C156.777 67.2604 156.728 67.2966 156.694 67.3195C156.193 67.7264 155.436 68.5402 154.641 68.5402C154.352 68.5402 153.915 68.4932 153.915 68.0802C153.915 67.8146 154.842 67.2604 155.066 67.1251C155.234 67.0249 155.42 67.0128 155.577 66.8716C155.648 66.8064 155.768 66.7061 155.768 66.6059C155.768 66.5118 155.626 66.2703 155.533 66.2171C155.501 66.2051 155.458 66.2051 155.425 66.2051C155.147 66.2051 154.902 66.3995 154.607 66.3995C154.586 66.3995 154.499 66.3995 154.499 66.3524C154.499 66.135 155.246 65.6038 155.425 65.4975C155.567 65.4094 155.714 65.3273 155.872 65.2681C155.86 65.3152 155.85 65.3623 155.85 65.4214C155.85 65.5917 155.872 65.6871 156.046 65.6871C156.531 65.6871 157 65.2331 157 64.7078" fill="#93A8C1"/>
<path fill-rule="evenodd" clip-rule="evenodd" d="M171 63.2041C171 61.5601 169.382 60.348 166.456 60.348C163.552 60.348 161.52 61.6604 161.52 62.6642C161.52 63.0601 161.88 63.1784 162.04 63.1784H162.066C162.107 63.1784 162.139 63.1976 162.206 63.1976C162.313 63.1912 162.5 63.1475 162.939 62.8969C163.066 62.821 163.045 62.7645 163.239 62.6642C163.318 62.6205 163.359 62.5897 163.359 62.5704C163.359 62.5575 163.339 62.5447 163.299 62.5447C163.246 62.5447 163.139 62.5948 163.013 62.5948C162.966 62.5948 162.932 62.5768 162.932 62.5447C162.932 62.4881 163.006 62.4007 163.186 62.2683C163.586 61.974 164.898 61.3146 166.443 61.3146C168.536 61.3146 169.694 62.3197 169.694 63.4997C169.694 65.2503 165.997 68.294 162.692 68.294C162.412 68.294 162.313 68.2683 162.313 68.2131C162.313 68.1179 165.877 62.9406 166.609 61.9804C166.717 61.8416 166.763 61.7606 166.763 61.6912C166.763 61.5473 166.637 61.51 166.269 61.51C165.724 61.5473 165.557 61.5974 165.518 61.6475C164.751 62.6269 161.36 67.1398 161.053 68.1809C161.034 68.2568 161 68.4264 161 68.5884C161 68.7465 161.034 68.8969 161.127 68.9534C161.36 69.1038 161.207 69.348 162.56 69.348C166.23 69.348 171 66.4547 171 63.2041" fill="#93A8C1"/>
<path fill-rule="evenodd" clip-rule="evenodd" d="M175 64.7078C175 64.4543 174.549 64.348 174.311 64.348C173.153 64.348 170.891 65.1799 170.891 66.3403C170.891 66.653 170.926 66.8836 171.3 67.0309C170.66 67.2374 170 67.6081 170 68.2625C170 69.1295 171.062 69.348 171.872 69.348C172.976 69.348 173.977 68.7817 174.632 68.3217C174.734 68.2517 174.87 68.1394 174.911 68.0452C174.951 67.945 174.951 67.8267 174.951 67.7264C174.951 67.6202 174.951 67.2604 174.775 67.2604C174.72 67.2604 174.66 67.2966 174.618 67.3195C173.991 67.7264 173.044 68.5402 172.049 68.5402C171.689 68.5402 171.144 68.4932 171.144 68.0802C171.144 67.8146 172.302 67.2604 172.581 67.1251C172.793 67.0249 173.025 67.0128 173.221 66.8716C173.311 66.8064 173.46 66.7061 173.46 66.6059C173.46 66.5118 173.283 66.2703 173.167 66.2171C173.126 66.2051 173.072 66.2051 173.032 66.2051C172.683 66.2051 172.377 66.3995 172.009 66.3995C171.982 66.3995 171.872 66.3995 171.872 66.3524C171.872 66.135 172.806 65.6038 173.032 65.4975C173.207 65.4094 173.391 65.3273 173.59 65.2681C173.576 65.3152 173.562 65.3623 173.562 65.4214C173.562 65.5917 173.59 65.6871 173.807 65.6871C174.414 65.6871 175 65.2331 175 64.7078" fill="#93A8C1"/>
<path fill-rule="evenodd" clip-rule="evenodd" d="M179 64.8307C179 64.7295 179.012 64.348 178.128 64.348C177.213 64.348 174.482 65.2018 174.482 66.5533C174.482 67.0531 174.927 67.2209 175.329 67.3335C176.118 67.5519 176.942 67.6369 176.942 67.8438C176.942 68.0966 176.118 68.4505 175.108 68.4505C174.999 68.4505 174.782 68.3161 174.782 68.1081C174.782 68.0793 174.789 68.046 174.789 68.0184C174.789 67.9116 174.644 67.9001 174.494 67.9001C174.246 67.9001 174 68.2759 174 68.6804C174 68.9665 174.271 69.348 175.143 69.348C176.143 69.348 178.019 68.7137 178.019 67.7036C178.019 67.4967 177.833 67.1543 177.46 66.9911C176.425 66.5429 175.414 66.6096 175.414 66.397C175.414 66.2108 176.575 65.3248 177.706 65.2685C177.652 65.4259 177.562 65.4432 177.562 65.5386C177.562 65.5834 177.581 65.6282 177.622 65.6443C177.706 65.6833 177.694 65.7741 177.892 65.7741C178.248 65.7741 178.699 65.5432 178.856 65.3478C178.927 65.257 179 65.0502 179 64.8697V64.8307" fill="#93A8C1"/>
<path fill-rule="evenodd" clip-rule="evenodd" d="M182.5 63.2487C182.5 63.0868 182.396 63 182.233 63C181.861 63 181.5 63.3927 181.5 63.7424C181.5 63.9123 181.59 64 181.767 64C182.111 64 182.5 63.5716 182.5 63.2487ZM182.5 67.4544C182.5 67.3496 182.511 66.9305 182.356 66.9305C182.183 66.9305 181.457 68.1057 180.786 68.1057C180.648 68.1057 180.504 68.07 180.504 67.9081C180.504 67.6282 180.786 67.2103 180.919 66.9769C181.081 66.6864 182.239 64.587 182.239 64.4656C182.239 64.2858 182.012 64 181.829 64C181.352 64 180.492 64.9883 180.492 65.0812C180.492 65.2158 180.719 65.3313 180.719 65.4658C180.719 65.5587 179.5 67.4187 179.5 68.001C179.5 68.5118 180.01 69 180.509 69C181.113 69 182.079 68.5356 182.467 67.7045C182.5 67.6282 182.5 67.5354 182.5 67.4544V67.4544Z" fill="#93A8C1"/>
<path fill-rule="evenodd" clip-rule="evenodd" d="M188.493 64.3217C188.437 64.1951 188.437 64.0001 188.25 64.0001C187.883 64.0001 187.514 63.9872 187.194 64.3088C187.125 64.1822 186.917 64.0621 186.584 64.0621C185.036 64.0621 181.598 66.1186 181.598 68.4025C181.598 69.0704 182.112 69.228 182.661 69.228C183.09 69.228 184.111 68.6738 185.166 67.6701C183.896 69.5251 183.896 69.4876 183.771 69.6568C183.569 69.8842 181.5 71.1024 181.5 72.3257C181.5 72.7546 181.757 73 182.244 73C182.494 73 182.73 72.9186 182.848 72.7287C183.111 72.3192 183.564 71.7392 184.34 70.8879C185.778 69.3171 188.375 68.1441 188.452 67.9801C188.486 67.9168 188.493 67.816 188.493 67.7088C188.493 67.3872 188.48 67.1663 188.312 67.1663C188.271 67.1663 188.208 67.1792 188.153 67.2037C186.826 67.7967 185.674 68.7306 185.195 69.1156C186.445 67.1159 187.529 65.6019 188.334 64.5543C188.355 64.5232 188.5 64.4341 188.5 64.3527C188.5 64.3398 188.5 64.3334 188.493 64.3217ZM186.5 65C184.276 67.9368 182.724 69 182.561 69C182.521 69 182.5 68.9574 182.5 68.8779C182.5 68.2824 183.713 65.6471 186.5 65V65Z" fill="#93A8C1"/>
<path fill-rule="evenodd" clip-rule="evenodd" d="M193 67.8191C193 67.7131 193.014 67.289 192.822 67.289C192.624 67.289 191.514 68.495 190.863 68.495C190.664 68.495 190.452 68.4251 190.452 68.236C190.452 67.83 191.22 66.854 191.446 66.554C191.712 66.201 192.541 65.248 192.541 64.889C192.541 64.5649 192.246 64.3601 191.897 64.3601C190.842 64.3601 189.787 65.3131 189.131 65.936C189.329 65.6601 190.013 64.854 190.013 64.5769C190.013 64.4769 190.001 64.348 189.849 64.348C189.486 64.348 189.041 64.43 188.808 64.683C188.568 64.942 188.404 65.236 188.205 65.5179C187.603 66.383 187 67.248 186.411 68.13C186.261 68.348 186 68.6601 186 68.854C186 68.889 186 68.9251 186.048 68.948C186.13 69.0071 186.563 69.154 186.679 69.154C186.843 69.154 187.014 69.0071 187.11 68.901C187.561 68.383 188.027 67.8721 188.542 67.383C188.884 67.0601 190.74 65.383 191.096 65.3601L191.11 65.3709C191.089 65.489 190.816 65.836 190.747 65.9239C190.172 66.654 189.426 67.648 189.426 68.395C189.426 68.9721 190.027 69.336 190.576 69.348C191.391 69.348 192.178 68.7312 192.679 68.336C192.918 68.2131 193 68.0191 193 67.8191" fill="#93A8C1"/>
<path fill-rule="evenodd" clip-rule="evenodd" d="M198 64.8307C198 64.7295 198.015 64.348 196.953 64.348C195.856 64.348 192.577 65.2018 192.577 66.5533C192.577 67.0531 193.111 67.2209 193.596 67.3335C194.541 67.5519 195.53 67.6369 195.53 67.8438C195.53 68.0966 194.541 68.4505 193.328 68.4505C193.198 68.4505 192.938 68.3161 192.938 68.1081C192.938 68.0793 192.945 68.046 192.945 68.0184C192.945 67.9116 192.772 67.9001 192.592 67.9001C192.296 67.9001 192 68.2759 192 68.6804C192 68.9665 192.324 69.348 193.371 69.348C194.57 69.348 196.823 68.7137 196.823 67.7036C196.823 67.4967 196.599 67.1543 196.151 66.9911C194.909 66.5429 193.696 66.6096 193.696 66.397C193.696 66.2108 195.089 65.3248 196.447 65.2685C196.382 65.4259 196.274 65.4432 196.274 65.5386C196.274 65.5834 196.296 65.6282 196.347 65.6443C196.447 65.6833 196.434 65.7741 196.672 65.7741C197.098 65.7741 197.639 65.5432 197.827 65.3478C197.914 65.257 198 65.0502 198 64.8697V64.8307" fill="#93A8C1"/>
<path fill-rule="evenodd" clip-rule="evenodd" d="M70 69.348H73V0.348022H70V69.348Z" fill="#93A8C1"/>
<path fill-rule="evenodd" clip-rule="evenodd" d="M1 35.348C1 30.9295 4.58144 27.348 9 27.348C13.4186 27.348 17 30.9295 17 35.348C17 39.7666 13.4186 43.348 9 43.348C4.58144 43.348 1 39.7666 1 35.348" fill="#93A8C1"/>
<path fill-rule="evenodd" clip-rule="evenodd" d="M24 35.348C24 30.9295 27.5814 27.348 32 27.348C36.4186 27.348 40 30.9295 40 35.348C40 39.7666 36.4186 43.348 32 43.348C27.5814 43.348 24 39.7666 24 35.348" fill="#93A8C1"/>
<path d="M1 11.5C1 16.4378 4.78101 20.5 9.5 20.5V19.5C5.38955 19.5 2 15.9435 2 11.5H1ZM9.5 20.5C14.219 20.5 18 16.4378 18 11.5H17C17 15.9435 13.6105 19.5 9.5 19.5V20.5ZM18 11.5C18 6.56221 14.219 2.5 9.5 2.5V3.5C13.6105 3.5 17 7.05651 17 11.5H18ZM9.5 2.5C4.78101 2.5 1 6.56221 1 11.5H2C2 7.05651 5.38955 3.5 9.5 3.5V2.5ZM23 11.5C23 16.4378 26.781 20.5 31.5 20.5V19.5C27.3895 19.5 24 15.9435 24 11.5H23ZM31.5 20.5C36.219 20.5 40 16.4378 40 11.5H39C39 15.9435 35.6105 19.5 31.5 19.5V20.5ZM40 11.5C40 6.56221 36.219 2.5 31.5 2.5V3.5C35.6105 3.5 39 7.05651 39 11.5H40ZM31.5 2.5C26.781 2.5 23 6.56221 23 11.5H24C24 7.05651 27.3895 3.5 31.5 3.5V2.5Z" fill="#93A8C1"/>
<path fill-rule="evenodd" clip-rule="evenodd" d="M24 58.348C24 53.9295 27.5814 50.348 32 50.348C36.4186 50.348 40 53.9295 40 58.348C40 62.7666 36.4186 66.348 32 66.348C27.5814 66.348 24 62.7666 24 58.348" fill="#93A8C1"/>
<path fill-rule="evenodd" clip-rule="evenodd" d="M1 58.348C1 62.7627 4.58528 66.348 9 66.348C13.4147 66.348 17 62.7627 17 58.348C17 53.9333 13.4147 50.348 9 50.348C4.58528 50.348 1 53.9333 1 58.348Z" stroke="#93A8C1"/>
<path fill-rule="evenodd" clip-rule="evenodd" d="M47 11.848C47 7.1533 50.8053 3.34802 55.5 3.34802C60.1947 3.34802 64 7.1533 64 11.848C64 16.5427 60.1947 20.348 55.5 20.348C50.8053 20.348 47 16.5427 47 11.848" fill="#93A8C1"/>
<path fill-rule="evenodd" clip-rule="evenodd" d="M47 58.348C47 53.9295 50.8053 50.348 55.5 50.348C60.1947 50.348 64 53.9295 64 58.348C64 62.7666 60.1947 66.348 55.5 66.348C50.8053 66.348 47 62.7666 47 58.348" fill="#93A8C1"/>
<path fill-rule="evenodd" clip-rule="evenodd" d="M47 35.348C47 39.7627 50.8094 43.348 55.5 43.348C60.1906 43.348 64 39.7627 64 35.348C64 30.9333 60.1906 27.348 55.5 27.348C50.8094 27.348 47 30.9333 47 35.348Z" stroke="#93A8C1"/>
</svg>
