<svg height="511pt" viewBox="-27 0 511 511.99977" width="511pt" xmlns="http://www.w3.org/2000/svg"><path d="m453.019531 379.664062-74.707031-74.703124c-5.859375-5.855469-15.355469-5.855469-21.214844 0-5.855468 5.859374-5.855468 15.355468 0 21.210937l57.546875 57.542969-57.023437 19.007812c-4.476563 1.492188-7.992188 5.007813-9.484375 9.488282l-19.007813 57.019531-89.5625-89.566407c-2.929687-2.925781-6.769531-4.390624-10.609375-4.390624-2.398437 0-4.796875.570312-6.972656 1.714843-1.308594.6875-2.535156 1.578125-3.632813 2.675781l-89.566406 89.566407-19.007812-57.019531c-1.492188-4.480469-5.007813-7.996094-9.488282-9.488282l-57.019531-19.007812 57.542969-57.542969c5.859375-5.855469 5.859375-15.351563 0-21.210937-5.855469-5.859376-15.355469-5.859376-21.210938 0l-74.707031 74.703124c-3.675781 3.675782-5.1875 8.992188-3.992187 14.054688 1.195312 5.058594 4.921875 9.140625 9.855468 10.78125l72.929688 24.3125 24.308594 72.929688c1.644531 4.933593 5.726562 8.664062 10.785156 9.855468 1.140625.269532 2.296875.402344 3.445312.402344 3.933594 0 7.761719-1.546875 10.605469-4.394531l96.125-96.121094 96.121094 96.121094c2.84375 2.847656 6.671875 4.394531 10.605469 4.394531 1.148437 0 2.304687-.132812 3.445312-.402344 5.0625-1.191406 9.140625-4.921875 10.785156-9.855468l24.3125-72.929688 72.929688-24.3125c4.929688-1.644531 8.660156-5.722656 9.855469-10.78125 1.191406-5.058594-.316407-10.378906-3.992188-14.054688zm0 0" fill="#00479b"/><path d="m228.957031 405.273438c-4.671875 0-9.074219-2.175782-11.914062-5.886719l-23.746094-31.050781-34.324219 18.707031c-4.101562 2.234375-9.015625 2.429687-13.28125.53125-4.265625-1.898438-7.40625-5.679688-8.488281-10.222657l-9.0625-38.023437-38.964844 3.128906c-4.652343.375-9.21875-1.441406-12.347656-4.914062-3.125-3.472657-4.453125-8.203125-3.597656-12.796875l7.183593-38.421875-36.867187-12.988281c-4.40625-1.554688-7.835937-5.070313-9.28125-9.515626-1.441406-4.441406-.734375-9.304687 1.917969-13.148437l22.191406-32.179687-28.398438-26.859376c-3.394531-3.210937-5.097656-7.820312-4.609374-12.464843.488281-4.648438 3.113281-8.800781 7.101562-11.234375l33.359375-20.371094-15.011719-36.089844c-1.796875-4.3125-1.480468-9.21875.855469-13.261718 2.335937-4.046876 6.425781-6.773438 11.058594-7.375l38.761719-5.042969.960937-39.074219c.113281-4.671875 2.398437-9.023438 6.179687-11.765625 3.777344-2.746094 8.621094-3.578125 13.097657-2.242187l37.460937 11.160156 16.773438-35.308594c2.003906-4.21875 5.859375-7.261719 10.429687-8.234375 4.570313-.972656 9.332031.242187 12.878907 3.28125l29.683593 25.433594 29.683594-25.433594c3.546875-3.039063 8.308594-4.253906 12.875-3.28125 4.570313.972656 8.425781 4.019531 10.429687 8.238281l16.773438 35.304688 37.460938-11.160156c4.476562-1.332032 9.320312-.503907 13.101562 2.242187 3.777344 2.746094 6.0625 7.09375 6.175781 11.765625l.960938 39.074219 38.765625 5.042969c4.632812.601562 8.71875 3.328124 11.054687 7.375 2.335938 4.042968 2.652344 8.949218.859375 13.261718l-15.015625 36.089844 33.363281 20.371094c3.984376 2.433594 6.609376 6.589844 7.097657 11.234375.492187 4.644531-1.214844 9.253906-4.609375 12.464843l-28.398438 26.859376 22.195313 32.179687c2.648437 3.847656 3.359375 8.707031 1.917969 13.152344-1.445313 4.441406-4.875 7.957031-9.28125 9.511719l-36.867188 12.988281 7.183594 38.425781c.859375 4.589844-.46875 9.320312-3.597656 12.792969-3.125 3.472656-7.695313 5.285156-12.347657 4.914062l-38.964843-3.128906-9.0625 38.023437c-1.082032 4.542969-4.222657 8.324219-8.488282 10.222657-4.269531 1.902343-9.179687 1.707031-13.28125-.53125l-34.324218-18.707031-23.742188 31.050781c-2.839844 3.710937-7.246094 5.886719-11.917969 5.886719zm-31.5625-71.257813c4.542969 0 8.996094 2.0625 11.921875 5.886719l19.640625 25.679687 19.636719-25.679687c4.492188-5.875 12.597656-7.597656 19.09375-4.058594l28.386719 15.472656 7.496093-31.449218c1.714844-7.195313 8.414063-12.058594 15.792969-11.472657l32.226563 2.589844-5.945313-31.777344c-1.359375-7.273437 2.785157-14.445312 9.761719-16.90625l30.492188-10.742187-18.355469-26.613282c-4.199219-6.089843-3.332031-14.332031 2.039062-19.414062l23.488281-22.214844-27.589843-16.847656c-6.316407-3.855469-8.875-11.734375-6.035157-18.566406l12.421876-29.847656-32.058594-4.167969c-7.335938-.953125-12.882813-7.109375-13.0625-14.503907l-.796875-32.320312-30.980469 9.230469c-7.085938 2.109375-14.65625-1.257813-17.832031-7.9375l-13.871094-29.203125-24.550781 21.035156c-5.613282 4.8125-13.898438 4.8125-19.515625 0l-24.554688-21.035156-13.867187 29.203125c-3.175782 6.679687-10.746094 10.046875-17.832032 7.9375l-30.984374-9.230469-.792969 32.316406c-.183594 7.394532-5.726563 13.554688-13.0625 14.507813l-32.058594 4.167969 12.417969 29.847656c2.839844 6.832031.28125 14.710937-6.03125 18.5625l-27.59375 16.851562 23.488281 22.214844c5.375 5.082031 6.238281 13.324219 2.039063 19.414062l-18.351563 26.613282 30.488281 10.742187c6.976563 2.457031 11.121094 9.632813 9.761719 16.902344l-5.941406 31.777344 32.222656-2.585938c7.378906-.585937 14.078125 4.277344 15.792969 11.472657l7.496094 31.449218 28.386718-15.472656c2.269532-1.234375 4.734375-1.828125 7.171875-1.828125zm0 0" fill="#ffe477"/><path d="m179.308594 289.21875c-3.109375 0-6.203125-.964844-8.816406-2.863281-4.621094-3.355469-6.933594-9.042969-5.96875-14.671875l8.148437-47.511719-34.519531-33.648437c-4.085938-3.984376-5.558594-9.945313-3.796875-15.375 1.765625-5.433594 6.460937-9.386719 12.109375-10.210938l47.707031-6.933594 21.332031-43.226562c2.527344-5.121094 7.742188-8.363282 13.453125-8.363282 5.707031 0 10.921875 3.242188 13.449219 8.363282l21.335938 43.226562 47.703124 6.933594c5.652344.824219 10.34375 4.777344 12.109376 10.210938 1.765624 5.429687.292968 11.390624-3.796876 15.375l-34.519531 33.648437 8.152344 47.511719c.964844 5.628906-1.347656 11.3125-5.96875 14.671875-4.621094 3.355469-10.742187 3.796875-15.796875 1.140625l-42.667969-22.429688-42.667969 22.429688c-2.195312 1.152344-4.59375 1.722656-6.980468 1.722656zm49.648437-56.101562c2.394531 0 4.792969.574218 6.976563 1.722656l22.75 11.960937-4.34375-25.328125c-.835938-4.867187.777344-9.832031 4.3125-13.277344l18.402344-17.9375-25.429688-3.695312c-4.886719-.710938-9.109375-3.78125-11.296875-8.207031l-11.371094-23.042969-11.375 23.042969c-2.183593 4.425781-6.40625 7.496093-11.292969 8.207031l-25.433593 3.695312 18.402343 17.9375c3.535157 3.445313 5.148438 8.410157 4.316407 13.277344l-4.34375 25.328125 22.746093-11.960937c2.183594-1.148438 4.582032-1.722656 6.980469-1.722656zm0 0" fill="#ff3f62"/></svg>