<svg width="146" height="145" viewBox="0 0 146 145" fill="none" xmlns="http://www.w3.org/2000/svg">
<path fill-rule="evenodd" clip-rule="evenodd" d="M145.75 72.5C145.75 112.541 113.291 145 73.25 145C33.209 145 0.75 112.541 0.75 72.5C0.75 32.459 33.209 0 73.25 0C113.291 0 145.75 32.459 145.75 72.5" fill="#3F3F3F"/>
<path fill-rule="evenodd" clip-rule="evenodd" d="M50 69.884L40.892 50.26V69.884H36.136V37.456H40.133L49.241 57.08V37.456H54.048V69.884H50Z" fill="#FFFFFE"/>
<path fill-rule="evenodd" clip-rule="evenodd" d="M71.837 37.5V41.636H61.161V51.624H71.837V55.76H61.161V65.792H71.837V69.928H56.404V37.5H71.837Z" fill="#FFFFFE"/>
<path fill-rule="evenodd" clip-rule="evenodd" d="M98.481 58.18L103.744 37.5H108.652L100.404 69.928H96.558L91.347 49.204L86.084 69.928H82.239L73.991 37.5H78.899L84.161 58.18L89.424 37.5H93.269L98.481 58.18Z" fill="#FFFFFE"/>
<path fill-rule="evenodd" clip-rule="evenodd" d="M41.702 86.868L49.292 74.988H54.757L44.08 91.708V107.416H39.324V91.708L28.698 74.988H34.162L41.702 86.868Z" fill="#FFFFFE"/>
<path fill-rule="evenodd" clip-rule="evenodd" d="M54.583 84.184C54.583 81.324 55.291 79.08 56.708 77.496C57.264 76.924 58.023 76.308 59.137 75.78C60.25 75.296 61.616 74.944 63.438 74.944C67.081 74.944 69.105 76.308 70.167 77.496C71.584 79.08 72.293 81.324 72.293 84.184V98.132C72.293 100.992 71.584 103.236 70.167 104.82C69.105 106.008 67.081 107.372 63.438 107.372C59.845 107.372 57.77 106.008 56.708 104.82C55.291 103.236 54.583 100.992 54.583 98.132V84.184ZM59.339 98.132C59.339 100.728 59.997 101.96 60.857 102.576C61.717 103.192 62.679 103.236 63.438 103.236C64.095 103.236 65.158 103.192 66.018 102.576C66.878 101.96 67.536 100.728 67.536 98.132V84.184C67.536 81.676 66.878 80.356 66.018 79.74C65.158 79.124 64.095 79.124 63.438 79.124C62.679 79.124 61.717 79.124 60.857 79.74C59.997 80.356 59.339 81.676 59.339 84.184V98.132Z" fill="#FFFFFE"/>
<path fill-rule="evenodd" clip-rule="evenodd" d="M91.144 107.372H86.337V97.78C86.337 94.92 84.769 93.512 81.581 93.512H78.595V107.372H73.839V74.944H81.581C88.007 74.944 91.043 78.156 91.043 84.184C91.043 87.176 90.284 89.464 88.817 91.004C88.766 91.048 88.665 91.136 88.614 91.224C88.513 91.312 88.412 91.4 88.311 91.444C90.132 92.984 91.144 95.096 91.144 97.78V107.372ZM78.595 89.332H81.581C82.846 89.332 83.757 89.2 84.263 88.936C84.718 88.672 85.022 88.452 85.173 88.32C85.932 87.484 86.287 86.12 86.287 84.184C86.287 82.028 85.882 80.752 85.123 80.004C84.313 79.3 83.149 79.124 81.581 79.124H78.595V89.332Z" fill="#FFFFFE"/>
<path fill-rule="evenodd" clip-rule="evenodd" d="M103.468 90.124L114.449 107.372H108.984L100.483 94.084L98.51 96.768V107.372H93.753V95.624H93.703L93.753 95.536V74.944H98.51V89.112L109.085 74.944H114.803L103.468 90.124Z" fill="#FFFFFE"/>
<path fill-rule="evenodd" clip-rule="evenodd" d="M42.503 23.36H43.26V23.689C43.26 23.99 43.324 24.207 43.445 24.34C43.469 24.375 43.517 24.403 43.59 24.438C43.662 24.473 43.767 24.494 43.92 24.494C44.209 24.494 44.37 24.368 44.467 24.214C44.556 24.06 44.572 23.864 44.572 23.724C44.572 23.479 44.475 23.318 44.338 23.199C44.201 23.087 44.016 23.01 43.847 22.947L43.702 22.891C43.533 22.828 43.243 22.723 42.986 22.506C42.664 22.233 42.503 21.89 42.503 21.47C42.503 21.029 42.64 20.658 42.897 20.399C43.147 20.147 43.501 19.993 43.92 19.993C44.499 19.993 44.821 20.21 44.99 20.399C45.224 20.658 45.336 21.015 45.336 21.47V21.799H44.572V21.47C44.572 21.071 44.467 20.854 44.33 20.756C44.193 20.658 44.024 20.658 43.92 20.658C43.606 20.658 43.453 20.805 43.364 20.987C43.268 21.169 43.26 21.379 43.26 21.47C43.26 21.715 43.356 21.876 43.493 22.002C43.63 22.128 43.815 22.219 44.008 22.282L44.137 22.331C44.29 22.387 44.58 22.478 44.837 22.695C45.167 22.961 45.336 23.304 45.336 23.724C45.336 24.515 44.829 25.152 43.92 25.152C42.978 25.152 42.503 24.613 42.503 23.689V23.36Z" fill="#FFFFFE"/>
<path fill-rule="evenodd" clip-rule="evenodd" d="M47.273 21.463C47.273 21.008 47.385 20.651 47.611 20.399C47.699 20.308 47.82 20.21 47.997 20.126C48.174 20.049 48.391 19.993 48.681 19.993C49.261 19.993 49.583 20.21 49.752 20.399C49.977 20.651 50.09 21.008 50.09 21.463V23.682C50.09 24.137 49.977 24.494 49.752 24.746C49.583 24.935 49.261 25.152 48.681 25.152C48.11 25.152 47.78 24.935 47.611 24.746C47.385 24.494 47.273 24.137 47.273 23.682V21.463ZM48.029 23.682C48.029 24.095 48.134 24.291 48.271 24.389C48.408 24.487 48.561 24.494 48.681 24.494C48.786 24.494 48.955 24.487 49.092 24.389C49.229 24.291 49.333 24.095 49.333 23.682V21.463C49.333 21.064 49.229 20.854 49.092 20.756C48.955 20.658 48.786 20.658 48.681 20.658C48.561 20.658 48.408 20.658 48.271 20.756C48.134 20.854 48.029 21.064 48.029 21.463V23.682Z" fill="#FFFFFE"/>
<path fill-rule="evenodd" clip-rule="evenodd" d="M52.107 21.463C52.107 21.008 52.219 20.651 52.445 20.399C52.533 20.308 52.654 20.21 52.831 20.126C53.008 20.049 53.225 19.993 53.515 19.993C54.095 19.993 54.417 20.21 54.586 20.399C54.811 20.651 54.924 21.008 54.924 21.463V23.682C54.924 24.137 54.811 24.494 54.586 24.746C54.417 24.935 54.095 25.152 53.515 25.152C52.944 25.152 52.614 24.935 52.445 24.746C52.219 24.494 52.107 24.137 52.107 23.682V21.463ZM52.863 23.682C52.863 24.095 52.968 24.291 53.105 24.389C53.242 24.487 53.395 24.494 53.515 24.494C53.62 24.494 53.789 24.487 53.926 24.389C54.063 24.291 54.167 24.095 54.167 23.682V21.463C54.167 21.064 54.063 20.854 53.926 20.756C53.789 20.658 53.62 20.658 53.515 20.658C53.395 20.658 53.242 20.658 53.105 20.756C52.968 20.854 52.863 21.064 52.863 21.463V23.682Z" fill="#FFFFFE"/>
<path fill-rule="evenodd" clip-rule="evenodd" d="M56.941 21.463C56.941 21.008 57.053 20.651 57.279 20.399C57.367 20.308 57.488 20.21 57.665 20.126C57.842 20.049 58.06 19.993 58.349 19.993C58.929 19.993 59.251 20.21 59.42 20.399C59.645 20.651 59.758 21.008 59.758 21.463V23.682C59.758 24.137 59.645 24.494 59.42 24.746C59.251 24.935 58.929 25.152 58.349 25.152C57.778 25.152 57.448 24.935 57.279 24.746C57.053 24.494 56.941 24.137 56.941 23.682V21.463ZM57.697 23.682C57.697 24.095 57.802 24.291 57.939 24.389C58.076 24.487 58.229 24.494 58.349 24.494C58.454 24.494 58.623 24.487 58.76 24.389C58.897 24.291 59.001 24.095 59.001 23.682V21.463C59.001 21.064 58.897 20.854 58.76 20.756C58.623 20.658 58.454 20.658 58.349 20.658C58.229 20.658 58.076 20.658 57.939 20.756C57.802 20.854 57.697 21.064 57.697 21.463V23.682Z" fill="#FFFFFE"/>
<path fill-rule="evenodd" clip-rule="evenodd" d="M66.008 25.159V20H67.191C68.214 20 68.697 20.546 68.697 21.491V23.661C68.697 24.606 68.214 25.159 67.191 25.159H66.008ZM66.765 20.658V24.501H67.191C67.384 24.501 67.57 24.48 67.706 24.368C67.835 24.256 67.932 24.046 67.932 23.661V21.491C67.932 21.106 67.835 20.896 67.706 20.784C67.57 20.672 67.384 20.658 67.191 20.658H66.765Z" fill="#FFFFFE"/>
<path fill-rule="evenodd" clip-rule="evenodd" d="M73.193 20V20.658H71.494V22.247H73.193V22.905H71.494V24.501H73.193V25.159H70.737V20H73.193Z" fill="#FFFFFE"/>
<path fill-rule="evenodd" clip-rule="evenodd" d="M77.89 25.152H75.306V19.993H76.062V24.494H77.89V25.152Z" fill="#FFFFFE"/>
<path fill-rule="evenodd" clip-rule="evenodd" d="M79.987 25.159H80.743V20H79.987V25.159Z" fill="#FFFFFE"/>
<path fill-rule="evenodd" clip-rule="evenodd" d="M82.945 21.47C82.945 21.015 83.058 20.658 83.283 20.406C83.452 20.217 83.774 20 84.354 20C84.933 20 85.247 20.217 85.416 20.406C85.65 20.665 85.763 21.015 85.763 21.47V21.799H84.998V21.47C84.998 21.071 84.893 20.854 84.764 20.756C84.628 20.658 84.459 20.658 84.354 20.658C84.233 20.658 84.08 20.658 83.943 20.756C83.806 20.854 83.702 21.071 83.702 21.47V23.682C83.702 23.983 83.766 24.207 83.887 24.34C83.911 24.375 83.959 24.41 84.032 24.445C84.104 24.48 84.209 24.501 84.354 24.501C84.644 24.501 84.756 24.403 84.821 24.34C84.942 24.2 84.998 23.983 84.998 23.682V23.353H85.763V23.682C85.763 24.137 85.65 24.487 85.416 24.746C85.247 24.935 84.933 25.159 84.354 25.159C84.064 25.159 83.847 25.103 83.67 25.019C83.493 24.942 83.372 24.837 83.283 24.746C83.058 24.494 82.945 24.137 82.945 23.682V21.47Z" fill="#FFFFFE"/>
<path fill-rule="evenodd" clip-rule="evenodd" d="M87.884 25.159H88.64V20H87.884V25.159Z" fill="#FFFFFE"/>
<path fill-rule="evenodd" clip-rule="evenodd" d="M90.842 21.463C90.842 21.008 90.955 20.651 91.18 20.399C91.269 20.308 91.39 20.21 91.567 20.126C91.744 20.049 91.961 19.993 92.251 19.993C92.83 19.993 93.152 20.21 93.322 20.399C93.547 20.651 93.66 21.008 93.66 21.463V23.682C93.66 24.137 93.547 24.494 93.322 24.746C93.152 24.935 92.83 25.152 92.251 25.152C91.679 25.152 91.349 24.935 91.18 24.746C90.955 24.494 90.842 24.137 90.842 23.682V21.463ZM91.599 23.682C91.599 24.095 91.703 24.291 91.84 24.389C91.977 24.487 92.13 24.494 92.251 24.494C92.356 24.494 92.525 24.487 92.661 24.389C92.798 24.291 92.903 24.095 92.903 23.682V21.463C92.903 21.064 92.798 20.854 92.661 20.756C92.525 20.658 92.356 20.658 92.251 20.658C92.13 20.658 91.977 20.658 91.84 20.756C91.703 20.854 91.599 21.064 91.599 21.463V23.682Z" fill="#FFFFFE"/>
<path fill-rule="evenodd" clip-rule="evenodd" d="M95.676 19.993H96.433V23.78C96.433 24.137 96.521 24.319 96.642 24.403C96.763 24.494 96.9 24.494 97.004 24.494C97.109 24.494 97.246 24.494 97.367 24.403C97.487 24.319 97.576 24.137 97.576 23.78V19.993H98.333V23.78C98.333 24.207 98.228 24.536 98.011 24.767C97.85 24.956 97.544 25.152 97.004 25.152C96.465 25.152 96.159 24.956 95.998 24.767C95.781 24.536 95.676 24.207 95.676 23.78V19.993Z" fill="#FFFFFE"/>
<path fill-rule="evenodd" clip-rule="evenodd" d="M100.51 23.36H101.267V23.689C101.267 23.99 101.331 24.207 101.452 24.34C101.476 24.375 101.525 24.403 101.597 24.438C101.669 24.473 101.774 24.494 101.927 24.494C102.217 24.494 102.378 24.368 102.474 24.214C102.563 24.06 102.579 23.864 102.579 23.724C102.579 23.479 102.482 23.318 102.346 23.199C102.209 23.087 102.024 23.01 101.855 22.947L101.71 22.891C101.541 22.828 101.251 22.723 100.993 22.506C100.671 22.233 100.51 21.89 100.51 21.47C100.51 21.029 100.647 20.658 100.905 20.399C101.154 20.147 101.508 19.993 101.927 19.993C102.507 19.993 102.829 20.21 102.998 20.399C103.231 20.658 103.344 21.015 103.344 21.47V21.799H102.579V21.47C102.579 21.071 102.474 20.854 102.338 20.756C102.201 20.658 102.032 20.658 101.927 20.658C101.613 20.658 101.46 20.805 101.372 20.987C101.275 21.169 101.267 21.379 101.267 21.47C101.267 21.715 101.364 21.876 101.5 22.002C101.637 22.128 101.822 22.219 102.016 22.282L102.144 22.331C102.297 22.387 102.587 22.478 102.845 22.695C103.175 22.961 103.344 23.304 103.344 23.724C103.344 24.515 102.837 25.152 101.927 25.152C100.985 25.152 100.51 24.613 100.51 23.689V23.36Z" fill="#FFFFFE"/>
<path fill-rule="evenodd" clip-rule="evenodd" d="M45.634 120.002V120.66H43.936V122.249H45.634V122.907H43.936V125.161H43.179V120.002H45.634Z" fill="#FFFFFE"/>
<path fill-rule="evenodd" clip-rule="evenodd" d="M50.501 125.154H49.736V123.628C49.736 123.173 49.486 122.949 48.979 122.949H48.504V125.154H47.747V119.995H48.979C50.001 119.995 50.484 120.506 50.484 121.465C50.484 121.941 50.364 122.305 50.13 122.55C50.122 122.557 50.106 122.571 50.098 122.585C50.082 122.599 50.066 122.613 50.05 122.62C50.34 122.865 50.501 123.201 50.501 123.628V125.154ZM48.504 122.284H48.979C49.18 122.284 49.325 122.263 49.406 122.221C49.478 122.179 49.527 122.144 49.551 122.123C49.671 121.99 49.728 121.773 49.728 121.465C49.728 121.122 49.663 120.919 49.543 120.8C49.414 120.688 49.229 120.66 48.979 120.66H48.504V122.284Z" fill="#FFFFFE"/>
<path fill-rule="evenodd" clip-rule="evenodd" d="M55.133 120.002V120.66H53.435V122.249H55.133V122.907H53.435V124.503H55.133V125.161H52.678V120.002H55.133Z" fill="#FFFFFE"/>
<path fill-rule="evenodd" clip-rule="evenodd" d="M57.246 123.362H58.003V123.691C58.003 123.992 58.068 124.209 58.188 124.342C58.212 124.377 58.261 124.405 58.333 124.44C58.406 124.475 58.51 124.496 58.663 124.496C58.953 124.496 59.114 124.37 59.211 124.216C59.299 124.062 59.315 123.866 59.315 123.726C59.315 123.481 59.219 123.32 59.082 123.201C58.945 123.089 58.76 123.012 58.591 122.949L58.446 122.893C58.277 122.83 57.987 122.725 57.729 122.508C57.407 122.235 57.246 121.892 57.246 121.472C57.246 121.031 57.383 120.66 57.641 120.401C57.89 120.149 58.245 119.995 58.663 119.995C59.243 119.995 59.565 120.212 59.734 120.401C59.967 120.66 60.08 121.017 60.08 121.472V121.801H59.315V121.472C59.315 121.073 59.211 120.856 59.074 120.758C58.937 120.66 58.768 120.66 58.663 120.66C58.349 120.66 58.196 120.807 58.108 120.989C58.011 121.171 58.003 121.381 58.003 121.472C58.003 121.717 58.1 121.878 58.237 122.004C58.373 122.13 58.559 122.221 58.752 122.284L58.881 122.333C59.034 122.389 59.323 122.48 59.581 122.697C59.911 122.963 60.08 123.306 60.08 123.726C60.08 124.517 59.573 125.154 58.663 125.154C57.721 125.154 57.246 124.615 57.246 123.691V123.362Z" fill="#FFFFFE"/>
<path fill-rule="evenodd" clip-rule="evenodd" d="M63.916 122.249V120.002H64.681V125.161H63.916V122.914H62.773V125.161H62.016V120.002H62.773V122.249H63.916Z" fill="#FFFFFE"/>
<path fill-rule="evenodd" clip-rule="evenodd" d="M71.154 125.161V120.002H72.297C72.804 120.002 73.175 120.135 73.408 120.394C73.642 120.625 73.754 120.982 73.754 121.451C73.754 121.92 73.642 122.27 73.408 122.515C73.4 122.529 73.376 122.55 73.344 122.578C73.376 122.606 73.4 122.627 73.408 122.648C73.642 122.893 73.754 123.243 73.754 123.712C73.754 124.181 73.642 124.538 73.408 124.769C73.167 125.028 72.796 125.161 72.297 125.161H71.154ZM71.911 120.66V122.249H72.297C72.466 122.249 72.595 122.228 72.667 122.193C72.74 122.158 72.796 122.13 72.82 122.095C72.933 121.976 72.989 121.766 72.989 121.451C72.989 121.087 72.917 120.891 72.796 120.779C72.667 120.674 72.49 120.66 72.297 120.66H71.911ZM71.911 122.907V124.503H72.297C72.49 124.503 72.667 124.489 72.796 124.377C72.917 124.272 72.989 124.076 72.989 123.712C72.989 123.341 72.909 123.138 72.788 123.026C72.659 122.921 72.49 122.907 72.297 122.907H71.911Z" fill="#FFFFFE"/>
<path fill-rule="evenodd" clip-rule="evenodd" d="M75.755 119.995H76.511V123.782C76.511 124.139 76.6 124.321 76.721 124.405C76.841 124.496 76.978 124.496 77.083 124.496C77.188 124.496 77.324 124.496 77.445 124.405C77.566 124.321 77.654 124.139 77.654 123.782V119.995H78.411V123.782C78.411 124.209 78.307 124.538 78.089 124.769C77.928 124.958 77.622 125.154 77.083 125.154C76.544 125.154 76.238 124.958 76.077 124.769C75.859 124.538 75.755 124.209 75.755 123.782V119.995Z" fill="#FFFFFE"/>
<path fill-rule="evenodd" clip-rule="evenodd" d="M83.342 125.154H82.577V123.628C82.577 123.173 82.328 122.949 81.82 122.949H81.345V125.154H80.589V119.995H81.82C82.843 119.995 83.326 120.506 83.326 121.465C83.326 121.941 83.205 122.305 82.972 122.55C82.963 122.557 82.947 122.571 82.939 122.585C82.923 122.599 82.907 122.613 82.891 122.62C83.181 122.865 83.342 123.201 83.342 123.628V125.154ZM81.345 122.284H81.82C82.022 122.284 82.167 122.263 82.247 122.221C82.319 122.179 82.368 122.144 82.392 122.123C82.513 121.99 82.569 121.773 82.569 121.465C82.569 121.122 82.505 120.919 82.384 120.8C82.255 120.688 82.07 120.66 81.82 120.66H81.345V122.284Z" fill="#FFFFFE"/>
<path fill-rule="evenodd" clip-rule="evenodd" d="M85.519 121.465C85.519 120.541 85.994 120.002 86.928 120.002C87.87 120.002 88.345 120.541 88.345 121.465V121.794H87.58V121.465C87.58 121.094 87.5 120.891 87.379 120.779C87.25 120.674 87.089 120.66 86.928 120.66C86.767 120.66 86.606 120.674 86.485 120.779C86.357 120.891 86.276 121.094 86.276 121.465V123.691C86.276 124.104 86.381 124.3 86.518 124.398C86.654 124.496 86.807 124.503 86.928 124.503C87.049 124.503 87.21 124.496 87.347 124.398C87.475 124.3 87.58 124.104 87.58 123.691V123.299H86.662V122.634H88.345V123.691C88.345 124.153 88.232 124.51 87.999 124.755C87.83 124.944 87.508 125.161 86.928 125.161C86.357 125.161 86.035 124.944 85.865 124.755C85.632 124.51 85.519 124.153 85.519 123.691V121.465Z" fill="#FFFFFE"/>
<path fill-rule="evenodd" clip-rule="evenodd" d="M92.873 120.002V120.66H91.174V122.249H92.873V122.907H91.174V124.503H92.873V125.161H90.418V120.002H92.873Z" fill="#FFFFFE"/>
<path fill-rule="evenodd" clip-rule="evenodd" d="M97.739 125.154H96.974V123.628C96.974 123.173 96.725 122.949 96.218 122.949H95.743V125.154H94.986V119.995H96.218C97.24 119.995 97.723 120.506 97.723 121.465C97.723 121.941 97.602 122.305 97.369 122.55C97.361 122.557 97.345 122.571 97.337 122.585C97.321 122.599 97.305 122.613 97.288 122.62C97.578 122.865 97.739 123.201 97.739 123.628V125.154ZM95.743 122.284H96.218C96.419 122.284 96.564 122.263 96.644 122.221C96.717 122.179 96.765 122.144 96.789 122.123C96.91 121.99 96.966 121.773 96.966 121.465C96.966 121.122 96.902 120.919 96.781 120.8C96.652 120.688 96.467 120.66 96.218 120.66H95.743V122.284Z" fill="#FFFFFE"/>
<path fill-rule="evenodd" clip-rule="evenodd" d="M99.917 123.362H100.673V123.691C100.673 123.992 100.738 124.209 100.859 124.342C100.883 124.377 100.931 124.405 101.003 124.44C101.076 124.475 101.181 124.496 101.334 124.496C101.623 124.496 101.784 124.37 101.881 124.216C101.969 124.062 101.986 123.866 101.986 123.726C101.986 123.481 101.889 123.32 101.752 123.201C101.615 123.089 101.43 123.012 101.261 122.949L101.116 122.893C100.947 122.83 100.657 122.725 100.4 122.508C100.078 122.235 99.917 121.892 99.917 121.472C99.917 121.031 100.054 120.66 100.311 120.401C100.561 120.149 100.915 119.995 101.334 119.995C101.913 119.995 102.235 120.212 102.404 120.401C102.638 120.66 102.75 121.017 102.75 121.472V121.801H101.986V121.472C101.986 121.073 101.881 120.856 101.744 120.758C101.607 120.66 101.438 120.66 101.334 120.66C101.02 120.66 100.867 120.807 100.778 120.989C100.681 121.171 100.673 121.381 100.673 121.472C100.673 121.717 100.77 121.878 100.907 122.004C101.044 122.13 101.229 122.221 101.422 122.284L101.551 122.333C101.704 122.389 101.994 122.48 102.251 122.697C102.581 122.963 102.75 123.306 102.75 123.726C102.75 124.517 102.243 125.154 101.334 125.154C100.392 125.154 99.917 124.615 99.917 123.691V123.362Z" fill="#FFFFFE"/>
</svg>
