<svg height="512pt" viewBox="0 0 512 512.001" width="512pt" xmlns="http://www.w3.org/2000/svg"><path d="m84.414062 63.199219 37.59375-37.59375c5.859376-5.855469 5.859376-15.351563 0-21.210938-5.855468-5.859375-15.355468-5.859375-21.214843 0l-37.59375 37.59375-37.589844-37.59375c-5.859375-5.859375-15.355469-5.859375-21.214844 0-5.859375 5.855469-5.859375 15.355469 0 21.210938l37.59375 37.59375-37.59375 37.59375c-5.859375 5.855469-5.859375 15.355469 0 21.214843 2.929688 2.929688 6.769531 4.390626 10.605469 4.390626 3.839844 0 7.679688-1.464844 10.605469-4.390626l37.59375-37.59375 37.59375 37.59375c2.929687 2.925782 6.769531 4.390626 10.609375 4.390626 3.835937 0 7.675781-1.464844 10.605468-4.390626 5.855469-5.859374 5.855469-15.355468 0-21.214843zm0 0" fill="#ff3f62"/><path d="m470.011719 448.800781 37.59375-37.59375c5.859375-5.859375 5.859375-15.355469 0-21.214843-5.855469-5.855469-15.355469-5.855469-21.210938 0l-37.59375 37.59375-37.59375-37.59375c-5.855469-5.855469-15.355469-5.855469-21.210937 0-5.859375 5.859374-5.859375 15.355468 0 21.214843l37.589844 37.59375-37.589844 37.59375c-5.859375 5.855469-5.859375 15.355469 0 21.210938 2.925781 2.929687 6.765625 4.394531 10.605468 4.394531 3.835938 0 7.675782-1.464844 10.605469-4.394531l37.59375-37.59375 37.589844 37.59375c2.929687 2.929687 6.769531 4.394531 10.609375 4.394531 3.835938 0 7.675781-1.464844 10.605469-4.394531 5.855469-5.855469 5.855469-15.351563 0-21.210938zm0 0" fill="#ff3f62"/><path d="m63.199219 415.601562c-8.28125 0-15-6.71875-15-15v-112.925781c0-8.285156 6.71875-15 15-15h338.46875v-97.921875c0-8.285156 6.714843-15 15-15 8.285156 0 15 6.714844 15 15v112.921875c0 8.285157-6.714844 15-15 15h-338.46875v97.925781c0 8.28125-6.714844 15-15 15zm0 0" fill="#75efff"/><g fill="#00479b"><path d="m63.199219 512c-34.847657 0-63.199219-28.351562-63.199219-63.199219 0-34.851562 28.351562-63.199219 63.199219-63.199219 34.847656 0 63.203125 28.351563 63.203125 63.199219 0 34.847657-28.351563 63.199219-63.203125 63.199219zm0-96.398438c-18.304688 0-33.199219 14.890626-33.199219 33.199219 0 18.304688 14.894531 33.199219 33.199219 33.199219 18.308593 0 33.203125-14.894531 33.203125-33.199219 0-18.308593-14.894532-33.199219-33.203125-33.199219zm0 0"/><path d="m497 189.753906h-160.664062c-5.207032 0-10.039063-2.699218-12.769532-7.128906-2.734375-4.433594-2.972656-9.960938-.632812-14.609375l80.332031-159.753906c2.546875-5.066407 7.734375-8.261719 13.402344-8.261719s10.855469 3.195312 13.402343 8.261719l80.332032 159.753906c2.335937 4.648437 2.097656 10.179687-.632813 14.609375-2.734375 4.429688-7.5625 7.128906-12.769531 7.128906zm-136.332031-30h112l-56-111.363281zm0 0"/></g></svg>