<svg width="373" height="70" viewBox="0 0 373 70" fill="none" xmlns="http://www.w3.org/2000/svg">
<path fill-rule="evenodd" clip-rule="evenodd" d="M115 29.3691H120.608V32.2388C120.608 34.8643 121.085 36.7571 121.98 37.9172C122.159 38.2225 122.517 38.4668 123.054 38.772C123.591 39.0773 124.366 39.2605 125.5 39.2605C127.648 39.2605 128.841 38.1615 129.557 36.8182C130.213 35.4749 130.332 33.7653 130.332 32.5441C130.332 30.4071 129.616 29.0027 128.602 27.9647C127.588 26.9878 126.216 26.3161 124.963 25.7666L123.889 25.2782C122.636 24.7286 120.489 23.8128 118.58 21.9199C116.193 19.5387 115 16.5468 115 12.8833C115 9.03663 116.014 5.80054 117.923 3.54138C119.773 1.34328 122.398 0 125.5 0C129.795 0 132.182 1.89281 133.435 3.54138C135.165 5.80054 136 8.91452 136 12.8833V15.7531H130.332V12.8833C130.332 9.40298 129.557 7.51018 128.543 6.65536C127.528 5.80054 126.276 5.80054 125.5 5.80054C123.173 5.80054 122.04 7.08277 121.384 8.67029C120.668 10.2578 120.608 12.0896 120.608 12.8833C120.608 15.0204 121.324 16.4247 122.338 17.5237C123.352 18.6228 124.724 19.4166 126.156 19.9661L127.111 20.3935C128.244 20.882 130.392 21.6757 132.301 23.5685C134.747 25.8887 136 28.8806 136 32.5441C136 39.4437 132.241 45 125.5 45C118.52 45 115 40.2985 115 32.2388V29.3691" fill="#93A8C1"/>
<path fill-rule="evenodd" clip-rule="evenodd" d="M155.307 32.422H147.633L144.815 45H139L149.192 0H153.688L164 45H158.125L155.307 32.422ZM148.952 26.6825H153.988L151.47 15.6309L148.952 26.6825V26.6825Z" fill="#93A8C1"/>
<path fill-rule="evenodd" clip-rule="evenodd" d="M166 12.8223C166 8.85346 166.84 5.73948 168.52 3.54138C169.78 1.89281 172.18 0 176.5 0C180.82 0 183.16 1.89281 184.42 3.54138C186.16 5.80054 187 8.85346 187 12.8223V15.692H181.3V12.8223C181.3 9.34193 180.52 7.44912 179.56 6.5943C178.54 5.73948 177.28 5.73948 176.5 5.73948C175.6 5.73948 174.46 5.73948 173.44 6.5943C172.42 7.44912 171.64 9.34193 171.64 12.8223V32.1167C171.64 34.7422 172.12 36.6961 173.02 37.8562C173.2 38.1615 173.56 38.4668 174.1 38.772C174.64 39.0773 175.42 39.2605 176.5 39.2605C178.66 39.2605 179.5 38.4057 179.98 37.8562C180.88 36.635 181.3 34.7422 181.3 32.1167V29.2469H187V32.1167C187 36.0855 186.16 39.1384 184.42 41.3976C183.16 43.0461 180.82 45 176.5 45C174.34 45 172.72 44.5115 171.4 43.7788C170.08 43.1072 169.18 42.1913 168.52 41.3976C166.84 39.1995 166 36.0855 166 32.1167V12.8223" fill="#93A8C1"/>
<path fill-rule="evenodd" clip-rule="evenodd" d="M210 45H204.167V31.6893C204.167 27.7205 202.263 25.7666 198.395 25.7666H194.772V45H189V0H198.395C206.193 0 209.877 4.45726 209.877 12.8223C209.877 16.9742 208.956 20.1493 207.175 22.2863C207.114 22.3474 206.991 22.4695 206.93 22.5916C206.807 22.7137 206.684 22.8358 206.561 22.8969C208.772 25.0339 210 27.9647 210 31.6893V45ZM194.772 19.9661H198.395C199.93 19.9661 201.035 19.7829 201.649 19.4166C202.202 19.0502 202.57 18.7449 202.754 18.5617C203.675 17.4016 204.105 15.5088 204.105 12.8223C204.105 9.83039 203.614 8.0597 202.693 7.02171C201.711 6.04478 200.298 5.80054 198.395 5.80054H194.772V19.9661V19.9661Z" fill="#93A8C1"/>
<path fill-rule="evenodd" clip-rule="evenodd" d="M231.307 32.422H223.633L220.815 45H215L225.192 0H229.688L240 45H234.125L231.307 32.422ZM224.952 26.6825H229.988L227.47 15.6309L224.952 26.6825V26.6825Z" fill="#93A8C1"/>
<path fill-rule="evenodd" clip-rule="evenodd" d="M253.853 45L247.685 23.4464V45H242V0H247.019L256.03 31.6893L264.981 0H270V45H264.315V23.4464L258.147 45H253.853" fill="#93A8C1"/>
<path fill-rule="evenodd" clip-rule="evenodd" d="M293 0V5.73948H279.856V19.5997H293V25.3392H279.856V39.2605H293V45H274V0H293" fill="#93A8C1"/>
<path fill-rule="evenodd" clip-rule="evenodd" d="M314.028 45L302.842 17.768V45H297V0H301.91L313.096 27.232V0H319V45H314.028" fill="#93A8C1"/>
<path fill-rule="evenodd" clip-rule="evenodd" d="M323 0H348V5.80054H338.348V45H332.652V5.80054H323V0" fill="#93A8C1"/>
<path fill-rule="evenodd" clip-rule="evenodd" d="M351 12.8223C351 8.85346 351.84 5.73948 353.52 3.54138C354.18 2.74763 355.08 1.89281 356.4 1.16011C357.72 0.488467 359.34 0 361.5 0C365.82 0 368.22 1.89281 369.48 3.54138C371.16 5.73948 372 8.85346 372 12.8223V32.1777C372 36.1465 371.16 39.2605 369.48 41.4586C368.22 43.1072 365.82 45 361.5 45C357.24 45 354.78 43.1072 353.52 41.4586C351.84 39.2605 351 36.1465 351 32.1777V12.8223ZM356.64 32.1777C356.64 35.7802 357.42 37.4898 358.44 38.3446C359.46 39.1995 360.6 39.2605 361.5 39.2605C362.28 39.2605 363.54 39.1995 364.56 38.3446C365.58 37.4898 366.36 35.7802 366.36 32.1777V12.8223C366.36 9.34193 365.58 7.51018 364.56 6.65536C363.54 5.80054 362.28 5.80054 361.5 5.80054C360.6 5.80054 359.46 5.80054 358.44 6.65536C357.42 7.51018 356.64 9.34193 356.64 12.8223V32.1777V32.1777Z" fill="#93A8C1"/>
<path fill-rule="evenodd" clip-rule="evenodd" d="M120 70H114V56H115.757V68.2141H120V70" fill="#93A8C1"/>
<path fill-rule="evenodd" clip-rule="evenodd" d="M141 59.9891C141 58.7551 141.28 57.7859 141.839 57.1023C142.06 56.8555 142.361 56.5893 142.8 56.3605C143.239 56.1525 143.78 56 144.499 56C145.94 56 146.74 56.5893 147.161 57.1023C147.72 57.7859 148 58.7551 148 59.9891V66.0109C148 67.2463 147.72 68.2141 147.161 68.8977C146.74 69.4107 145.94 70 144.499 70C143.08 70 142.26 69.4107 141.839 68.8977C141.28 68.2141 141 67.2463 141 66.0109V59.9891ZM142.88 66.0109C142.88 67.1312 143.14 67.6637 143.48 67.9299C143.82 68.1961 144.2 68.2141 144.499 68.2141C144.761 68.2141 145.18 68.1961 145.52 67.9299C145.86 67.6637 146.12 67.1312 146.12 66.0109V59.9891C146.12 58.9062 145.86 58.3363 145.52 58.0701C145.18 57.8053 144.761 57.8053 144.499 57.8053C144.2 57.8053 143.82 57.8053 143.48 58.0701C143.14 58.3363 142.88 58.9062 142.88 59.9891V66.0109V66.0109Z" fill="#93A8C1"/>
<path fill-rule="evenodd" clip-rule="evenodd" d="M174.418 70L170.859 61.5282V70H169V56H170.563L174.122 64.4718V56H176V70H174.418" fill="#93A8C1"/>
<path fill-rule="evenodd" clip-rule="evenodd" d="M197 59.9697C197 57.4628 198.176 56 200.49 56C202.824 56 204 57.4628 204 59.9697V60.8626H202.106V59.9697C202.106 58.9631 201.906 58.4126 201.606 58.1089C201.288 57.8233 200.889 57.7859 200.49 57.7859C200.091 57.7859 199.692 57.8233 199.394 58.1089C199.073 58.4126 198.874 58.9631 198.874 59.9697V66.0109C198.874 67.1312 199.133 67.6637 199.472 67.9285C199.811 68.1947 200.191 68.2141 200.49 68.2141C200.79 68.2141 201.189 68.1947 201.526 67.9285C201.847 67.6637 202.106 67.1312 202.106 66.0109V64.9474H199.832V63.1421H204V66.0109C204 67.2643 203.72 68.2335 203.142 68.8977C202.723 69.4107 201.925 70 200.49 70C199.073 70 198.275 69.4107 197.858 68.8977C197.278 68.2335 197 67.2643 197 66.0109V59.9697" fill="#93A8C1"/>
<path fill-rule="evenodd" clip-rule="evenodd" d="M226 70V56H228.638C229.808 56 230.662 56.3605 231.2 57.0635C231.74 57.6902 232 58.6594 232 59.9323C232 61.2051 231.74 62.1549 231.2 62.8191C231.183 62.8579 231.127 62.9147 231.052 62.9896C231.127 63.0659 231.183 63.1227 231.2 63.1796C231.74 63.8451 232 64.7949 232 66.0677C232 67.3406 231.74 68.3084 231.2 68.9365C230.643 69.6381 229.789 70 228.638 70H226ZM227.746 57.7859V62.098H228.638C229.028 62.098 229.325 62.0398 229.492 61.9455C229.659 61.8499 229.789 61.775 229.845 61.6793C230.105 61.3562 230.235 60.7864 230.235 59.9323C230.235 58.9436 230.068 58.4126 229.789 58.1089C229.492 57.8233 229.084 57.7859 228.638 57.7859H227.746ZM227.746 63.8825V68.2141H228.638C229.084 68.2141 229.492 68.1767 229.789 67.8716C230.068 67.5874 230.235 67.055 230.235 66.0677C230.235 65.0611 230.049 64.5093 229.771 64.2056C229.473 63.9214 229.084 63.8825 228.638 63.8825H227.746V63.8825Z" fill="#93A8C1"/>
<path fill-rule="evenodd" clip-rule="evenodd" d="M253 59.9891C253 58.7551 253.28 57.7859 253.841 57.1023C254.061 56.8555 254.361 56.5893 254.8 56.3605C255.241 56.1525 255.781 56 256.501 56C257.94 56 258.74 56.5893 259.161 57.1023C259.721 57.7859 260 58.7551 260 59.9891V66.0109C260 67.2463 259.721 68.2141 259.161 68.8977C258.74 69.4107 257.94 70 256.501 70C255.08 70 254.261 69.4107 253.841 68.8977C253.28 68.2141 253 67.2463 253 66.0109V59.9891ZM254.88 66.0109C254.88 67.1312 255.14 67.6637 255.48 67.9299C255.82 68.1961 256.2 68.2141 256.501 68.2141C256.761 68.2141 257.181 68.1961 257.521 67.9299C257.861 67.6637 258.121 67.1312 258.121 66.0109V59.9891C258.121 58.9062 257.861 58.3363 257.521 58.0701C257.181 57.8053 256.761 57.8053 256.501 57.8053C256.2 57.8053 255.82 57.8053 255.48 58.0701C255.14 58.3363 254.88 58.9062 254.88 59.9891V66.0109V66.0109Z" fill="#93A8C1"/>
<path fill-rule="evenodd" clip-rule="evenodd" d="M286.218 66.0872H283.763L282.861 70H281L284.261 56H285.699L289 70H287.119L286.218 66.0872ZM284.184 64.3013H285.796L284.989 60.8626L284.184 64.3013V64.3013Z" fill="#93A8C1"/>
<path fill-rule="evenodd" clip-rule="evenodd" d="M316 70H314.333V65.8584C314.333 64.6243 313.79 64.017 312.685 64.017H311.649V70H310V56H312.685C314.912 56 315.964 57.3866 315.964 59.9891C315.964 61.2814 315.702 62.2686 315.193 62.9341C315.175 62.9522 315.141 62.991 315.123 63.0284C315.087 63.0672 315.052 63.1047 315.018 63.1241C315.649 63.7883 316 64.7006 316 65.8584V70ZM311.649 62.2117H312.685C313.123 62.2117 313.439 62.1549 313.615 62.0412C313.772 61.9275 313.877 61.8318 313.93 61.775C314.193 61.4145 314.316 60.8252 314.316 59.9891C314.316 59.0587 314.175 58.5083 313.913 58.1852C313.631 57.8802 313.228 57.8053 312.685 57.8053H311.649V62.2117V62.2117Z" fill="#93A8C1"/>
<path fill-rule="evenodd" clip-rule="evenodd" d="M338 70V56H340.641C342.922 56 344 57.4808 344 60.046V65.9346C344 68.4984 342.922 70 340.641 70H338ZM339.689 57.7859V68.2141H340.641C341.072 68.2141 341.485 68.1573 341.791 67.8536C342.078 67.5486 342.293 66.9787 342.293 65.9346V60.046C342.293 59.0005 342.078 58.4306 341.791 58.127C341.485 57.8233 341.072 57.7859 340.641 57.7859H339.689V57.7859Z" fill="#93A8C1"/>
<path fill-rule="evenodd" clip-rule="evenodd" d="M366 65.1374H367.869V66.0303C367.869 66.847 368.029 67.4363 368.327 67.7968C368.386 67.8911 368.507 67.9673 368.685 68.063C368.864 68.1573 369.122 68.2141 369.501 68.2141C370.216 68.2141 370.614 67.873 370.852 67.4543C371.071 67.0369 371.11 66.5045 371.11 66.1246C371.11 65.4604 370.872 65.0237 370.534 64.7006C370.196 64.3969 369.739 64.1876 369.321 64.017L368.964 63.8645C368.546 63.694 367.83 63.4083 367.193 62.8191C366.398 62.0786 366 61.1483 366 60.0085C366 58.8119 366.338 57.8053 366.975 57.1023C367.591 56.4187 368.466 56 369.501 56C370.932 56 371.727 56.5893 372.145 57.1023C372.721 57.8053 373 58.7731 373 60.0085V60.9015H371.11V60.0085C371.11 58.9256 370.852 58.3363 370.514 58.0701C370.176 57.8053 369.759 57.8053 369.501 57.8053C368.724 57.8053 368.347 58.2032 368.128 58.6982C367.89 59.1918 367.869 59.7617 367.869 60.0085C367.869 60.6727 368.109 61.1094 368.446 61.4519C368.784 61.7944 369.241 62.0412 369.718 62.2117L370.036 62.3449C370.415 62.4974 371.131 62.7442 371.766 63.3321C372.582 64.0545 373 64.9848 373 66.1246C373 68.271 371.747 70 369.501 70C367.174 70 366 68.5372 366 66.0303V65.1374" fill="#93A8C1"/>
<mask id="mask0" mask-type="alpha" maskUnits="userSpaceOnUse" x="52" y="0" width="47" height="70">
<path fill-rule="evenodd" clip-rule="evenodd" d="M52.5046 23.5549V69.4474C52.5046 69.4474 98.5328 57.7839 98.5328 23.5549C98.5328 11.535 93.5937 0.378296 75.5181 0.378296C57.4438 0.378296 52.5046 11.535 52.5046 23.5549" fill="white"/>
</mask>
<g mask="url(#mask0)">
<path d="M15.4175 5.13561H135.587V-0.269395H15.4175V5.13561ZM15.4175 26.3493H135.587V20.9443H15.4175V26.3493ZM15.4175 69.0621H135.587V63.6571H15.4175V69.0621ZM33.9037 47.7064H135.587V42.3014H33.9037V47.7064Z" fill="#93A8C1"/>
</g>
<path fill-rule="evenodd" clip-rule="evenodd" d="M36.5831 17.3292L37.237 21.1677L33.8116 19.3554L30.3889 21.1677L31.0428 17.3292L28.2713 14.6099L32.1023 14.0516L33.8116 10.5575L35.525 14.0516L39.3519 14.6099L36.5831 17.3292ZM36.5831 35.4041L37.237 39.2427L33.8116 37.4303L30.3889 39.2427L31.0428 35.4041L28.2713 32.6863L32.1023 32.1252L33.8116 28.6324L35.525 32.1252L39.3519 32.6863L36.5831 35.4041ZM37.237 57.0232L33.8116 55.2122L30.3889 57.0232L31.0428 53.1874L28.2713 50.4668L32.1023 49.9071L33.8116 46.4157L35.525 49.9071L39.3519 50.4668L36.5831 53.1874L37.237 57.0232ZM18.9179 17.0347L19.5718 20.8733L16.1491 19.061L12.725 20.8733L13.3776 17.0347L10.6088 14.3183L14.4371 13.7572L16.1491 10.2658L17.8611 13.7572L21.6894 14.3183L18.9179 17.0347ZM19.5718 39.2427L16.1491 37.4303L12.725 39.2427L13.3776 35.4041L10.6088 32.6863L14.4371 32.1252L16.1491 28.6324L17.8611 32.1252L21.6894 32.6863L18.9179 35.4041L19.5718 39.2427ZM23.0014 0C6.15007 0 0 11.1463 0 23.1537C0 58.4925 46 69 46 69V23.1537C46 11.1463 39.8541 0 23.0014 0V0Z" fill="#93A8C1"/>
</svg>
