<svg width="433" height="72" viewBox="0 0 433 72" fill="none" xmlns="http://www.w3.org/2000/svg">
<mask id="mask0" mask-type="alpha" maskUnits="userSpaceOnUse" x="0" y="0" width="116" height="72">
<path fill-rule="evenodd" clip-rule="evenodd" d="M9.53639 0.121114L9.55634 0.293659L9.6411 0.466205V0.535886L9.77904 0.726682L9.95189 0.809636L9.91865 0.983841L9.93527 1.15639L9.90203 1.32893L9.72752 1.241L9.81394 1.41355L9.76076 1.60434L9.57296 1.50148L9.44997 1.46664V1.65411L9.62282 1.63752L9.67766 1.81173L9.83056 2.0357L9.77904 2.19L9.79732 2.25968L9.76076 2.62136L9.86547 2.79557L9.88208 2.9847L9.69428 3.15725L9.48654 3.39948L9.50315 3.57036L9.33197 3.68982L9.44997 3.88061L9.29541 4.05482L9.33197 4.43309L9.15746 4.6073L8.81177 4.74334L8.70873 4.86445L8.53423 5.00382L8.36138 5.02041L8.25834 4.83127L8.07054 4.91589L8.03397 5.10668L7.92927 4.96566L7.94755 4.81302L7.7747 4.75993L7.94755 4.74334L8.08716 4.57245L8.44946 4.31198L8.4129 4.50277L8.32814 4.67532L8.34476 4.84786L8.4129 4.77984L8.44946 4.5907L8.56913 4.4165L8.74197 4.38332L8.58741 4.57245L8.77521 4.69191L9.07104 4.03823L8.98296 3.86402L8.81177 3.8972V3.70973L8.98296 3.76116L8.99958 3.58861L8.96634 3.39948L9.15746 3.43266L9.29541 3.3298L9.31203 3.14066L9.22727 2.96811L8.81177 3.34805L8.65721 3.53718L8.29324 3.64005L7.92927 3.98514L7.96417 4.17593L8.13701 4.13943L8.32814 4.15934L7.96417 4.2257L7.80961 4.07141L7.92927 3.8972L8.27662 3.58861L8.44946 3.48243L8.77521 3.08757L8.72535 3.26011V3.43266L8.81177 3.26011L8.99958 3.08757L9.07104 2.86359L8.96634 2.41398L9.01952 2.2265L8.82839 2.3642L8.81177 2.555L8.69211 2.27627L8.50099 2.34761L8.48437 2.15682L8.43285 1.98261L8.25834 2.0357L8.07054 2.0523L7.86279 1.91625L7.49715 1.82832L7.30769 1.70886L6.96034 1.60434L6.70273 1.44839L6.58473 1.2775L6.39361 1.17298L6.20248 1.01702L5.87341 0.690182L5.68228 0.585659L5.73546 0.826227L5.68228 0.864386L5.63242 1.05186L5.5111 1.241L5.52772 1.41355L5.47453 1.58775V1.77689L5.5111 1.94943L5.64904 2.15682L5.73546 2.5185L5.75375 2.70764L5.66566 3.43266L5.73546 3.88061L5.68228 4.4165L5.6158 4.6073L5.68228 4.65707L5.73546 4.48452L5.90831 4.6073L6.08115 4.79643L6.25566 4.86445L5.96149 4.8993L5.68228 5.037L5.64904 4.84786L5.5809 5.2112L5.63242 5.40034L5.66566 5.38043L6.0313 5.50155L6.09777 5.67575H6.04792L5.85679 5.57123L5.73546 5.74543L5.78699 5.91632L5.64904 6.10711L5.77037 6.27966L5.75375 6.34768L5.64904 6.19173L5.47453 6.21164L5.546 5.86655L5.5111 5.67575L5.28673 6.58991L5.45792 6.57166L5.59918 6.7608L5.97811 6.67618L6.08115 6.84873L6.25566 6.88357L6.30552 6.90016L6.39361 6.95159L6.44513 6.96818L6.49665 7.14239L6.66783 7.31327L6.84234 7.29668L6.66783 7.38295L6.47837 7.29668L6.46175 7.28009L6.35704 7.1258L6.18586 6.98477L5.99473 7.03952L5.82355 7.02127L5.77037 6.935L5.63242 6.91841L5.6158 6.96818L5.68228 7.0727L5.63242 7.05611L5.6158 7.00136L5.4413 6.84873L5.37482 7.03952L5.30335 7.39955L5.14879 7.57375L5.16707 7.60693L5.13217 7.77948L5.04408 7.95202L5.0607 8.14282L5.13217 8.26393L4.97594 8.43482L4.88786 8.62561L5.01085 8.7965L4.83634 8.74673L4.81972 8.88443L4.7333 9.05698L4.71668 9.24445L4.62859 9.43525L4.59535 9.62605L4.40423 9.90145L4.35437 10.0906L4.07515 10.6082L4.00868 10.9533L3.85079 11.315L3.88735 11.5058L3.87073 11.5755L3.74775 11.6617L3.64304 11.8343L3.54166 12.196L3.17769 13.1101L3.07631 13.3009L3.02146 13.4718L3.21259 13.4038L3.22921 13.4901H3.03975L2.88518 13.646L2.67744 13.9895L2.60763 14.1803L2.67744 14.1968L2.50625 14.3014L2.43645 14.4922L2.36499 14.318L2.02096 15.0413L1.67527 15.4909V15.851L1.76169 16.216L1.71017 16.4051L1.57056 16.5942L1.53566 16.7668L1.43428 16.9907L1.46918 17.6992L1.64037 18.0609L1.51904 18.4408L1.416 18.6133L1.53566 18.8191L1.51904 18.9933L1.55394 19.3533L1.51904 19.3915L1.46918 19.7349L1.03707 20.5097L1.07031 20.6839L1.00051 20.8747L0.879183 21.0456L0.794423 21.2347L0.845944 21.2878L0.671437 21.4072L0.483634 21.4935L0.37893 21.6677L0.206085 21.8552L0.0515211 22.2169V22.5122L0 22.703L0.37893 23.2356V23.4081L0.500253 23.5807L0.671437 24.1331L0.654817 24.3057L0.69138 24.4948L0.654817 24.6674V24.8913L0.533493 25.0639L0.37893 25.409L0.413831 26.134L0.37893 26.4111L0.224366 26.582L0.37893 26.9453L0.586676 27.307L0.776141 27.8429L0.895803 28.0337L1.05369 28.2029L1.14011 28.3754L1.17335 28.5662L1.15673 28.7388L1.18997 28.6707L1.20825 28.6873L1.36282 29.0474L1.416 29.4124L1.29468 29.0474L1.26144 29.2382L1.14011 29.429L1.07031 29.6181L1.26144 29.5003L1.4509 29.7044L1.50242 29.8786L1.69189 29.998L1.79493 30.1872L1.96944 30.3614L2.124 30.2568L2.03924 30.066L2.17718 29.9466L2.14062 29.7575L2.2287 29.5667L2.41817 29.5003L2.58935 29.6529L2.73062 29.8421L2.9018 29.9466L3.05637 29.8587L3.22921 29.8786L3.38544 30.0495L3.73113 30.066L3.90563 29.93L3.85079 30.0495L3.67961 30.1706H3.85079L4.04192 30.086L4.05854 30.1025L3.69789 30.2386L3.16107 29.9814L2.88518 29.998L2.714 29.8587L2.55611 29.93H2.38493L2.28023 30.1191L2.40155 30.2933L2.34837 30.4642L2.41817 30.6517L2.52287 30.723L2.57273 31.0665V31.4116L2.714 31.6024L2.53949 31.5692L2.36499 31.3618L2.26194 31.171L2.09076 31.0499L2.10738 30.8757L2.21042 30.7065L2.1938 30.5157L2.15724 30.446H1.96944L1.88301 30.6019L1.86639 30.7745L1.72679 31.1378L1.83149 31.3087L1.84811 31.6704L1.79493 31.8446L1.72679 31.9657V32.1349L1.79493 32.3091L2.09076 32.845L2.28023 32.9993L2.62592 33.0358L2.73062 33.3975V33.7758L2.6442 33.7409L2.57273 33.9135L2.21042 34.0877V34.466L2.15724 34.8276L2.24532 35.0168L2.53949 35.3801L2.62592 35.7418L2.78048 35.8795L2.81538 36.2611L3.00485 36.6045L3.02146 36.7953L3.09293 36.9679L3.3173 37.157L3.41868 37.5203L3.74775 37.8638L3.78265 38.0546L3.64304 38.1757L3.6098 38.3648L3.74775 38.5374L3.93887 38.607L4.07515 38.7962L4.05854 38.9687L3.90563 39.2275V39.5892L3.80093 39.7634L3.83417 39.9492L3.71451 40.14L3.69789 40.3308L3.81755 40.3657L3.93887 40.5532L4.09344 40.7274L4.62859 40.8153L4.8031 40.8817L4.99256 40.9182L5.33825 41.1587L5.5111 41.2301L5.87341 41.2632L6.16924 41.4872L6.30552 41.6598L6.47837 41.8157L6.52989 42.1758L6.9271 42.5059L7.28941 42.7299L7.99907 42.8493L8.03397 42.8842L8.17192 43.2459L8.18853 43.4184L8.13701 43.591L8.1553 43.7635L8.34476 43.8846L8.43285 43.7469L8.60403 43.7817L8.79515 43.8846L8.96634 44.1766L9.10761 44.3508L9.29541 44.5051L9.88208 45.2633L10.0566 45.6267L10.1763 46.0414L10.2112 46.4031L10.1763 46.7648L10.0915 47.1099V47.3007L10.143 47.163L10.3325 47.2824L10.2643 47.455L10.1763 47.2658L10.2444 47.455L10.2976 47.7121L10.384 47.732L15.93 48.3011L15.6724 48.6628L15.6009 48.8536L16.1544 49.1788L20.8046 51.8532L23.846 53.5621L27.3876 54.0615L28.561 54.2008L30.3941 54.4248L30.5686 54.3551L30.67 53.4244L30.7764 53.2004L34.5939 53.6152H34.6106V53.5438L34.5092 53.4078L34.4045 53.0627V52.9764V53.0627L34.5092 53.4078L34.6106 53.5438V53.6152L34.7668 53.6981L34.7834 53.7164L34.8715 53.733L35.0427 53.8723L35.1457 54.0449L35.1806 54.2174L35.3368 54.5625L35.5097 54.7002L35.8554 54.891L36.0282 55.0619L36.3739 55.5281L36.7196 55.8732L36.806 56.064L37.1168 56.424L37.3079 56.5617L37.4808 56.6314L37.8431 56.9599L38.0143 57.0478L38.0508 57.2187L38.1888 57.305L38.2569 57.4775L38.3085 57.8376L38.3965 57.9089L38.5511 58.2706L38.6541 58.4431V58.6157L38.6026 58.8048L38.6209 59.1516L39.0015 60.0475L39.2425 60.288L39.417 60.3594L39.5882 60.4788L39.7078 60.6514L40.1233 61.0313L40.2962 61.0993L40.6585 61.1873L40.7449 61.3764L41.2285 61.602L41.4014 61.7895L41.5759 61.9289L41.7471 61.9455L41.7637 62.0135L41.9382 62.05H42.2307L42.2839 61.8924L42.4734 61.7713L42.5764 61.602L42.7509 61.5307L42.8174 61.3565L42.8556 61.1707L42.9586 61.0993L43.2512 60.376L43.4074 60.152L43.4955 60.0641L43.6666 60.0475L43.8545 59.9612L44.029 59.9778L44.2001 59.928L44.3065 59.7538H44.4777L44.7901 59.928L44.9613 59.9778L45.1525 59.9446L45.3236 59.9778H45.5148L45.9984 60.1172L46.1895 59.9977L46.3624 60.0641L46.5336 60.2051L46.605 60.376L46.7413 60.5303L46.7762 60.668L46.949 60.6348L47.0188 60.8073L47.2083 60.9633L47.3795 61.0496L47.3994 61.2039L47.9163 61.602L48.1241 61.9621L48.262 62.1346L48.365 62.6025L48.5728 62.9808L48.6443 63.1516V63.223L48.7639 63.3756L48.852 63.5498L49.0066 63.7406L48.9534 63.7904L49.0398 64.1537L49.211 64.5154L49.4021 64.6714L49.5766 64.7394L49.7312 64.9999L49.781 65.1708L49.9389 65.2919L50.0769 65.4827L50.1134 65.6535L50.4558 66.138L50.7516 66.2226L50.9245 66.3603L50.976 66.4466L50.9594 66.6208L51.0259 66.7917L51.0092 66.9825L50.9245 67.1733L51.1139 67.3093V67.4985L51.079 67.6727L51.0973 67.8435L51.2336 68.0178L51.4247 68.3628L51.5627 68.552L51.7006 68.9303L51.7538 69.3102L51.9449 69.4844L51.9084 69.6553L52.0131 69.7084L52.3754 69.7415L52.5482 69.8295L52.6513 69.8112L52.8241 69.9323L52.9438 70.1032L53.0485 70.1729L53.2396 70.1397L53.4141 70.2243L53.6019 70.2442L53.9476 70.5711L54.1022 70.6391L54.8301 70.7088L55.2456 70.6922L55.4168 70.7768L55.588 70.8117L55.9353 71.1568H55.9686L56.158 71.2961L56.3325 71.2779V71.1053L56.7813 70.9842L56.8694 70.9676L56.8328 70.7602L56.6267 70.9328L56.6782 70.7436L56.5403 70.9328L56.4023 70.6922H56.5901L56.4705 70.518L56.419 70.1563L56.1248 69.5508L56.1414 69.3616L56.0035 68.7411L55.829 68.5702V68.396L56.0035 68.4657L55.8123 68.2417L55.829 68.0675H56.0035L56.0201 67.88L56.1082 67.7058V67.5167L56.158 67.3442L55.8123 67.4304L55.4534 67.3276L55.4866 67.1368L55.3819 67.0356L55.2955 66.8448L55.47 66.9825L55.6063 67.1567L55.7791 67.1368L55.9004 67.0853L56.0749 67.1368L55.9004 67.2761L56.158 67.1899L56.5237 66.2923L56.4705 66.1198L56.3824 66.0683L56.2461 65.8974V65.7581L56.0749 65.8095L55.9686 65.7415L56.158 65.69L56.5403 65.6535L56.7115 65.8261L57.0572 65.345L57.1619 65.1542V64.9999L56.989 65.121L56.9026 65.2919L56.7314 65.1376L56.8328 64.9634L56.7813 64.8771L56.9724 64.897L57.1452 64.8091L57.1968 64.9468L57.3696 64.7726L57.4211 64.6017L57.4377 64.7726L57.3696 64.9468L57.5424 64.8605L57.7502 64.6183V64.4275L57.6621 64.2582L57.7502 64.0675L57.7153 63.9978L57.9563 64.3429L58.1308 64.4109L58.6659 64.1189L58.6992 64.0509L58.5263 63.9463L58.3385 63.9978L58.4416 63.8252L58.2671 63.7041L58.0759 63.3424L58.2671 63.3258L58.302 63.447L58.5795 63.6709L58.7507 63.5996L58.5961 63.2562L58.6294 63.2396L58.7341 63.4304L58.9069 63.5166L59.0964 63.3939L59.1662 63.5664L59.3407 63.5498L59.236 63.6709L59.6 63.5166L59.5451 63.6875L59.1845 63.8949L59.1662 63.9463L59.703 63.6543L60.0653 63.5166L60.2731 63.3756L60.0819 63.4121L59.9074 63.5332L59.8742 63.359L60.2398 63.2396L60.5822 63.2047L60.9279 62.9608L61.1888 62.843L61.36 62.7037L61.7074 62.3752L61.7389 62.0666L62.0348 61.8592L62.1544 61.6883L62.3289 61.602L62.4137 61.3764L62.2242 61.3067V61.0496L62.053 60.9085L62.0713 60.7377L61.9832 60.5502L62.0713 60.4788L62.3289 60.6348L62.4303 60.4457L62.6048 60.3046L62.7777 60.3428V60.6348L62.6381 60.9965L63.0203 60.892H63.366L63.3328 60.945L63.1416 60.9799L62.7428 61.2553L62.6381 61.4444H62.6912C63.1283 61.0015 63.7981 60.8488 64.3333 60.5502L64.8684 60.4954L64.6092 60.1172L64.8186 59.7538C64.89 59.6875 64.9415 59.641 64.9964 59.5912L64.9897 59.5995L64.9731 59.6161H64.9897L65.0595 59.8069L64.9897 59.9977L64.8186 60.0807L64.782 60.2715L64.9731 60.4108L65.1443 60.288L65.9919 60.2018L66.0601 60.0989L65.8872 59.9778L66.0601 59.8401L66.095 59.3921L66.2512 59.5663L66.321 59.7372V59.9098L66.1465 59.9977L66.095 60.0807L66.2678 60.152L66.4589 60.1686L66.8212 60.2549L67.1869 60.3926L67.3747 60.4954L67.6871 60.6L68.5846 60.7377L68.7558 60.7194L69.015 60.5834H69.1879L69.0682 60.3046L68.8954 60.1686L69.0848 60.152L69.1546 60.0807L69.3441 59.9977L69.7064 59.8766L69.6732 60.0641L69.6898 60.1686L69.8643 60.1172L70.225 60.0807L70.2798 60.2715L70.4493 60.3594L70.5208 60.6165H70.7103L71.0543 60.7377L71.159 60.5668L71.2122 60.5502V60.4108L71.2454 60.5834L71.2122 60.6L71.1922 60.7907L71.3152 60.9633L71.503 61.0827L71.5911 61.2735L71.5412 61.4444L71.6775 61.5307L71.8653 61.461L72.2143 61.6883L72.4021 61.602H72.4553L72.6448 61.7049L72.7844 61.6186V61.3764L72.8359 61.1873L73.0254 61.1707L73.1982 61.0993L73.2846 61.0662L73.3511 61.2553L73.5256 61.1873L73.7168 61.237L73.7001 61.5141L73.7849 61.6883L73.9411 61.6186L74.114 61.4776L74.2004 61.3067L74.0791 61.1325L74.2519 61.0827L74.2004 60.7377L73.8381 60.5303L73.8048 60.3594L73.8215 60.3428L74.4597 60.6L74.6325 60.6348L74.8037 60.7194L74.8918 60.7907L74.7705 60.9799H74.9583L75.1328 60.9268L75.2541 61.1159L75.4618 61.1524L75.6363 61.0993L75.6862 61.2735L75.8059 61.461L75.9787 61.4975L75.997 61.2735L76.0851 61.461L75.9621 61.6352L75.8241 61.9969L75.997 61.826L76.0668 61.6518L76.2031 61.461L76.4474 61.7547L76.4823 61.5855L76.5687 61.3947L76.5488 61.2901L76.7233 61.237L76.7066 61.1873L76.5321 61.1325L76.4474 60.9633L76.2912 60.8588L75.9455 60.8073L75.756 60.7028L75.5316 60.7194L75.4452 60.5303L75.2541 60.4457L75.0463 60.3926L74.9782 60.2018L75.1494 60.1354L75.0995 60.0143L75.2906 59.9977L75.4618 60.0641L75.3405 59.928L75.2541 59.7538L75.4452 59.5829L75.6164 59.6161L75.6696 59.6692L75.7211 59.4784V59.3042L75.5649 59.2196L75.5483 59.0122L75.4967 58.8397L75.2208 59.0288L75.2026 59.2196L75.1328 59.3921H74.9583L74.8752 59.2196L74.7006 59.2544L74.5627 59.1333L74.5461 59.0802L74.925 58.8563L75.0114 58.6671L74.9782 58.6505L74.7871 58.7716L74.7705 58.5991L74.6491 58.7716L74.4763 58.6671L74.3217 58.8397L74.1472 58.9093L73.6303 58.9624H73.3511L73.1268 58.8563L73.1101 58.6837L73.268 58.5145L73.509 58.1329L73.6819 58.0831L73.9228 58.1163L74.114 58.2357L74.2868 58.3934H74.4597L74.5793 58.4597L74.6491 58.41L74.822 58.5643L75.0114 58.5808L75.063 58.5477L75.0829 58.5991L75.2906 58.5145L75.4618 58.4946L75.5316 58.3237L75.7211 58.1661L75.7726 58.0831L75.7377 58.0649L75.8939 58.0284L75.8607 58.0649L76.0319 58.045L76.3942 57.8923L76.7565 57.821L76.8429 57.7712L76.5853 57.7546L76.8778 57.7198L77.0673 57.8575L77.2418 57.9089L77.4146 57.8376L77.4645 57.7712L77.8285 57.9089L77.9348 57.7198L78.106 57.6849L78.4501 57.7546H78.6246L78.6578 57.1159L78.6927 56.9267L78.7625 56.7691L78.7459 56.6862L78.8489 56.8222L78.9337 56.8388L79.0384 57.0113L79.0733 57.1839L79.0035 57.3564L79.0899 57.5306L79.2794 57.6318L79.3326 57.597L79.4539 57.7878L79.419 57.9603L79.2295 58.0284L79.0567 58.0118L78.9337 58.0997L79.6433 57.9786L79.8328 57.9089L79.886 57.7364L79.8494 57.6849L80.0406 57.7198L80.2151 57.5638L80.2649 57.2353L80.4394 57.305L80.4561 57.3913L80.2832 57.5638L80.1951 57.7364L80.3015 57.7546L80.4893 57.6849L80.6638 57.5804L80.8184 57.3398L80.9048 57.1507L80.8716 57.081L80.8533 57.0644L80.9563 56.9599L81.0427 57.2005L81.1474 57.0279L81.2172 56.8222L81.2505 56.9948L81.4416 57.1673L81.302 57.3398L81.0261 57.4079L80.9729 57.4427L81.1624 57.4261L81.7175 57.2884L82.1828 57.2353L82.2709 57.2187L82.6332 56.8919L82.6864 57.0478L82.8576 56.9599L83.0487 56.9101L83.3579 57.0478L83.4443 57.2005L83.2897 57.1673L83.1003 57.081L82.9274 57.1159L82.8925 57.2187L82.5285 57.2005L82.703 57.2552H82.8759L83.5988 57.4079L84.0492 57.5638L84.4132 57.7712L84.3783 57.597L84.2055 57.4958L84.119 57.3564L84.2902 57.3216L84.4647 57.4079L84.7406 57.2005L84.7057 57.373L84.5678 57.4261L84.4814 57.5804L84.7406 57.7546L84.9317 57.7198L85.0348 57.9089L85.2259 57.8923L85.1212 58.0118L84.9317 57.8923L84.5678 57.7546L84.7406 57.9255L84.9135 58.0118L84.9816 58.0831H84.9135L85.1013 58.186L85.2758 58.2357L85.4503 58.41L85.555 58.5991L85.5882 58.7716L85.417 58.8231L85.3472 58.6339L85.329 58.4597L85.3107 58.6505L85.3805 58.8231L85.555 58.8911L85.7428 58.8745L85.8126 58.8231L86.1749 58.7219L86.3494 58.7036L86.3843 58.6157L86.5754 58.4597L86.6087 58.5477L86.7799 58.5311L87.315 58.0831L87.5061 58.0284L87.6275 57.9786L87.8186 58.0284L87.7471 57.8575L87.5228 57.7546L87.7654 57.821L87.6956 57.7364L87.782 57.5638L87.9549 57.4261L88.3022 57.3913L88.49 57.3398L88.5931 57.3564L88.9919 57.5638L89.1648 57.5804L89.5271 57.8044L89.7864 58.1661L90.167 58.3403L90.2534 58.5311L90.27 58.7036L90.7902 59.047L90.9448 59.2544L91.1193 59.3241L91.2206 59.495L91.3952 59.5481L91.7575 59.5132L92.0317 59.7737V59.9446L92.173 60.1172L92.3641 60.2051L92.3807 60.3926L92.4139 60.4788L92.4472 61.0131L92.5004 61.1873L92.4821 61.3947L92.2926 62.3072L92.3458 62.4631V62.8248L92.2594 63.1185L92.3807 63.3092L92.5685 63.4801L92.3807 63.223L92.7231 63.447L92.7414 63.5166L92.8627 63.3424L92.9474 62.9808H92.7779L92.7231 62.9442V62.7734L92.6051 62.6357V62.6025L92.984 62.79L93.0355 62.9608L93.2084 62.79L93.3629 62.9608L93.3978 63.1185L93.087 63.6543L93.0355 63.9463L92.8627 64.0144V64.1355L92.6898 63.9978L92.8112 64.1703L93.1552 64.3429L93.2599 64.5154L93.2266 64.5851L93.6222 65.2404L93.7419 65.4113L94.0211 65.7066L94.1956 65.7581L94.3651 65.7415L94.4366 65.7747L94.3834 65.6021L94.2803 65.4296L94.1075 65.3085L94.297 65.3284L94.3834 65.4462L94.7124 65.2753L94.7457 65.3085L94.5562 65.4296L94.6776 65.6021L94.6609 65.9655L94.6942 66.1546L94.7789 66.3271L94.7623 66.4466L94.9368 66.43L95.108 66.2392L95.1446 66.0683L95.3856 65.8775L95.1778 66.138L95.1612 66.3271L95.0249 66.4997L95.0415 66.6009L95.211 66.654L95.3856 66.8083L95.5767 67.4819L95.8708 67.8435H96.0071L95.8343 67.9132L96.0071 68.0178L96.1966 67.9663L96.3877 67.9846L96.4924 68.0012L96.8381 68.1372L96.8896 68.3114L97.0625 68.4491L97.2885 68.7594L97.3733 68.9485L97.6824 69.2936L97.8386 69.345H98.0297L98.2026 69.4844L98.0979 69.6553L97.8735 69.5508L97.7023 69.4147L97.5627 69.5872L97.6325 69.7581L97.8054 69.9489L98.1677 69.8295L98.3921 69.6918L98.5666 69.725H98.7577L98.9272 69.6387L99.0652 69.4844L99.2397 69.3616L99.4291 69.4661L99.3244 69.3799L99.5521 69.4661L99.4806 69.2936L99.5521 69.1045L99.6701 68.9303L99.5521 68.5868L99.602 68.4823L99.5687 68.3114L99.6535 68.1206L99.6701 67.9497L99.8097 67.7938L99.7931 67.6212L99.8446 67.4304L99.9111 67.6212L99.9294 67.4487L99.8779 67.2247L99.8446 66.8614V66.3271L99.8097 66.138L99.7765 65.3085L99.5687 64.6349L99.4806 64.5851L99.4474 64.3611L99.1532 63.9978L98.9821 63.9115L98.9272 63.9463L98.9621 63.8783V63.7041L98.7377 63.359L98.4452 62.7385L97.7539 61.7547L97.217 60.892L97.114 60.7194L96.8896 60.1852L96.7683 59.8235H96.8381L97.0093 59.928L96.9761 60.0989L97.1672 60.2715L97.3384 60.2051L97.4963 60.3229L97.5295 60.5137L97.4963 60.8754L97.6143 61.4113L97.9782 61.9787L98.1677 62.1695L97.7888 61.6352L97.7023 61.461L97.5976 61.1325L97.5461 60.7725L97.6824 60.6L97.5976 60.4108L97.4763 60.2383L97.1306 59.8766L96.1284 58.6157L95.5584 57.6683L95.2825 57.1325L95.0066 56.4788L94.9534 56.288L94.7623 55.9246L94.7124 55.5978L94.626 55.4269L94.4532 55.2527L94.3485 55.0619L94.4532 55.183L94.4881 54.8213L94.2803 54.75L94.297 54.5625L94.1756 54.39L94.2122 54.2174L94.297 54.0449H94.1756L94.2803 53.8723L94.1075 53.7164L94.2803 53.8209L94.3651 53.6318L94.1241 53.6152L94.1956 53.441L94.3651 53.5438L94.5213 53.2668L94.5728 53.0959L94.3834 53.0262H94.2122L94.0377 52.9416L94.0909 52.9233L94.2621 52.9764H94.4366V52.7856L94.5379 52.8022L94.6609 52.4571L94.4881 52.5102L94.4017 52.424L94.5728 52.2663L94.4881 52.0955L94.6776 52.2166L94.7457 52.0258L94.7291 51.9412L94.5562 52.0092L94.5213 51.8366L94.7124 51.8035L94.8504 51.5961L94.6776 51.475V51.2842L94.8504 51.3721L95.0249 51.3555L95.0066 51.1813L95.1778 51.0602L95.2659 50.8893L95.1279 50.8694L95.211 50.5094L95.2825 50.3368V50.5094L95.4022 50.4911L95.5235 50.3202L95.3523 50.1809L95.2659 50.0597L95.211 49.8889L95.0415 49.5438L95.1778 49.6815L95.2659 49.8557L95.4371 50.0083L95.457 49.6483L95.5767 49.9735L95.7495 50.0797L95.939 49.9386L96.0237 49.6483L95.8526 49.8175L95.9739 49.6483L95.9057 49.5604H95.7146L95.5401 49.4741L95.4022 49.4907L95.7495 49.3364L95.9739 49.3862L96.1467 49.2999L96.3196 49.2833L96.4924 49.1107L96.3694 49.0261L96.5439 49.1107L96.7168 48.9714L96.9229 48.9216L96.9062 48.8171L97.0808 48.7308L97.1672 48.5417L96.9927 48.472L96.9229 48.2148H97.0808L97.1472 48.3857L97.3217 48.3509L97.4763 48.18L97.581 48.0075L97.7023 47.9195L97.6325 47.732L97.7539 47.5578L97.9267 47.6109L98.0979 47.5578L98.1677 47.387L98.304 47.1978L98.1677 47.1265L98.3422 47.1796L98.4951 47.007L98.3588 46.8345L98.1843 46.7134L98.2026 46.506L98.304 46.3152L98.3588 46.282L98.2375 46.6437L98.4087 46.7134L98.4785 46.8859L98.4951 46.2986L98.5832 46.1078L98.9621 45.4027L99.361 44.9896L99.5322 44.885V44.7822L99.6369 44.7656L99.9992 44.608L100.343 44.5217H100.656L100.83 44.4006L100.863 44.0389L100.742 43.6789H100.777L100.863 43.8481L100.985 44.2811V43.7469L101.038 43.5561L101.191 43.1944L101.435 42.8327L101.812 42.5059L101.709 42.3317L101.812 42.1592L101.729 42.0397L101.9 42.1077L101.779 42.2803L101.967 42.3483L102.02 42.3151L102.141 42.1426L102.316 41.7958L102.507 41.8672L102.938 41.6415H103.11L103.127 41.5552L103.265 41.3827L103.353 41.5735L103.42 41.3827L103.611 41.5038L103.68 41.4872L103.835 41.1421L103.993 40.9679L104.059 40.7805L103.993 40.6411L103.923 40.6577L103.835 40.8485L103.661 40.8817L103.715 40.7108L103.627 40.5366L103.577 40.7108L103.594 40.7274L103.456 40.7605L103.508 40.9347L103.335 40.8485L102.971 41.0725L102.608 41.0393L102.316 40.7605L102.175 40.5897L102.333 40.6942L102.524 40.7605L102.73 40.9182L102.919 40.9347L103.041 40.8485L103.318 40.5034V40.3308L103.145 40.3657L103.195 40.228L103.386 40.1948L103.456 40.004L103.077 39.8663H102.903L102.108 39.6589L102.055 39.5892L102.075 39.556L102.454 39.6589L102.798 39.6755L102.971 39.6058L103.094 39.6423L103.022 39.4681L103.006 39.2939L103.179 39.2773L103.077 39.3984L103.248 39.556L103.436 39.6058L103.456 39.4183L103.561 39.5892L103.732 39.6257L104.131 39.6423L104.284 39.4681L104.526 38.9156V38.7448L104.698 38.7962L104.855 38.6236L104.804 38.4677L104.769 38.106L104.648 37.9351L104.457 37.7609L104.475 37.8638L104.44 37.9849L104.181 38.0181V38.2089L104.234 38.554L104.059 38.7282L103.993 38.6402L104.114 38.4677L103.94 38.3997L104.026 38.2255V38.0181L103.993 37.8472L103.802 37.8306L103.524 37.9351L103.491 38.106L103.127 38.0181L102.938 38.1425L102.765 38.2089L102.574 38.2437L102.54 38.0546L102.401 37.8804L102.299 37.6896L102.263 37.5203L102.333 37.3644L102.367 37.4158L102.349 37.5867L102.524 37.9351L102.695 37.9152L102.886 37.9849L103.283 37.6564L103.094 37.5369H103.265L103.524 37.5867L103.386 37.4158L103.577 37.4855L103.749 37.4158V37.2582L103.561 37.1056L103.386 37.0525L103.577 37.0176L103.94 37.2416H104.164L103.993 37.0707L103.868 36.8998L104.234 37.1753L104.372 37.4158L104.355 37.225L104.01 36.709V36.6211L103.818 36.5879L103.68 36.4137L103.644 36.2428H103.699L103.868 36.3805L103.923 36.2063H103.785L103.975 36.1732L104.302 36.8816L104.423 37.0176L104.58 37.3644L104.751 37.5369L104.681 37.605L104.855 37.673L105.027 37.8638L105.131 38.0546L105.166 38.0015L105.063 37.814L104.613 37.2781L104.372 36.9164L104.059 36.1898L104.043 36.1566L103.715 35.6207L103.561 35.2607L103.059 35.2772L102.886 35.2424L102.833 35.4498L102.903 35.5527L102.73 35.468L102.59 35.4498L102.401 35.6207L102.454 35.4498L102.279 35.2772L102.108 35.1561L102.092 35.1727L101.967 34.9836L101.9 34.8094L101.709 34.8807L101.538 34.8094L101.38 34.8475L101.038 34.7065H100.484L100.534 34.6236L100.709 34.6567L101.071 34.5854L101.262 34.743H101.347L101.364 34.5522L101.538 34.7065L101.709 34.8094L101.884 34.6733L102.02 34.8641L102.195 35.0168L102.382 35.0881L102.557 35.2772L102.645 35.1727L102.765 35.1379L102.816 34.9487L102.748 34.7762L102.557 34.7065L102.507 34.5356L102.316 34.5854L101.95 34.4494L101.796 34.2752L101.417 33.9832L101.605 34.018L101.95 34.3283L102.316 34.4825L102.401 34.2918L102.246 34.1209L102.316 34.0694L102.487 34.1043L102.662 34.242L102.695 34.0694L102.608 33.7409L102.437 33.7575L102.263 33.7061L102.333 33.6547L102.141 33.5004L101.967 33.517L101.796 33.3809L101.744 33.2764L101.38 33.1022L101.244 32.913L101.055 32.8284L100.95 32.7239L100.847 32.5514L100.484 32.3257L100.327 32.3091L100.501 32.2925L100.709 32.3805L100.898 32.5331L101.055 32.7239L101.227 32.7919L101.38 32.9827L101.503 32.9993L101.867 33.2764L102.038 33.293L102.055 33.3444L102.246 33.4141L102.349 33.1536L102.333 32.9661L102.23 32.7919L102.401 32.8284V32.6376L102.02 32.4999L101.851 32.4833V32.4137H101.676V32.3091L101.503 32.1897L101.468 32.1017L101.123 32.1731L101.071 32.1349L100.88 32.1548L100.777 32.1183L100.484 31.8612V31.6886H100.293L100.086 31.8446L99.9659 31.8944L99.7931 31.8778L99.7216 31.7052L99.7931 31.6886L99.7582 31.5144L99.828 30.9802L99.9294 31.0499L99.9826 31.0333L100.036 30.9636L100.017 30.8757L100.19 30.7065L100.135 30.5157L100.119 30.4111L100.036 30.222L100.155 30.3099L100.19 30.4642L100.224 30.6882L100.086 30.8591L100.069 31.0333L99.9659 31.2042L99.9111 31.2407L99.8612 31.4116L99.8945 31.6024L100.052 31.7766L100.19 31.5858L100.207 31.4647L100.381 31.395L100.484 31.5858L100.622 31.7583L100.814 31.8778V31.7052L100.847 31.6024L100.915 31.7766L101.088 31.9491L101.279 31.8778L101.452 31.8944L101.605 32.0686L101.659 32.0337L101.851 32.0503L102.02 32.1897L102.075 32.0337L101.851 31.6886L101.676 31.619L101.485 31.4647L101.227 31.3286L101.106 31.1544L100.985 30.7927V30.6882L101.038 30.8591L101.227 31.2241L101.417 31.3452L101.588 31.395L101.676 31.5144L101.779 31.3452L101.435 31.0001L101.33 30.6019L101.227 30.4277L101.279 30.2568L101.209 30.086L101.227 29.7575L101.088 29.6529L101.123 29.6181L101.314 29.6529L101.38 29.6363L101.209 29.5335L101.244 29.3427L100.814 29.0855L101.001 29.0308L101.055 29.0673H101.227L101.055 28.9113L101.227 28.9445L101.244 28.7222L101.209 28.616L101.262 28.5148L101.417 28.7039V28.4285L101.485 28.324L101.503 28.4982L101.676 28.4468L101.812 28.2742L101.693 28.0834L101.709 27.9789L101.884 27.9457L101.987 27.8926L101.95 28.0668L102.125 27.9291L102.175 27.9955L101.934 28.3588L102.175 28.3754L102.004 28.4634L101.832 28.4982L101.676 28.6707L101.588 29.205L101.709 29.3958L101.779 29.2216L101.851 29.2382V29.4124L101.884 29.4804L101.693 29.6363L101.538 29.6695V30.0329L101.571 29.8587L101.729 29.7575L101.779 29.6878L101.9 29.8587L102.075 29.8786L101.95 30.0329L102.038 30.2054L101.867 30.066L101.693 30.1374L101.659 30.3265L101.744 30.4991L101.779 30.3099L101.95 30.2734L102.055 30.3431L102.125 30.5157L102.349 30.5853L102.524 30.4991L102.401 30.6683L101.95 30.6351L101.9 30.8259L102.092 30.723L102.004 31.0665V31.2573L102.175 31.4481L102.125 31.2739L102.299 31.3618L102.471 31.4978L102.625 31.5692L102.574 31.3784L102.645 31.2042V31.3784L102.73 31.4647L102.886 31.1013V31.4481L103.006 31.4978L102.853 31.6886L102.886 31.8612L103.059 31.7583L103.127 31.8778L103.3 31.8097L103.23 31.9823L103.11 32.1731V32.2925L103.456 32.1731H103.611L103.456 32.3423L103.627 32.4634L103.594 32.6542H103.42L103.403 33.0192L103.265 33.3262L103.248 33.6895L103.283 33.8803L103.23 33.9301L103.248 34.2918L103.436 34.5522L103.594 34.2088L103.561 33.8803L103.594 33.6895L103.68 33.517L103.715 33.3444L103.887 33.4655L103.906 33.4489L103.956 33.2598L103.94 32.913L104.01 32.5514L104.131 32.2925L104.114 32.1183L104.164 31.8612L104.147 31.6886L104.284 31.5144L104.372 31.1544L104.457 31.2042L104.545 30.8425L104.372 30.6882L104.457 30.6185L104.491 30.5505L104.545 30.5339L104.58 30.723L104.596 30.5505V30.5339L104.475 30.1706L104.284 30.2054L104.199 30.2568L104.355 30.066L104.267 30.0495V29.8786L104.339 29.7044L104.267 29.5998L104.076 29.6181L103.732 29.3427L103.661 29.1685L103.473 29.0142L103.37 28.7388L103.353 28.5496L103.23 28.3754L103.059 28.241L102.903 28.0668L102.798 27.8926L102.816 27.7218L102.678 27.5475L102.765 27.4281L102.833 27.239L102.853 27.0664L102.938 26.9785L103.11 26.7877L103.283 26.7379L103.456 26.582V26.4111L103.594 26.2551L103.508 26.4459V26.6185L103.318 26.7545C102.989 26.9121 102.866 27.0332 102.853 27.4281L102.798 27.5475L102.781 27.6006L102.886 27.7715L102.903 27.7881L102.869 27.876L103.212 28.1697L103.403 28.2211L103.577 28.3074L103.887 28.5496L104.059 28.4634H104.423L104.491 28.6542L104.423 28.9445L104.44 29.1353L104.613 29.1187L104.718 28.981L104.751 28.8068L104.872 28.616L104.944 28.2576L105.027 28.0834L104.944 28.0502L104.96 27.9623L105.096 27.7881L105.268 27.7715L105.185 27.6189L105.304 27.4447L105.234 27.2738L105.409 27.2025L105.442 26.9951L105.563 26.8076L105.633 26.635L105.547 26.4625L105.6 26.2883L105.563 26.0145L105.492 25.8403L105.563 25.8072L105.6 25.633L105.667 25.7906L105.65 25.9615L105.701 26.3231L105.72 26.134L105.683 25.5998L105.633 25.4272V24.8748L105.58 24.6508L105.218 24.5993L105.045 24.6508L104.909 24.6176V24.1149L105.01 23.9075L105.063 23.9258L105.234 23.7549L105.218 23.6338L105.288 23.3749L105.304 23.1841L105.288 22.9933L105.166 22.562L104.993 22.3911L104.96 22.2169L104.977 22.1671L105.027 22.338L105.218 22.4608L105.304 22.7362L105.322 23.0116L105.339 23.2887L105.254 23.6669H105.322L105.409 23.4761L105.6 23.4081L105.617 23.2007L105.808 22.8225L105.979 22.7528L106.306 22.3911L106.496 22.2882L106.635 22.0974L106.737 22.1671L107.016 21.8038L107.207 21.7689L107.377 21.6677H107.568L107.656 21.5798L108.209 21.4404V21.3392L108.138 21.1999L108.226 21.2347V21.3226L108.415 21.3392L108.776 21.1152L109.142 20.9941L109.243 21.0273L109.226 20.941L109.208 20.8747L109.263 20.7337L109.226 20.5429L108.829 19.1293L109.521 18.9219L109.695 19.043L109.763 19.2173L109.866 19.2703L109.885 19.408L110.021 19.5441L110.16 19.632L110.3 19.5275L110.333 19.3533V19.5441L110.282 19.7166L110.436 19.7681L110.524 20.0285L110.541 20.1314L110.661 19.9406L110.832 19.9572L110.94 19.6652L111.111 19.5275L111.198 19.3533L111.37 19.2338V19.408L111.457 19.7681L111.646 19.7L111.819 19.5789L111.869 19.3915L111.94 19.4246L112.476 19.1293L112.683 19.063L112.788 18.8722L112.683 18.5271L112.442 18.2002L112.251 18.0609L112.077 18.0094L111.887 18.0443L112.077 18.0775L112.268 18.2002L112.338 18.3894L112.492 18.3728L112.58 18.6648L112.422 18.839L112.06 19.1127L111.887 19.063L111.698 19.0795L111.595 19.0099L111.422 18.6648L111.247 18.6316L111.076 18.5437V18.3728L111.247 18.4574L111.095 18.2682L110.749 17.9414L110.558 17.9049L110.367 18.0094L110.195 17.9049L110.074 17.734H110.265L110.179 17.5598L110.333 17.3723L110.3 17.301L110.383 17.1301L110.732 16.8862L110.765 16.6987L110.591 16.7336L110.627 16.7668L110.453 16.8016L110.282 16.6623L110.245 16.4914L110.109 16.4051L110.142 16.2325V16.0583L110.229 15.6983L110.142 15.6469L110.3 15.4743L110.367 15.2835L110.317 15.0944V14.9219L110.488 14.7493L110.627 14.4208L110.541 14.2483L110.782 13.8866L110.661 13.8352L110.644 13.6626L110.699 13.4718L110.973 13.0935L111.058 13.4204L111.076 13.2495L111.095 13.4204L111.181 13.2495L111.232 13.0587L111.282 13.0753L111.422 13.4386L111.472 13.2495L111.232 12.697L111.164 12.765L111.181 12.5942L111.266 12.42L111.247 12.6108L111.507 13.1964L111.578 13.0255L111.439 12.8347L111.49 12.5942L111.562 12.5577L111.663 12.7302L111.611 12.9044L111.803 12.989L111.714 12.6439L111.733 12.4565L111.768 12.42L111.751 12.5942L111.803 12.7816L111.94 12.8862L111.974 12.7136L111.957 12.5228L112.027 12.3519L112.218 12.3685L112.406 12.4365L112.476 12.2657L112.614 12.0583L112.527 11.8841L112.564 11.6949L112.544 11.5058L112.597 11.3333L112.614 11.1441L112.509 10.9732L112.771 10.8156L112.717 10.5236L112.856 10.6945L112.821 10.8687L112.996 10.8322L112.978 11.023L112.891 11.1441H113.253L113.513 11.247L113.41 11.0562L113.375 10.8853L113.426 10.6945L113.41 10.5236L113.566 10.6945L113.737 10.5402L113.704 10.3677L114.169 10.4871L114.29 10.6779L114.359 10.5037L114.29 10.3328L114.394 10.2465L114.462 10.4207L114.482 10.23L114.531 10.4207L114.566 10.23L114.515 10.0557L114.62 9.85002L114.772 10.0392L114.861 10.0557L114.895 9.8832H115.068V9.71398L115.223 9.62605H115.241V9.50659L115.414 9.53977L115.293 9.34898L115.569 9.38548L115.743 9.2627L115.931 8.91761L115.951 8.74673L115.76 8.58911L115.81 8.6588L115.673 8.833L115.499 8.67705L115.726 8.38339L115.394 8.0383L115.377 8.02005L115.361 8.00345L115.241 7.97027H115.103L114.964 8.12623L114.772 7.97027L114.669 7.77948V7.59034L114.531 7.41614L114.482 7.24691L114.531 7.05611L114.412 6.96818L114.237 7.03952H114.049L113.858 6.91841L113.687 6.935L113.634 6.7608L113.651 6.6065L113.546 6.43561V6.26141L113.322 5.65916L112.544 3.29495L112.389 3.26011L112.027 3.0013L111.663 2.84534L111.472 2.79557L111.266 2.88018L111.128 3.07098L110.957 3.15725L110.799 3.34805L110.627 3.41607L110.453 3.58861L110.245 3.53718L110.037 3.38123L109.936 3.01955L109.763 3.0013L109.59 3.03614L108.759 5.48495L108.881 6.22823L108.726 6.48705L108.64 7.02127L108.743 7.19216V7.55716L108.897 7.72805L108.691 8.10798L108.776 8.24402L108.484 8.60736L108.381 8.77991L108.347 8.9707L108.311 9.00389L108.502 9.36889L108.327 9.2992L108.277 9.3158L108.243 9.48668L108.277 9.65923L108.105 9.73057L107.932 9.64264L107.794 9.81518L107.623 10.006L107.448 9.95455L107.274 10.0906V10.2631L107.187 10.6248L107.224 10.799L107.207 10.8156L104.355 11.5589L103.661 11.7663L102.299 12.1445L101.038 12.42H100.863L100.501 12.6108L99.8612 13.3009L99.2895 14.2483L99.3078 14.4722L99.0319 14.8339L98.9621 14.9733L98.7727 15.1292L98.4452 15.4743L98.4087 15.6469L98.5832 15.7846L98.6164 15.8875L98.5832 15.6983L98.7727 15.6104L98.7909 15.8709L99.0319 15.7514L98.9272 15.9223L98.894 16.0932L98.7195 16.1629L98.894 16.5262L98.9106 16.6457L98.9821 16.8199L98.9987 17.0073L98.8773 17.1815H98.6862L98.4951 17.3889L98.2707 17.5598L98.1677 17.7506L98.0131 17.9232L97.8386 18.0277L97.7206 18.2002L97.581 18.1488L97.217 18.1654L96.8547 18.25L96.4924 18.4574L96.0237 18.2682L95.2991 18.3014C94.7307 18.333 94.174 18.6001 93.692 18.8722L93.5009 18.9584V18.975L93.6056 19.3035L93.589 19.4412L93.9679 19.5109L93.9862 19.5789L93.8997 19.7L94.1241 20.0966V20.2857L93.8133 20.6308L93.7252 20.8216L93.589 20.9941L93.3629 21.2181L93.0688 21.5798L92.6715 21.9763L92.6051 22.0278L91.9985 22.5122L91.9818 22.4608L91.8106 22.6483L91.445 22.9436L91.204 23.0813L90.1503 23.7001L89.7864 23.9622L89.6135 24.0983L89.459 24.2692L89.2695 24.5479L88.9221 24.8582L88.5598 24.9079L88.3853 24.8748L88.0064 25.0473L87.8352 25.1684L87.6441 25.2364L87.4729 25.3758L87.2984 25.341L87.0906 25.2364H86.7283L86.5555 25.3924L86.3843 25.3758L86.5555 25.2033L86.833 25.1336L86.6752 24.9627L86.504 25.1336L86.3128 25.0987L86.1417 24.9627L85.8807 24.9079L85.7079 24.8233L85.329 24.7719L85.2758 24.7022L85.3971 24.3405L85.7079 23.8046L85.7262 23.2704L85.7794 23.0979L85.8292 23.0116L85.8475 22.9767L86.0536 22.8225L86.1932 22.6483L86.1749 22.2716L86.2962 22.0974L86.3295 21.9431L86.5206 21.8386L86.6087 21.9597L86.6585 22.1323L86.6253 22.1837L86.745 22.1323L86.8497 21.9597L86.8829 21.5798L86.833 21.4072L86.8663 21.0456L86.9161 20.9775L86.8995 20.8382H86.8829L86.7117 20.5429L86.6253 20.3388L86.5206 19.9572L86.4175 19.5988L86.3128 19.4246L86.1217 18.7145L85.9156 18.3529L85.7428 18.182L85.5716 18.1123L85.3805 18.0775L85.1013 18.2848L84.9317 18.3529L84.7406 18.5271L84.5678 18.5968L84.6027 18.7676L84.5179 19.0795L84.3434 19.2173L84.257 19.3915L84.119 19.5789L83.9479 19.5109L83.7567 19.4927L83.5324 19.2869L83.5157 19.0099L83.549 18.6482L83.7401 18.5088L83.9279 18.474L84.1024 18.2002L84.119 17.8369L84.1722 17.6627L84.3434 17.5598L84.5179 17.3889L84.4464 16.8199L84.4647 16.4565L84.3783 16.0932L84.2902 15.9223L84.1024 15.8012L83.9977 15.627L84.0659 15.403L84.2387 15.3698V15.1973L84.1373 15.1292L83.9977 14.9567L83.9479 14.7825L83.7567 14.663H83.5822L83.3944 14.5751L83.0122 14.4722L82.8393 14.3876H82.6499L82.4787 14.3345L82.374 14.1637L82.1995 14.0608L82.0283 14.006L81.8721 14.0409H81.7009L81.5264 13.9032L81.3535 13.8534L81.1624 13.7489L81.0095 13.8866L80.835 13.9729L80.7319 14.1637L80.5591 14.3694V14.5419L80.6472 14.7327L80.8184 14.8339L80.835 14.9899H80.594L80.4062 15.0944L80.2317 15.2321L80.1104 15.403L80.1951 15.9555V16.1629L80.1602 16.3371L80.1104 16.5262L79.9525 16.6987L80.0073 16.5262V16.1629L79.9359 16.1811L79.886 16.5445L79.7647 16.717L79.7281 16.5445L79.7996 16.3703L79.7115 16.1811L79.7647 16.0583L79.8162 15.5606L79.6433 15.6983L79.5752 15.8709L79.4539 16.0417L79.419 16.216L79.2794 16.3885L79.1082 16.3371L78.8822 16.6623L78.8988 16.8365L78.7459 17.0073L78.5714 17.1484L78.6744 17.4918L78.6412 17.8037L78.6744 17.9746L78.6578 18.1654L78.4501 18.698L78.2955 18.8888L78.2789 19.063L78.3819 19.2338L78.5215 19.7681L78.4002 19.9572L78.3304 20.1314L78.3636 20.3023L78.8655 21.253L79.0384 21.1833L78.9337 21.3558L79.178 21.9083L79.2794 22.6317V23.1675L79.178 23.8212L79.1082 24.012L78.9171 24.3737L78.7625 24.9079L78.6744 25.0805L78.5548 25.2713L78.3819 25.4438L78.3138 25.4953L77.9498 25.7557L77.5875 25.9432L77.3964 25.998L77.1554 25.9432L76.9144 25.774L76.7233 25.4953L76.6717 25.321L76.5687 25.1336L76.5155 24.8582L76.3443 24.7022L76.1532 24.3571L76.1183 24.1862L76.1366 23.8212L76.1183 23.6503L76.0668 23.2704L76.1017 23.0979V22.9104L76.0485 22.7362L75.9288 22.562V22.3911L75.7726 22.2003L75.8241 22.0278L75.7028 21.6312L75.7377 21.2878L75.8607 20.9079L75.8441 20.7337L75.8773 20.5429L75.9787 20.3554V20.1646L75.8939 19.7863V19.6154L75.9787 19.2504L76.0668 19.063L76.2396 18.9219L76.2563 18.839L76.1183 18.474L76.1698 18.2848L76.2031 17.9414L76.3942 17.4221L76.4274 17.2512L76.3443 17.0604L76.1864 16.8862L75.997 17.0256L75.8241 17.0936L75.7211 17.2678L75.6862 17.4387L75.5649 17.6295L75.392 17.7672L75.3073 17.9414L75.1328 17.9232L75.0995 17.7506L75.1494 17.5266L75.2906 17.165L75.392 16.9742L75.4086 16.8016L75.5981 16.7336L75.7726 16.6125V16.4914L75.8241 16.3205L75.8059 16.1463L75.997 15.851L76.2563 15.3184L76.361 14.9567L76.464 14.7659L76.6186 14.5751L76.69 14.2317L76.8429 13.9729L76.7765 14.1438L76.8429 14.3345L76.9476 14.5087L77.1221 14.3511L77.1554 14.2483L77.3299 14.0608L77.5011 13.9895L77.6723 14.0243L77.6556 14.2134L77.4828 14.3511L77.3964 14.5751L77.5709 14.5934L77.6889 14.4042L77.8634 14.2317L78.0528 14.094L78.0711 13.8866L78.1742 13.714L78.3138 13.6278L78.5032 13.5913L78.6744 13.6112L79.0218 13.5067H79.2112L79.3857 13.4038L79.5387 13.1267L79.886 13.0753L80.0771 13.1267L80.2483 13.1101L80.6106 13.2312L80.9929 13.5415L81.1624 13.6112V13.2827L81.2172 13.0935L81.3884 13.0587L81.5596 13.1616L81.7341 13.0935L82.5801 13.1101L82.7546 13.0587L82.6499 12.8862L82.4621 12.8015L82.4421 12.6273L82.2709 12.5394H82.2177L82.0466 12.42L82.0283 12.2292L81.9751 12.0583L81.8721 11.8675L81.7175 11.6949H81.6311L81.5762 11.7298L81.5596 11.7464L81.4582 11.9023L81.2854 11.9886L81.1624 11.8177L80.8018 11.9537L80.4561 11.9023L80.3696 11.7464L80.3513 11.1093L80.0073 11.1607L79.8328 11.2304L79.4871 11.4378L79.3143 11.4892L78.588 11.539L78.4168 11.6103L78.106 11.6783L77.9348 11.8509L77.5709 12.0749L77.2933 12.4365L77.1388 12.3685L76.9643 12.3868L76.7765 12.3519L76.6019 12.196L76.1864 12.3519L76.0136 12.3685L75.8241 12.2823L75.7211 12.0915L75.392 11.7464L75.2906 11.5589L75.1161 11.5224L74.9416 11.3681L74.7522 11.3333H74.3882L74.217 11.4029L74.0974 11.5755L74.0109 11.6269L74.1638 11.2636L73.9926 11.4378L73.8215 11.539L73.7666 11.7132L73.7001 11.7829L73.647 11.6103L73.6819 11.247L73.3894 10.8853L73.268 10.8156L73.1467 10.6447L72.7661 11.0744L72.6614 11.247L72.2991 11.4029L72.1096 11.5921L71.9368 11.7132L71.7656 11.7829L71.5745 11.7995L71.4 11.8509H71.2122L71.021 11.9537L70.6936 12.3154L70.1585 12.5577L69.984 12.6638L69.6732 12.6273L69.5003 12.5394L69.3109 12.5062L69.1364 12.6108H68.9469L69.015 12.4896L69.0682 12.3154V12.1445L69.1879 11.972L69.2228 11.7829L69.0317 11.6435L68.809 11.7464L68.6361 11.8841L68.445 11.9886L68.2572 12.0417L67.9115 12.2491L67.2035 12.5062L67.029 12.5394L66.8379 12.5062L66.6667 12.332L66.7531 12.196L67.2883 11.7663L67.4611 11.6103L67.5641 11.471L67.7536 11.315L68.2206 10.7824L68.4101 10.4871L69.0848 9.83177L69.6383 9.50659L69.984 9.34898L70.1751 9.2992L70.7618 8.9873L70.9346 8.88443L71.1075 8.71189L71.2786 8.58911H70.8465L70.6571 8.67705L70.4875 8.58911L70.4676 8.53934L70.2964 8.3668L69.9308 8.40164L69.743 8.45141L69.3773 8.43482L69.1879 8.48791H69.015L68.9635 8.31536L68.8605 8.26393L68.8771 8.14282L68.6893 8.15941C68.1442 8.39998 68.0245 9.06693 67.2367 8.53934L67.2035 8.40164L66.6833 8.176L66.6135 8.00345L66.424 7.95202L66.1465 7.98686L66.095 8.26393L65.9055 8.176L65.8025 8.05489L65.7858 7.88566L65.613 7.72805L65.4219 7.74464L65.4717 7.55716L64.7488 7.2635H64.3499L64.1787 7.28009L64.1272 7.29668L64.074 7.32986L63.9527 7.34977L63.848 7.52066L63.3992 7.62352L63.2081 7.52066L63.1583 7.34977L62.3805 7.2635L62.2076 7.14239H61.847L61.6725 7.0727L61.5146 6.90016L61.5345 6.643L61.3766 6.1237L61.2736 5.57123L61.119 5.40034L60.7733 5.36384L60.652 5.31407L60.6703 6.17514L60.6354 6.34768L59.2177 6.38252H55.1575L51.4081 6.29625L47.0188 6.10711L44.0988 5.91632L42.7509 5.81345C36.6747 5.30909 30.5819 4.52102 24.5905 3.41607L21.8765 2.88018L21.461 2.79557L20.0617 2.50025L18.2983 2.14023L15.0143 1.38036L12.1806 0.673591L9.67766 0L9.53639 0.121114ZM8.60403 9.43525L8.77521 9.40207L8.96634 9.2992L8.77854 9.40207L8.60403 9.43525L8.24172 9.47009L8.60403 9.43525ZM14.6004 9.83177L14.411 9.93629L14.6004 9.83177ZM12.3717 9.90145L12.734 9.86661L12.3717 9.90145L12.026 9.98773L12.3717 9.90145ZM106.878 12.8513L106.91 12.843C106.838 12.9061 106.765 12.9708 106.704 13.0255L106.878 12.8513ZM73.7666 13.9198L73.5971 13.9729L73.2315 13.9198L73.5971 13.9729L73.7666 13.9198ZM58.0593 14.6979L58.0693 14.6017C58.0759 14.6647 58.0759 14.7244 58.0759 14.7825L58.0593 14.6979ZM68.2572 19.924L68.4284 20.0451L68.558 20.1729C68.4849 20.1049 68.4018 20.0319 68.2572 19.924ZM68.7159 20.3852L68.7558 20.4433L68.7824 20.6192C68.7657 20.5263 68.7475 20.4516 68.7159 20.3852ZM103.23 22.6151L103.162 22.7876L103.23 22.6151ZM4.05854 30.1025L4.21642 30.2568L4.33775 30.4277V30.4808L4.05854 30.1025Z" fill="white"/>
</mask>
<g mask="url(#mask0)">
<path fill-rule="evenodd" clip-rule="evenodd" d="M52.4187 5.01382H116.147V-0.769775H52.4187V5.01382Z" fill="#93A8C1"/>
<path fill-rule="evenodd" clip-rule="evenodd" d="M52.4187 16.581H116.147V10.7974H52.4187V16.581Z" fill="#93A8C1"/>
<path fill-rule="evenodd" clip-rule="evenodd" d="M52.4187 28.1481H116.147V22.3645H52.4187V28.1481Z" fill="#93A8C1"/>
<path fill-rule="evenodd" clip-rule="evenodd" d="M52.4187 39.7153H116.147V33.9301H52.4187V39.7153Z" fill="#93A8C1"/>
<path fill-rule="evenodd" clip-rule="evenodd" d="M0.275879 51.2824H116.147V45.4972H0.275879V51.2824Z" fill="#93A8C1"/>
<path fill-rule="evenodd" clip-rule="evenodd" d="M0.275879 62.848H116.147V57.0645H0.275879V62.848Z" fill="#93A8C1"/>
<path fill-rule="evenodd" clip-rule="evenodd" d="M0.275879 74.4152H116.147V68.6316H0.275879V74.4152Z" fill="#93A8C1"/>
<path fill-rule="evenodd" clip-rule="evenodd" d="M47.2748 6.28302L47.3978 7.00307L46.7513 6.66295L46.1031 7.00307L46.2277 6.28302L45.7059 5.77202L46.4288 5.6675L46.7513 5.01216L47.0753 5.6675L47.7983 5.77202L47.2748 6.28302ZM47.2748 15.0762L47.3978 15.7946L46.7513 15.4545L46.1031 15.7946L46.2277 15.0762L45.7059 14.5652L46.4288 14.4607L46.7513 13.8053L47.0753 14.4607L47.7983 14.5652L47.2748 15.0762ZM47.2748 23.8677L47.3978 24.5861L46.7513 24.246L46.1031 24.5861L46.2277 23.8677L45.7059 23.3584L46.4288 23.2539L46.7513 22.5985L47.0753 23.2539L47.7983 23.3584L47.2748 23.8677ZM47.3978 33.3793L46.7513 33.0392L46.1031 33.3793L46.2277 32.6592L45.7059 32.1499L46.4288 32.0454L46.7513 31.3917L47.0753 32.0454L47.7983 32.1499L47.2748 32.6592L47.3978 33.3793ZM43.9724 10.678L44.0954 11.398L43.4489 11.0579L42.8008 11.398L42.9237 10.678L42.4019 10.1703L43.1248 10.0657L43.4489 9.41041L43.773 10.0657L44.496 10.1703L43.9724 10.678ZM43.9724 19.4711L44.0954 20.1912L43.4489 19.8511L42.8008 20.1912L42.9237 19.4711L42.4019 18.9618L43.1248 18.8556L43.4489 18.2036L43.773 18.8556L44.496 18.9618L43.9724 19.4711ZM44.0954 28.9827L43.4489 28.6426L42.8008 28.9827L42.9237 28.2643L42.4019 27.7533L43.1248 27.6488L43.4489 26.9935L43.773 27.6488L44.496 27.7533L43.9724 28.2643L44.0954 28.9827ZM40.6701 6.28302L40.7931 7.00307L40.1449 6.66295L39.4984 7.00307L39.6214 6.28302L39.0979 5.77202L39.8225 5.6675L40.1449 5.01216L40.4707 5.6675L41.1936 5.77202L40.6701 6.28302ZM40.6701 15.0762L40.7931 15.7946L40.1449 15.4545L39.4984 15.7946L39.6214 15.0762L39.0979 14.5652L39.8225 14.4607L40.1449 13.8053L40.4707 14.4607L41.1936 14.5652L40.6701 15.0762ZM40.6701 23.8677L40.7931 24.5861L40.1449 24.246L39.4984 24.5861L39.6214 23.8677L39.0979 23.3584L39.8225 23.2539L40.1449 22.5985L40.4707 23.2539L41.1936 23.3584L40.6701 23.8677ZM40.7931 33.3793L40.1449 33.0392L39.4984 33.3793L39.6214 32.6592L39.0979 32.1499L39.8225 32.0454L40.1449 31.3917L40.4707 32.0454L41.1936 32.1499L40.6701 32.6592L40.7931 33.3793ZM37.3661 10.678L37.4908 11.398L36.8426 11.0579L36.1944 11.398L36.3191 10.678L35.7955 10.1703L36.5202 10.0657L36.8426 9.41041L37.1667 10.0657L37.8913 10.1703L37.3661 10.678ZM37.3661 19.4711L37.4908 20.1912L36.8426 19.8511L36.1944 20.1912L36.3191 19.4711L35.7955 18.9618L36.5202 18.8556L36.8426 18.2036L37.1667 18.8556L37.8913 18.9618L37.3661 19.4711ZM37.4908 28.9827L36.8426 28.6426L36.1944 28.9827L36.3191 28.2643L35.7955 27.7533L36.5202 27.6488L36.8426 26.9935L37.1667 27.6488L37.8913 27.7533L37.3661 28.2643L37.4908 28.9827ZM34.0638 6.28302L34.1868 7.00307L33.5402 6.66295L32.8921 7.00307L33.0167 6.28302L32.4949 5.77202L33.2178 5.6675L33.5402 5.01216L33.8627 5.6675L34.5873 5.77202L34.0638 6.28302ZM34.0638 15.0762L34.1868 15.7946L33.5402 15.4545L32.8921 15.7946L33.0167 15.0762L32.4949 14.5652L33.2178 14.4607L33.5402 13.8053L33.8627 14.4607L34.5873 14.5652L34.0638 15.0762ZM34.0638 23.8677L34.1868 24.5861L33.5402 24.246L32.8921 24.5861L33.0167 23.8677L32.4949 23.3584L33.2178 23.2539L33.5402 22.5985L33.8627 23.2539L34.5873 23.3584L34.0638 23.8677ZM34.1868 33.3793L33.5402 33.0392L32.8921 33.3793L33.0167 32.6592L32.4949 32.1499L33.2178 32.0454L33.5402 31.3917L33.8627 32.0454L34.5873 32.1499L34.0638 32.6592L34.1868 33.3793ZM30.7614 10.678L30.8844 11.398L30.2379 11.0579L29.5897 11.398L29.7127 10.678L29.1892 10.1703L29.9138 10.0657L30.2379 9.41041L30.5603 10.0657L31.2849 10.1703L30.7614 10.678ZM30.7614 19.4711L30.8844 20.1912L30.2379 19.8511L29.5897 20.1912L29.7127 19.4711L29.1892 18.9618L29.9138 18.8556L30.2379 18.2036L30.5603 18.8556L31.2849 18.9618L30.7614 19.4711ZM30.8844 28.9827L30.2379 28.6426L29.5897 28.9827L29.7127 28.2643L29.1892 27.7533L29.9138 27.6488L30.2379 26.9935L30.5603 27.6488L31.2849 27.7533L30.7614 28.2643L30.8844 28.9827ZM27.4591 6.28302L27.5821 7.00307L26.9339 6.66295L26.2874 7.00307L26.4104 6.28302L25.8869 5.77202L26.6115 5.6675L26.9339 5.01216L27.2563 5.6675L27.9826 5.77202L27.4591 6.28302ZM27.4591 15.0762L27.5821 15.7946L26.9339 15.4545L26.2874 15.7946L26.4104 15.0762L25.8869 14.5652L26.6115 14.4607L26.9339 13.8053L27.2563 14.4607L27.9826 14.5652L27.4591 15.0762ZM27.4591 23.8677L27.5821 24.5861L26.9339 24.246L26.2874 24.5861L26.4104 23.8677L25.8869 23.3584L26.6115 23.2539L26.9339 22.5985L27.2563 23.2539L27.9826 23.3584L27.4591 23.8677ZM27.5821 33.3793L26.9339 33.0392L26.2874 33.3793L26.4104 32.6592L25.8869 32.1499L26.6115 32.0454L26.9339 31.3917L27.2563 32.0454L27.9826 32.1499L27.4591 32.6592L27.5821 33.3793ZM24.1551 10.678L24.2797 11.398L23.6316 11.0579L22.9834 11.398L23.108 10.678L22.5845 10.1703L23.3075 10.0657L23.6316 9.41041L23.954 10.0657L24.6803 10.1703L24.1551 10.678ZM24.1551 19.4711L24.2797 20.1912L23.6316 19.8511L22.9834 20.1912L23.108 19.4711L22.5845 18.9618L23.3075 18.8556L23.6316 18.2036L23.954 18.8556L24.6803 18.9618L24.1551 19.4711ZM24.2797 28.9827L23.6316 28.6426L22.9834 28.9827L23.108 28.2643L22.5845 27.7533L23.3075 27.6488L23.6316 26.9935L23.954 27.6488L24.6803 27.7533L24.1551 28.2643L24.2797 28.9827ZM20.8528 6.28302L20.9757 7.00307L20.3292 6.66295L19.6811 7.00307L19.8057 6.28302L19.2805 5.77202L20.0068 5.6675L20.3292 5.01216L20.6517 5.6675L21.3763 5.77202L20.8528 6.28302ZM20.8528 15.0762L20.9757 15.7946L20.3292 15.4545L19.6811 15.7946L19.8057 15.0762L19.2805 14.5652L20.0068 14.4607L20.3292 13.8053L20.6517 14.4607L21.3763 14.5652L20.8528 15.0762ZM20.8528 23.8677L20.9757 24.5861L20.3292 24.246L19.6811 24.5861L19.8057 23.8677L19.2805 23.3584L20.0068 23.2539L20.3292 22.5985L20.6517 23.2539L21.3763 23.3584L20.8528 23.8677ZM20.9757 33.3793L20.3292 33.0392L19.6811 33.3793L19.8057 32.6592L19.2805 32.1499L20.0068 32.0454L20.3292 31.3917L20.6517 32.0454L21.3763 32.1499L20.8528 32.6592L20.9757 33.3793ZM17.5504 10.678L17.6734 11.398L17.0269 11.0579L16.3787 11.398L16.5017 10.678L15.9782 10.1703L16.7011 10.0657L17.0269 9.41041L17.3493 10.0657L18.0723 10.1703L17.5504 10.678ZM17.5504 19.4711L17.6734 20.1912L17.0269 19.8511L16.3787 20.1912L16.5017 19.4711L15.9782 18.9618L16.7011 18.8556L17.0269 18.2036L17.3493 18.8556L18.0723 18.9618L17.5504 19.4711ZM17.6734 28.9827L17.0269 28.6426L16.3787 28.9827L16.5017 28.2643L15.9782 27.7533L16.7011 27.6488L17.0269 26.9935L17.3493 27.6488L18.0723 27.7533L17.5504 28.2643L17.6734 28.9827ZM14.2481 6.28302L14.3711 7.00307L13.7229 6.66295L13.0764 7.00307L13.1994 6.28302L12.6759 5.77202L13.3988 5.6675L13.7229 5.01216L14.0453 5.6675L14.7716 5.77202L14.2481 6.28302ZM14.2481 15.0762L14.3711 15.7946L13.7229 15.4545L13.0764 15.7946L13.1994 15.0762L12.6759 14.5652L13.3988 14.4607L13.7229 13.8053L14.0453 14.4607L14.7716 14.5652L14.2481 15.0762ZM14.2481 23.8677L14.3711 24.5861L13.7229 24.246L13.0764 24.5861L13.1994 23.8677L12.6759 23.3584L13.3988 23.2539L13.7229 22.5985L14.0453 23.2539L14.7716 23.3584L14.2481 23.8677ZM14.3711 33.3793L13.7229 33.0392L13.0764 33.3793L13.1994 32.6592L12.6759 32.1499L13.3988 32.0454L13.7229 31.3917L14.0453 32.0454L14.7716 32.1499L14.2481 32.6592L14.3711 33.3793ZM10.9441 10.678L11.0687 11.398L10.4206 11.0579L9.77239 11.398L9.89703 10.678L9.37351 10.1703L10.0981 10.0657L10.4206 9.41041L10.743 10.0657L11.4659 10.1703L10.9441 10.678ZM10.9441 19.4711L11.0687 20.1912L10.4206 19.8511L9.77239 20.1912L9.89703 19.4711L9.37351 18.9618L10.0981 18.8556L10.4206 18.2036L10.743 18.8556L11.4659 18.9618L10.9441 19.4711ZM11.0687 28.9827L10.4206 28.6426L9.77239 28.9827L9.89703 28.2643L9.37351 27.7533L10.0981 27.6488L10.4206 26.9935L10.743 27.6488L11.4659 27.7533L10.9441 28.2643L11.0687 28.9827ZM7.64174 6.28302L7.76306 7.00307L7.11822 6.66295L6.47005 7.00307L6.5947 6.28302L6.06951 5.77202L6.79247 5.6675L7.11822 5.01216L7.44064 5.6675L8.1636 5.77202L7.64174 6.28302ZM7.64174 15.0762L7.76306 15.7946L7.11822 15.4545L6.47005 15.7946L6.5947 15.0762L6.06951 14.5652L6.79247 14.4607L7.11822 13.8053L7.44064 14.4607L8.1636 14.5652L7.64174 15.0762ZM7.64174 23.8677L7.76306 24.5861L7.11822 24.246L6.47005 24.5861L6.5947 23.8677L6.06951 23.3584L6.79247 23.2539L7.11822 22.5985L7.44064 23.2539L8.1636 23.3584L7.64174 23.8677ZM7.76306 33.3793L7.11822 33.0392L6.47005 33.3793L6.5947 32.6592L6.06951 32.1499L6.79247 32.0454L7.11822 31.3917L7.44064 32.0454L8.1636 32.1499L7.64174 32.6592L7.76306 33.3793ZM0.275879 39.7154H52.4169V-0.769775H0.275879V39.7154Z" fill="#93A8C1"/>
</g>
<path fill-rule="evenodd" clip-rule="evenodd" d="M153.491 2.62012L153.802 13.4502H152.64C152.09 10.7333 150.742 8.54959 148.593 6.89588C146.446 5.24381 144.122 4.41613 141.624 4.41613C139.692 4.41613 138.164 4.85123 137.038 5.72144C135.912 6.59327 135.349 7.59433 135.349 8.72952C135.349 9.4476 135.548 10.0872 135.946 10.6466C136.493 11.3974 137.373 12.14 138.585 12.8744C139.475 13.4011 141.528 14.3368 144.747 15.678C149.252 17.546 152.289 19.3126 153.86 20.9729C155.412 22.6347 156.187 24.5354 156.187 26.6766C156.187 29.3919 154.933 31.7277 152.425 33.684C149.918 35.6403 146.734 36.6201 142.873 36.6201C141.661 36.6201 140.516 36.5154 139.438 36.3077C138.357 36.1 137.004 35.709 135.378 35.1333C134.469 34.8143 133.721 34.654 133.134 34.654C132.642 34.654 132.122 34.8143 131.572 35.1333C131.024 35.4539 130.579 35.9413 130.239 36.5956H129.187V24.3277H130.239C131.072 27.7774 132.674 30.4093 135.051 32.2233C137.425 34.0357 139.986 34.9419 142.731 34.9419C144.85 34.9419 146.54 34.4544 147.799 33.4812C149.056 32.5063 149.687 31.3727 149.687 30.0789C149.687 29.3117 149.446 28.5691 148.962 27.8494C148.48 27.1313 147.747 26.4476 146.763 25.8015C145.778 25.1537 144.037 24.3114 141.538 23.2727C138.036 21.8202 135.519 20.5819 133.986 19.5596C132.452 18.5373 131.274 17.3955 130.451 16.1328C129.627 14.8716 129.216 13.4813 129.216 11.9633C129.216 9.37563 130.342 7.17232 132.595 5.35013C134.847 3.52958 137.687 2.62012 141.111 2.62012C142.362 2.62012 143.572 2.7477 144.747 3.00287C145.637 3.19425 146.719 3.5492 147.998 4.06936C149.275 4.58788 150.169 4.84796 150.679 4.84796C151.172 4.84796 151.561 4.72038 151.844 4.46357C152.129 4.2084 152.393 3.59337 152.64 2.62012H153.491" fill="#93A8C1"/>
<path fill-rule="evenodd" clip-rule="evenodd" d="M167.054 3.62012V31.8985C167.054 33.505 167.266 34.5318 167.692 34.977C168.117 35.4239 168.948 35.6781 170.187 35.7446V36.6201H156.187V35.7446C157.333 35.7113 158.182 35.4189 158.736 34.8674C159.107 34.4952 159.291 33.505 159.291 31.8985V8.3401C159.291 6.75016 159.079 5.73339 158.654 5.28648C158.23 4.83957 157.407 4.58538 156.187 4.52059V3.62012H167.054" fill="#93A8C1"/>
<path fill-rule="evenodd" clip-rule="evenodd" d="M176.173 2.62012C177.375 2.62012 178.392 2.99135 179.223 3.73383C180.055 4.47798 180.472 5.37095 180.472 6.4161C180.472 7.46125 180.051 8.35256 179.21 9.08667C178.369 9.82079 177.357 10.1887 176.173 10.1887C174.992 10.1887 173.984 9.82079 173.152 9.08667C172.321 8.35256 171.904 7.46125 171.904 6.4161C171.904 5.37095 172.321 4.47798 173.152 3.73383C173.984 2.99135 174.992 2.62012 176.173 2.62012ZM180.055 13.7171V31.8676C180.055 33.4847 180.268 34.5181 180.692 34.9663C181.119 35.4161 181.95 35.672 183.187 35.7388V36.6201H169.187V35.7388C170.334 35.7054 171.183 35.4111 171.738 34.8559C172.108 34.4813 172.293 33.4847 172.293 31.8676V18.493C172.293 16.876 172.08 15.8442 171.656 15.3944C171.23 14.9445 170.408 14.6887 169.187 14.6235V13.7171H180.055V13.7171Z" fill="#93A8C1"/>
<path fill-rule="evenodd" clip-rule="evenodd" d="M193.817 14.2902V17.2266C195.25 15.8896 196.575 14.9538 197.793 14.4206C199.012 13.8875 200.347 13.6201 201.798 13.6201C203.47 13.6201 204.875 13.956 206.01 14.6244C207.146 15.2929 208.019 16.3119 208.633 17.6814C210.121 16.2483 211.548 15.213 212.916 14.5755C214.283 13.9397 215.711 13.6201 217.2 13.6201C219.003 13.6201 220.439 13.9755 221.509 14.6831C222.579 15.3924 223.323 16.2923 223.742 17.3831C224.161 18.4738 224.37 20.2118 224.37 22.6003V31.7485C224.37 33.4669 224.55 34.5348 224.913 34.9473C225.276 35.3615 226.034 35.6321 227.187 35.7609V36.6201H213.711V35.7609C214.772 35.681 215.553 35.3305 216.055 34.7093C216.39 34.2789 216.557 33.2925 216.557 31.7485V22.1471C216.557 20.1564 216.464 18.8912 216.279 18.3499C216.092 17.8086 215.798 17.4059 215.399 17.1434C215 16.8809 214.53 16.7488 213.99 16.7488C213.19 16.7488 212.381 16.9999 211.563 17.5021C210.745 18.0026 209.917 18.7559 209.079 19.7586V31.7485C209.079 33.3561 209.238 34.3669 209.554 34.781C209.981 35.3696 210.8 35.6957 212.009 35.7609V36.6201H198.505V35.7609C199.23 35.7283 199.802 35.5734 200.221 35.2946C200.64 35.0158 200.918 34.6816 201.057 34.2919C201.198 33.9006 201.268 33.0528 201.268 31.7485V22.1471C201.268 20.1254 201.175 18.8586 200.988 18.3499C200.802 17.8396 200.491 17.4418 200.054 17.1548C199.616 16.8695 199.146 16.726 198.644 16.726C197.9 16.726 197.221 16.8923 196.607 17.2266C195.734 17.7206 194.803 18.5651 193.817 19.7586V31.7485C193.817 33.3235 193.998 34.3636 194.361 34.8642C194.723 35.3663 195.482 35.6647 196.635 35.7609V36.6201H183.187V35.7609C184.284 35.6647 185.066 35.3615 185.531 34.8528C185.847 34.5022 186.005 33.4669 186.005 31.7485V19.1374C186.005 17.4499 185.824 16.3999 185.461 15.9858C185.099 15.5717 184.34 15.3011 183.187 15.1739V14.2902H193.817" fill="#93A8C1"/>
<path fill-rule="evenodd" clip-rule="evenodd" d="M238.817 14.2902V17.2266C240.25 15.8896 241.575 14.9538 242.794 14.4206C244.012 13.8875 245.347 13.6201 246.798 13.6201C248.472 13.6201 249.877 13.956 251.011 14.6244C252.146 15.2929 253.019 16.3119 253.633 17.6814C255.122 16.2483 256.548 15.213 257.916 14.5755C259.283 13.9397 260.711 13.6201 262.2 13.6201C264.003 13.6201 265.441 13.9755 266.509 14.6831C267.579 15.3924 268.323 16.2923 268.742 17.3831C269.161 18.4738 269.37 20.2118 269.37 22.6003V31.7485C269.37 33.4669 269.552 34.5348 269.915 34.9473C270.278 35.3615 271.034 35.6321 272.187 35.7609V36.6201H258.711V35.7609C259.772 35.681 260.553 35.3305 261.055 34.7093C261.39 34.2789 261.557 33.2925 261.557 31.7485V22.1471C261.557 20.1564 261.464 18.8912 261.279 18.3499C261.093 17.8086 260.8 17.4059 260.399 17.1434C260 16.8809 259.53 16.7488 258.99 16.7488C258.191 16.7488 257.381 16.9999 256.563 17.5021C255.745 18.0026 254.917 18.7559 254.08 19.7586V31.7485C254.08 33.3561 254.238 34.3669 254.554 34.781C254.981 35.3696 255.8 35.6957 257.009 35.7609V36.6201H243.505V35.7609C244.23 35.7283 244.802 35.5734 245.221 35.2946C245.64 35.0158 245.918 34.6816 246.057 34.2919C246.198 33.9006 246.268 33.0528 246.268 31.7485V22.1471C246.268 20.1254 246.175 18.8586 245.988 18.3499C245.802 17.8396 245.491 17.4418 245.054 17.1548C244.616 16.8695 244.148 16.726 243.644 16.726C242.9 16.726 242.221 16.8923 241.608 17.2266C240.734 17.7206 239.803 18.5651 238.817 19.7586V31.7485C238.817 33.3235 239 34.3636 239.362 34.8642C239.725 35.3663 240.482 35.6647 241.635 35.7609V36.6201H228.187V35.7609C229.284 35.6647 230.066 35.3615 230.531 34.8528C230.847 34.5022 231.005 33.4669 231.005 31.7485V19.1374C231.005 17.4499 230.824 16.3999 230.461 15.9858C230.099 15.5717 229.34 15.3011 228.187 15.1739V14.2902H238.817" fill="#93A8C1"/>
<path fill-rule="evenodd" clip-rule="evenodd" d="M284.819 36.9394L276.259 20.3297C274.976 17.8216 274.025 16.2804 273.411 15.7045C272.797 15.1286 272.057 14.7294 271.187 14.5069V13.6201H285.271V14.5069C284.346 14.538 283.695 14.6901 283.317 14.9617C282.938 15.2333 282.75 15.5605 282.75 15.9434C282.75 16.552 283.222 17.7496 284.166 19.5395L288.702 28.3106L291.79 21.529C292.904 19.1158 293.462 17.4388 293.462 16.4947C293.462 15.9041 293.23 15.4329 292.768 15.0811C292.305 14.7294 291.487 14.538 290.317 14.5069V13.6201H299.187V14.5069C298.318 14.5854 297.609 14.8701 297.061 15.3576C296.514 15.8436 295.597 17.5026 294.312 20.3297L286.745 36.9394C284.837 41.0934 283.421 43.649 282.494 44.6077C281.192 45.9493 279.557 46.6201 277.592 46.6201C276.024 46.6201 274.754 46.2422 273.78 45.483C272.807 44.7239 272.321 43.8093 272.321 42.7377C272.321 41.8116 272.656 41.0443 273.327 40.4373C273.998 39.8303 274.824 39.5277 275.807 39.5277C276.751 39.5277 277.511 39.7829 278.088 40.2933C278.665 40.8054 278.961 41.5957 278.981 42.6673C279 43.2743 279.084 43.6653 279.235 43.8404C279.387 44.0171 279.604 44.1038 279.888 44.1038C280.341 44.1038 280.823 43.8731 281.333 43.4101C282.088 42.7377 282.977 41.2046 283.996 38.8078L284.819 36.9394" fill="#93A8C1"/>
<path fill-rule="evenodd" clip-rule="evenodd" d="M316.796 4.52714V3.62012H337.187V4.52714H335.943C334.812 4.52714 333.907 4.69784 333.228 5.0409C332.756 5.27016 332.38 5.66176 332.097 6.21735C331.89 6.61062 331.786 7.63981 331.786 9.30659V25.5845C331.786 28.7708 331.418 31.0869 330.683 32.5328C329.948 33.9803 328.641 35.1886 326.766 36.1608C324.889 37.1331 322.631 37.6201 319.991 37.6201C316.768 37.6201 314.16 36.8855 312.171 35.4145C310.181 33.9435 309.187 32.3169 309.187 30.5363C309.187 29.3916 309.594 28.4645 310.403 27.7533C311.214 27.0421 312.204 26.6873 313.373 26.6873C314.523 26.6873 315.49 27.0053 316.272 27.6429C317.055 28.2805 317.446 29.0653 317.446 29.9958C317.446 30.4543 317.381 30.8543 317.248 31.1973C317.172 31.3613 316.875 31.773 316.356 32.4357C315.839 33.0967 315.579 33.567 315.579 33.8448C315.579 34.2698 315.824 34.638 316.314 34.9476C317.031 35.4061 317.965 35.6337 319.115 35.6337C319.926 35.6337 320.594 35.4546 321.123 35.0948C321.65 34.735 322.023 34.1761 322.239 33.4163C322.456 32.6566 322.565 30.543 322.565 27.0789V9.30659C322.565 7.60634 322.456 6.54535 322.239 6.12029C322.023 5.69523 321.6 5.32372 320.967 5.00408C320.336 4.68612 319.483 4.52714 318.408 4.52714H316.796" fill="#93A8C1"/>
<path fill-rule="evenodd" clip-rule="evenodd" d="M358.187 24.8092H343.754C343.923 27.8115 344.852 30.1855 346.54 31.9297C347.834 33.2688 349.391 33.9384 351.21 33.9384C352.335 33.9384 353.357 33.6689 354.276 33.1283C355.196 32.5877 356.18 31.6139 357.23 30.2103L358.187 30.7427C356.761 33.2457 355.186 35.0163 353.461 36.0578C351.736 37.0993 349.738 37.6201 347.469 37.6201C343.567 37.6201 340.613 36.3289 338.606 33.7449C336.994 31.6635 336.187 29.0795 336.187 25.9962C336.187 22.2186 337.373 19.2114 339.746 16.9745C342.118 14.7394 344.898 13.6201 348.087 13.6201C350.75 13.6201 353.062 14.5608 355.022 16.4422C356.981 18.3236 358.037 21.1126 358.187 24.8092ZM351.266 23.1874C351.266 20.5868 351.103 18.803 350.774 17.8342C350.446 16.8654 349.935 16.1314 349.241 15.6304C348.846 15.3395 348.322 15.1956 347.666 15.1956C346.69 15.1956 345.892 15.6073 345.274 16.4306C344.167 17.8673 343.614 19.8363 343.614 22.3393V23.1874H351.266V23.1874Z" fill="#93A8C1"/>
<path fill-rule="evenodd" clip-rule="evenodd" d="M372.913 32.9069C369.738 35.3829 366.889 36.6201 364.365 36.6201C362.881 36.6201 361.646 36.1904 360.663 35.3292C359.678 34.4697 359.187 33.3903 359.187 32.0961C359.187 30.3419 360.04 28.7639 361.749 27.3622C363.456 25.9605 367.176 24.0955 372.913 21.7689V19.4574C372.913 17.7199 372.805 16.6254 372.592 16.1739C372.379 15.724 371.976 15.3295 371.381 14.9938C370.787 14.658 370.118 14.4902 369.376 14.4902C368.17 14.4902 367.176 14.7269 366.398 15.2036C365.915 15.4974 365.674 15.8415 365.674 16.236C365.674 16.5801 365.933 17.0065 366.452 17.5135C367.158 18.2185 367.512 18.9 367.512 19.5547C367.512 20.3588 367.173 21.0437 366.495 21.6077C365.818 22.1734 364.932 22.4571 363.836 22.4571C362.666 22.4571 361.688 22.1449 360.899 21.5221C360.109 20.8993 359.716 20.1708 359.716 19.3331C359.716 18.153 360.245 17.0266 361.303 15.9523C362.36 14.8796 363.836 14.0554 365.729 13.4813C367.623 12.9072 369.589 12.6201 371.632 12.6201C374.099 12.6201 376.053 13.0834 377.492 14.0101C378.93 14.9367 379.862 15.9405 380.29 17.0233C380.55 17.7115 380.68 19.2928 380.68 21.7689V30.6944C380.68 31.7436 380.727 32.4033 380.819 32.6736C380.912 32.9438 381.05 33.1453 381.237 33.2762C381.422 33.4071 381.636 33.4726 381.877 33.4726C382.359 33.4726 382.852 33.1704 383.353 32.5628L384.187 33.1537C383.26 34.3673 382.298 35.247 381.307 35.7976C380.313 36.3465 379.186 36.6201 377.924 36.6201C376.438 36.6201 375.279 36.3129 374.443 35.6985C373.608 35.0841 373.098 34.1541 372.913 32.9069ZM372.913 31.1124V23.4157C370.667 24.579 368.996 25.8262 367.9 27.1541C367.176 28.0387 366.814 28.9318 366.814 29.8332C366.814 30.5886 367.122 31.2517 367.733 31.8258C368.198 32.269 368.847 32.4889 369.683 32.4889C370.611 32.4889 371.686 32.0306 372.913 31.1124V31.1124Z" fill="#93A8C1"/>
<path fill-rule="evenodd" clip-rule="evenodd" d="M394.76 14.2902V17.1793C396.091 15.9369 397.368 15.0337 398.588 14.4679C399.811 13.9038 401.124 13.6201 402.53 13.6201C404.214 13.6201 405.609 14.0228 406.72 14.8266C407.83 15.6304 408.57 16.6298 408.94 17.8249C409.237 18.7314 409.383 20.4759 409.383 23.0552V31.7485C409.383 33.4669 409.565 34.5381 409.925 34.9604C410.286 35.3826 411.041 35.6484 412.187 35.7609V36.6201H399.061V35.7609C400.041 35.6484 400.745 35.2979 401.17 34.7093C401.466 34.3115 401.615 33.3235 401.615 31.7485V21.8129C401.615 19.9819 401.531 18.8276 401.364 18.3499C401.198 17.8722 400.916 17.5021 400.517 17.2396C400.12 16.9771 399.681 16.845 399.2 16.845C397.608 16.845 396.129 17.8249 394.76 19.783V31.7485C394.76 33.4196 394.94 34.4778 395.3 34.9245C395.661 35.3696 396.332 35.6484 397.313 35.7609V36.6201H384.187V35.7609C385.278 35.6647 386.055 35.3615 386.518 34.8528C386.831 34.5022 386.989 33.4669 386.989 31.7485V19.1374C386.989 17.4499 386.808 16.3999 386.447 15.9858C386.087 15.5717 385.334 15.3011 384.187 15.1739V14.2902H394.76" fill="#93A8C1"/>
<path fill-rule="evenodd" clip-rule="evenodd" d="M430.396 13.6697L430.816 21.3953H429.864C428.726 19.1022 427.546 17.5366 426.323 16.6968C425.1 15.8569 423.884 15.437 422.67 15.437C421.904 15.437 421.251 15.6586 420.711 16.1033C420.17 16.5463 419.899 17.0605 419.899 17.6408C419.899 18.0772 420.085 18.4972 420.459 18.9005C421.055 19.5618 422.725 20.696 425.469 22.3029C428.212 23.9098 430.019 25.2738 430.886 26.3947C431.754 27.5172 432.187 28.772 432.187 30.1607C432.187 31.4205 431.823 32.6555 431.095 33.8673C430.368 35.0774 429.342 36.0049 428.016 36.6513C426.692 37.2977 425.226 37.6201 423.621 37.6201C422.371 37.6201 420.701 37.2812 418.611 36.6034C418.051 36.4248 417.669 36.3372 417.463 36.3372C416.848 36.3372 416.334 36.7406 415.924 37.5474H415L414.551 29.4102H415.503C416.344 31.5412 417.496 33.1399 418.961 34.2062C420.425 35.2709 421.811 35.8032 423.117 35.8032C424.013 35.8032 424.746 35.5651 425.316 35.089C425.884 34.6129 426.168 34.0359 426.168 33.3581C426.168 32.5827 425.889 31.9132 425.329 31.3477C424.769 30.7823 423.52 29.9276 421.579 28.7803C418.722 27.0692 416.876 25.7615 416.035 24.8572C414.804 23.5346 414.187 22.0731 414.187 20.4744C414.187 18.7303 414.884 17.1531 416.273 15.7396C417.664 14.3277 419.674 13.6201 422.307 13.6201C423.724 13.6201 425.097 13.9194 426.421 14.5162C426.925 14.7592 427.335 14.8799 427.652 14.8799C427.988 14.8799 428.259 14.8204 428.465 14.698C428.669 14.5773 428.997 14.2351 429.444 13.6697H430.396" fill="#93A8C1"/>
<path fill-rule="evenodd" clip-rule="evenodd" d="M196.179 60.345C196.17 60.6816 196.13 60.8976 196.062 60.9897C195.993 61.0818 195.857 61.1279 195.657 61.1279C195.499 61.1279 195.383 61.085 195.306 61.0024C195.227 60.9198 195.187 60.7976 195.187 60.6356C195.187 60.6356 195.19 60.6007 195.194 60.5308C195.198 60.4609 195.201 60.3895 195.201 60.318L195.268 58.0917C195.277 57.925 195.321 57.8059 195.402 57.7313C195.482 57.6566 195.607 57.6201 195.777 57.6201H201.599C201.768 57.6201 201.894 57.6566 201.973 57.7313C202.053 57.8059 202.096 57.925 202.101 58.0917L202.175 60.318C202.175 60.399 202.176 60.4752 202.181 60.5467C202.186 60.6197 202.187 60.6531 202.187 60.6483C202.187 60.8103 202.146 60.931 202.061 61.0088C201.976 61.0882 201.848 61.1279 201.679 61.1279C201.5 61.1279 201.377 61.0818 201.31 60.9897C201.243 60.8976 201.205 60.6816 201.197 60.345L201.129 58.5903H199.207V64.6689H200.5C200.688 64.6689 200.823 64.7055 200.908 64.7801C200.994 64.8547 201.036 64.9722 201.036 65.1342C201.036 65.2914 200.995 65.4121 200.915 65.4947C200.834 65.5788 200.719 65.6201 200.566 65.6201H196.808C196.657 65.6201 196.54 65.5788 196.46 65.4947C196.379 65.4121 196.34 65.2914 196.34 65.1342C196.34 64.9675 196.383 64.8484 196.471 64.7769C196.558 64.7055 196.706 64.6689 196.916 64.6689H198.169V58.5903H196.245L196.179 60.345" fill="#93A8C1"/>
<path fill-rule="evenodd" clip-rule="evenodd" d="M209.964 64.5789H212.23C212.406 64.5789 212.538 64.6189 212.622 64.7006C212.705 64.7823 212.748 64.9109 212.748 65.0882C212.748 65.2898 212.708 65.4289 212.628 65.5054C212.549 65.5819 212.402 65.6201 212.188 65.6201H207.727C207.55 65.6201 207.415 65.5749 207.324 65.4863C207.234 65.3976 207.187 65.2655 207.187 65.0882C207.187 64.9161 207.234 64.7875 207.329 64.7041C207.422 64.6206 207.565 64.5789 207.761 64.5789H208.947V59.8456H208.485C208.043 59.8456 207.769 59.8074 207.659 59.7309C207.55 59.6544 207.496 59.5153 207.496 59.3137C207.496 59.1416 207.539 59.013 207.627 58.9261C207.717 58.8391 207.852 58.7974 208.034 58.7974H209.59C209.712 58.7974 209.805 58.8235 209.869 58.8739C209.933 58.9261 209.964 59.0008 209.964 59.0999V60.3549C210.396 59.7691 210.847 59.3328 211.314 59.0477C211.783 58.7627 212.289 58.6201 212.83 58.6201C213.235 58.6201 213.563 58.7088 213.811 58.8861C214.062 59.0634 214.187 59.2911 214.187 59.5727C214.187 59.7552 214.125 59.9151 213.999 60.0559C213.874 60.1967 213.738 60.2663 213.587 60.2663C213.482 60.2663 213.306 60.1915 213.058 60.0403C212.811 59.8908 212.588 59.816 212.393 59.816C212.039 59.816 211.664 59.9534 211.271 60.2263C210.878 60.4992 210.442 60.9303 209.964 61.5213V64.5789" fill="#93A8C1"/>
<path fill-rule="evenodd" clip-rule="evenodd" d="M220.384 63.7346C220.384 64.3578 220.517 64.8134 220.782 65.0997C221.046 65.386 221.466 65.5291 222.042 65.5291C222.585 65.5291 223.053 65.3598 223.439 65.0176C223.826 64.6772 224.02 64.2495 224.02 63.7346V60.6727H222.993C222.799 60.6727 222.658 60.6326 222.569 60.5505C222.483 60.4685 222.439 60.3411 222.439 60.1682C222.439 59.9797 222.486 59.8418 222.582 59.7528C222.675 59.6638 222.829 59.6201 223.039 59.6201H224.636C224.825 59.6201 224.959 59.6603 225.037 59.7423C225.114 59.8244 225.153 60.0234 225.153 60.3393V65.4261H225.497C225.743 65.4261 225.919 65.4663 226.027 65.5448C226.133 65.6234 226.187 65.7543 226.187 65.9376C226.187 66.1156 226.136 66.2483 226.034 66.3373C225.931 66.4264 225.783 66.4717 225.587 66.4717H224.447C224.313 66.4717 224.207 66.4438 224.133 66.3897C224.057 66.3356 224.02 66.2623 224.02 66.168V65.6635C223.54 66.0283 223.129 66.2797 222.786 66.4159C222.444 66.552 222.084 66.6201 221.705 66.6201C220.879 66.6201 220.261 66.4037 219.848 65.9707C219.437 65.5378 219.23 64.885 219.23 64.0104V60.6727H219.073C218.733 60.6727 218.5 60.6326 218.374 60.554C218.251 60.4755 218.187 60.3358 218.187 60.1386C218.187 59.9658 218.237 59.8366 218.334 59.7493C218.431 59.662 218.583 59.6201 218.787 59.6201H219.92C220.095 59.6201 220.215 59.655 220.284 59.7231C220.351 59.7929 220.384 59.9466 220.384 60.184V63.7346" fill="#93A8C1"/>
<path fill-rule="evenodd" clip-rule="evenodd" d="M231.391 62.4395C231.428 63.129 231.653 63.6614 232.065 64.0366C232.477 64.4135 233.042 64.601 233.756 64.601C234.295 64.601 234.883 64.4506 235.52 64.1515C236.157 63.8524 236.541 63.7037 236.674 63.7037C236.813 63.7037 236.928 63.7493 237.021 63.8405C237.112 63.9301 237.16 64.0433 237.16 64.1769C237.16 64.3154 237.111 64.4422 237.015 64.5571C236.917 64.672 236.762 64.7853 236.551 64.8951C236.09 65.13 235.613 65.3092 235.123 65.4342C234.631 65.5576 234.144 65.6201 233.659 65.6201C232.609 65.6201 231.767 65.3058 231.135 64.6754C230.503 64.0467 230.187 63.2136 230.187 62.1742C230.187 61.1163 230.521 60.2594 231.19 59.6037C231.858 58.948 232.731 58.6201 233.804 58.6201C234.777 58.6201 235.585 58.926 236.225 59.5395C236.866 60.1513 237.187 60.8932 237.187 61.7652C237.187 62.0322 237.132 62.2131 237.024 62.3026C236.915 62.3939 236.622 62.4395 236.142 62.4395H231.391ZM231.425 61.4999H235.929C235.859 60.9304 235.629 60.4724 235.24 60.1242C234.851 59.7778 234.372 59.6037 233.804 59.6037C233.191 59.6037 232.675 59.771 232.255 60.1073C231.835 60.4419 231.558 60.9067 231.425 61.4999V61.4999Z" fill="#93A8C1"/>
<path fill-rule="evenodd" clip-rule="evenodd" d="M254.531 66.0511C254.506 66.2653 254.45 66.4126 254.36 66.4963C254.269 66.5783 254.126 66.6201 253.93 66.6201C253.719 66.6201 253.564 66.5615 253.461 66.4461C253.359 66.3306 253.3 66.1415 253.285 65.8804L253.187 64.2321V64.1032C253.187 63.8756 253.233 63.7149 253.325 63.6196C253.419 63.5258 253.573 63.4773 253.788 63.4773C254.089 63.4773 254.303 63.6815 254.434 64.0898C254.494 64.294 254.552 64.4479 254.607 64.5517C254.782 64.883 255.058 65.1391 255.436 65.3198C255.815 65.4989 256.267 65.5893 256.792 65.5893C257.438 65.5893 257.963 65.4453 258.366 65.1558C258.769 64.8663 258.971 64.4965 258.971 64.0463C258.971 63.6731 258.847 63.3719 258.599 63.1443C258.35 62.9167 257.989 62.7694 257.514 62.7025L256.402 62.5602C255.366 62.423 254.609 62.1653 254.133 61.7854C253.658 61.4072 253.421 60.8734 253.421 60.1872C253.421 59.461 253.737 58.8518 254.37 58.3598C255.003 57.8661 255.793 57.6201 256.739 57.6201C257.015 57.6201 257.305 57.6553 257.611 57.7239C257.917 57.7925 258.262 57.8996 258.647 58.0469C258.658 57.9096 258.698 57.8142 258.767 57.7624C258.838 57.7105 258.958 57.6837 259.128 57.6837C259.349 57.6837 259.501 57.7155 259.586 57.7758C259.671 57.8377 259.724 57.9849 259.743 58.2176L259.85 59.7036V59.7739C259.85 59.9396 259.8 60.0684 259.699 60.1621C259.598 60.2542 259.459 60.301 259.278 60.301C259.013 60.301 258.808 60.1253 258.663 59.7739C258.592 59.5747 258.522 59.4258 258.453 59.3271C258.287 59.0894 258.05 58.907 257.738 58.7782C257.429 58.651 257.075 58.5874 256.679 58.5874C256.075 58.5874 255.581 58.7296 255.203 59.0141C254.826 59.2986 254.637 59.6701 254.637 60.1303C254.637 60.4901 254.779 60.7746 255.061 60.9821C255.344 61.1913 255.776 61.3336 256.358 61.4089L257.558 61.5511C258.43 61.6599 259.086 61.9126 259.526 62.3092C259.966 62.7042 260.187 63.238 260.187 63.9124C260.187 64.7073 259.874 65.3466 259.248 65.8269C258.622 66.3088 257.786 66.5498 256.739 66.5498C256.379 66.5498 256.022 66.508 255.666 66.4277C255.311 66.3473 254.932 66.2218 254.531 66.0511" fill="#93A8C1"/>
<path fill-rule="evenodd" clip-rule="evenodd" d="M267.596 57.6106H266.461C266.029 57.6106 265.759 57.575 265.651 57.5038C265.541 57.4326 265.487 57.3031 265.487 57.1154C265.487 56.9503 265.533 56.8273 265.624 56.7447C265.715 56.6622 265.847 56.6201 266.022 56.6201H268.223C268.344 56.6201 268.436 56.646 268.504 56.6962C268.57 56.7464 268.604 56.8159 268.604 56.9017V64.6507H270.699C270.868 64.6507 270.992 64.6879 271.069 64.764C271.148 64.84 271.187 64.9598 271.187 65.1249C271.187 65.3126 271.148 65.4421 271.073 65.5133C270.997 65.5845 270.856 65.6201 270.645 65.6201H265.72C265.547 65.6201 265.415 65.578 265.324 65.4955C265.233 65.413 265.187 65.29 265.187 65.1249C265.187 64.9647 265.233 64.8449 265.327 64.7672C265.42 64.6895 265.56 64.6507 265.747 64.6507H267.596V57.6106" fill="#93A8C1"/>
<path fill-rule="evenodd" clip-rule="evenodd" d="M278.844 56.8109C278.844 56.2874 278.891 55.9589 278.99 55.8237C279.086 55.6868 279.294 55.6201 279.612 55.6201C279.921 55.6201 280.125 55.6766 280.225 55.7895C280.323 55.9041 280.374 56.1744 280.374 56.6004C280.374 57.0179 280.329 57.2745 280.235 57.3738C280.144 57.4747 279.935 57.5243 279.612 57.5243C279.294 57.5243 279.086 57.4781 278.99 57.3857C278.891 57.2933 278.844 57.1017 278.844 56.8109ZM280.225 64.5953H282.62C282.815 64.5953 282.957 64.6347 283.05 64.7151C283.142 64.7955 283.187 64.9221 283.187 65.0966C283.187 65.2951 283.143 65.4319 283.057 65.5072C282.969 65.5825 282.809 65.6201 282.576 65.6201H276.783C276.584 65.6201 276.435 65.5756 276.337 65.4884C276.236 65.4011 276.187 65.2711 276.187 65.0966C276.187 64.9272 276.238 64.8006 276.344 64.7185C276.447 64.6364 276.604 64.5953 276.813 64.5953H279.09V59.9366H277.635C277.431 59.9366 277.275 59.8921 277.168 59.8015C277.06 59.7125 277.008 59.5825 277.008 59.4131C277.008 59.2437 277.057 59.1171 277.157 59.0316C277.256 58.946 277.405 58.905 277.605 58.905H279.791C279.926 58.905 280.032 58.9306 280.109 58.9837C280.186 59.0384 280.225 59.1103 280.225 59.2027V64.5953V64.5953Z" fill="#93A8C1"/>
<path fill-rule="evenodd" clip-rule="evenodd" d="M294.254 61.5165C294.254 60.8228 294.193 60.3562 294.07 60.1117C293.949 59.8689 293.74 59.7475 293.445 59.7475C293.091 59.7475 292.811 59.9053 292.604 60.2192C292.395 60.5331 292.292 60.9667 292.292 61.5165V64.5812H292.42C292.712 64.5812 292.906 64.6159 293.004 64.6887C293.101 64.7599 293.152 64.8934 293.152 65.0894C293.152 65.2663 293.11 65.3981 293.029 65.4866C292.948 65.575 292.825 65.6201 292.656 65.6201H291.748C291.542 65.6201 291.402 65.5716 291.328 65.4727C291.254 65.3738 291.219 65.164 291.219 64.8396V60.9407C291.219 60.573 291.136 60.2817 290.974 60.0683C290.813 59.855 290.59 59.7475 290.309 59.7475C290.095 59.7475 289.897 59.8134 289.719 59.9435C289.538 60.0735 289.385 60.2661 289.257 60.521V64.5812H289.522C289.808 64.5812 290 64.6176 290.101 64.6922C290.201 64.7651 290.251 64.8986 290.251 65.0894C290.251 65.2906 290.211 65.4293 290.13 65.5056C290.049 65.582 289.894 65.6201 289.665 65.6201H287.76C287.573 65.6201 287.437 65.5768 287.347 65.4918C287.26 65.4051 287.216 65.2715 287.216 65.0894C287.216 64.8934 287.272 64.7599 287.384 64.6887C287.496 64.6159 287.715 64.5812 288.038 64.5812H288.182V59.8585H288.054C287.72 59.8585 287.491 59.8186 287.369 59.7405C287.248 59.6625 287.187 59.5237 287.187 59.3277C287.187 59.156 287.234 59.0277 287.331 58.941C287.425 58.8543 287.568 58.8126 287.76 58.8126H288.856C289.013 58.8126 289.117 58.8404 289.166 58.8976C289.216 58.9531 289.247 59.0728 289.257 59.2549C289.452 59.0381 289.661 58.8785 289.886 58.7745C290.111 58.6721 290.364 58.6201 290.646 58.6201C290.979 58.6201 291.254 58.6947 291.472 58.8456C291.689 58.9947 291.851 59.222 291.955 59.5272C292.156 59.2167 292.387 58.9895 292.65 58.8421C292.913 58.6947 293.213 58.6201 293.551 58.6201C294.168 58.6201 294.618 58.8265 294.901 59.2393C295.186 59.6521 295.328 60.3198 295.328 61.2443V64.5812H295.442C295.737 64.5812 295.936 64.6176 296.036 64.6922C296.137 64.7651 296.187 64.8986 296.187 65.0894C296.187 65.2663 296.143 65.3981 296.057 65.4866C295.972 65.575 295.845 65.6201 295.678 65.6201H294.812C294.622 65.6201 294.48 65.5611 294.389 65.4432C294.3 65.3253 294.254 65.138 294.254 64.883V61.5165" fill="#93A8C1"/>
<path fill-rule="evenodd" clip-rule="evenodd" d="M313.702 64.6689H313.967C314.159 64.6689 314.299 64.7055 314.386 64.7801C314.471 64.8547 314.514 64.9722 314.514 65.1342C314.514 65.2914 314.474 65.4121 314.392 65.4947C314.31 65.5788 314.191 65.6201 314.036 65.6201H310.667C310.511 65.6201 310.393 65.5788 310.311 65.4947C310.229 65.4121 310.187 65.2914 310.187 65.1342C310.187 64.9675 310.232 64.8484 310.321 64.7769C310.409 64.7055 310.561 64.6689 310.776 64.6689H311.431V58.5903H311.002C310.654 58.5903 310.432 58.5554 310.335 58.4871C310.237 58.4173 310.187 58.2902 310.187 58.106C310.187 57.9472 310.229 57.8281 310.311 57.744C310.393 57.6614 310.511 57.6201 310.667 57.6201H316.716C316.87 57.6201 316.988 57.6662 317.068 57.7583C317.147 57.8504 317.187 57.9838 317.187 58.16V59.9004C317.187 60.0576 317.147 60.1751 317.068 60.2545C316.988 60.3323 316.87 60.372 316.716 60.372C316.524 60.372 316.394 60.3228 316.326 60.2227C316.257 60.1243 316.223 59.902 316.223 59.5558V58.5903H312.513V60.8643H314.316V60.6896C314.316 60.3609 314.349 60.1402 314.411 60.0274C314.476 59.9147 314.59 59.8591 314.754 59.8591C314.901 59.8591 315.005 59.902 315.071 59.9877C315.139 60.0735 315.171 60.21 315.171 60.399V62.1124C315.171 62.3379 315.14 62.4919 315.079 62.5776C315.016 62.6634 314.909 62.7063 314.754 62.7063C314.59 62.7063 314.476 62.6491 314.411 62.5379C314.349 62.4252 314.316 62.2045 314.316 61.8758V61.6805H312.513V64.6689H313.702" fill="#93A8C1"/>
<path fill-rule="evenodd" clip-rule="evenodd" d="M324.844 56.8109C324.844 56.2874 324.891 55.9589 324.99 55.8237C325.086 55.6868 325.294 55.6201 325.612 55.6201C325.921 55.6201 326.125 55.6766 326.225 55.7895C326.323 55.9041 326.374 56.1744 326.374 56.6004C326.374 57.0179 326.329 57.2745 326.235 57.3738C326.144 57.4747 325.935 57.5243 325.612 57.5243C325.294 57.5243 325.086 57.4781 324.99 57.3857C324.891 57.2933 324.844 57.1017 324.844 56.8109ZM326.225 64.5953H328.62C328.815 64.5953 328.957 64.6347 329.05 64.7151C329.142 64.7955 329.187 64.9221 329.187 65.0966C329.187 65.2951 329.143 65.4319 329.057 65.5072C328.969 65.5825 328.809 65.6201 328.576 65.6201H322.783C322.584 65.6201 322.435 65.5756 322.337 65.4884C322.236 65.4011 322.187 65.2711 322.187 65.0966C322.187 64.9272 322.238 64.8006 322.344 64.7185C322.447 64.6364 322.604 64.5953 322.813 64.5953H325.09V59.9366H323.635C323.431 59.9366 323.275 59.8921 323.168 59.8015C323.06 59.7125 323.008 59.5825 323.008 59.4131C323.008 59.2437 323.057 59.1171 323.157 59.0316C323.256 58.946 323.405 58.905 323.605 58.905H325.791C325.926 58.905 326.032 58.9306 326.109 58.9837C326.186 59.0384 326.225 59.1103 326.225 59.2027V64.5953V64.5953Z" fill="#93A8C1"/>
<path fill-rule="evenodd" clip-rule="evenodd" d="M339.595 60.1272C339.817 60.1272 339.978 60.1686 340.08 60.2514C340.182 60.3343 340.233 60.4654 340.233 60.6466C340.233 60.8174 340.185 60.9468 340.091 61.0314C339.995 61.1176 339.854 61.1608 339.664 61.1608H336.922V63.6075C336.922 64.4098 337.019 64.9378 337.21 65.1914C337.401 65.4451 337.729 65.5728 338.195 65.5728C338.606 65.5728 339.097 65.4434 339.67 65.1845C340.244 64.9257 340.598 64.7963 340.733 64.7963C340.859 64.7963 340.967 64.8446 341.055 64.943C341.143 65.0396 341.187 65.1604 341.187 65.3019C341.187 65.4623 341.131 65.6038 341.022 65.7229C340.91 65.8419 340.722 65.9593 340.456 66.0714C340.013 66.2612 339.615 66.401 339.261 66.489C338.907 66.577 338.574 66.6201 338.263 66.6201C337.734 66.6201 337.291 66.5287 336.933 66.3458C336.574 66.1629 336.307 65.8902 336.13 65.5279C336.04 65.3571 335.975 65.1552 335.937 64.9205C335.899 64.6859 335.879 64.3235 335.879 63.8352V61.1608H334.729C334.539 61.1608 334.402 61.1194 334.316 61.0383C334.23 60.9589 334.187 60.8277 334.187 60.6466C334.187 60.4464 334.246 60.3101 334.364 60.2359C334.48 60.1634 334.731 60.1272 335.115 60.1272H335.879V58.2361C335.879 58.0256 335.921 57.8703 336.005 57.7702C336.088 57.6702 336.219 57.6201 336.394 57.6201C336.593 57.6201 336.73 57.6805 336.807 57.803C336.883 57.9255 336.922 58.2033 336.922 58.6381V60.1272H339.595" fill="#93A8C1"/>
<path fill-rule="evenodd" clip-rule="evenodd" d="M346.187 64.9345V63.6516C346.187 63.4395 346.225 63.2885 346.301 63.1968C346.376 63.1052 346.499 63.0611 346.67 63.0611C346.859 63.0611 347.008 63.1951 347.119 63.4633C347.192 63.6279 347.259 63.7501 347.319 63.8315C347.512 64.0911 347.798 64.2982 348.175 64.456C348.552 64.6121 348.97 64.6902 349.425 64.6902C349.913 64.6902 350.305 64.5867 350.599 64.3796C350.893 64.1726 351.041 63.9011 351.041 63.5651C351.041 63.224 350.923 62.9813 350.685 62.8371C350.448 62.6928 350.041 62.6199 349.466 62.6199H349.087C348.148 62.6199 347.432 62.4502 346.94 62.1091C346.447 61.768 346.2 61.2725 346.2 60.6242C346.2 59.9896 346.441 59.4975 346.922 59.1462C347.403 58.7949 348.079 58.6201 348.949 58.6201C349.303 58.6201 349.664 58.671 350.033 58.7745C350.401 58.8781 350.594 58.929 350.614 58.929C350.664 58.929 350.76 58.8831 350.903 58.7898C351.046 58.6948 351.186 58.649 351.324 58.649C351.48 58.649 351.597 58.7084 351.674 58.8288C351.748 58.9493 351.787 59.1292 351.787 59.3702V60.2136C351.787 60.4681 351.75 60.6514 351.677 60.7651C351.602 60.8771 351.485 60.9331 351.324 60.9331C351.186 60.9331 351.015 60.8109 350.814 60.5665C350.671 60.3985 350.554 60.2713 350.461 60.1847C350.217 59.9488 349.957 59.7791 349.681 59.6756C349.404 59.5721 349.079 59.5212 348.707 59.5212C348.274 59.5212 347.925 59.6213 347.66 59.8199C347.397 60.0201 347.263 60.273 347.263 60.5801C347.263 60.8839 347.4 61.0994 347.671 61.2301C347.943 61.359 348.528 61.4337 349.425 61.4524C350.383 61.4761 351.082 61.6509 351.524 61.975C351.966 62.2991 352.187 62.8015 352.187 63.4785C352.187 64.1268 351.943 64.6461 351.456 65.0364C350.968 65.425 350.31 65.6201 349.481 65.6201C349.217 65.6201 348.926 65.5947 348.603 65.5438C348.281 65.4928 347.876 65.408 347.389 65.2875C347.228 65.3978 347.089 65.481 346.974 65.537C346.859 65.5913 346.763 65.6201 346.683 65.6201C346.522 65.6201 346.4 65.5607 346.314 65.4436C346.23 65.3248 346.187 65.1551 346.187 64.9345" fill="#93A8C1"/>
</svg>
