<svg width="160" height="122" viewBox="0 0 160 122" fill="none" xmlns="http://www.w3.org/2000/svg">
<g clip-path="url(#clip0)">
<path fill-rule="evenodd" clip-rule="evenodd" d="M36.035 104.937L36.718 105.457L36.919 105.663L36.853 105.555L36.658 105.378L36.395 105.191L36.31 105.099L36.187 105.038L35.96 104.837L36.035 104.937Z" fill="#3F3F3F"/>
<path fill-rule="evenodd" clip-rule="evenodd" d="M37.596 108.725L37.726 108.796L37.795 108.805L38.077 108.915L38.251 108.92L38.081 108.88L38.045 108.892L37.922 108.832L37.77 108.793L37.639 108.722L37.574 108.615L37.596 108.725Z" fill="#3F3F3F"/>
<path fill-rule="evenodd" clip-rule="evenodd" d="M38.0459 120.878L38.1679 120.813L38.1519 120.793L38.0459 120.878Z" fill="#3F3F3F"/>
<path fill-rule="evenodd" clip-rule="evenodd" d="M37.5981 120.98L37.3721 121.048L37.0561 121.06L37.0271 121.083L36.9131 121.094L37.3851 121.085L37.8641 120.944L37.7041 120.895L37.5981 120.98Z" fill="#3F3F3F"/>
<path fill-rule="evenodd" clip-rule="evenodd" d="M36.6709 121.081L36.6979 121.076L36.5869 121.051L36.6709 121.081Z" fill="#3F3F3F"/>
<path fill-rule="evenodd" clip-rule="evenodd" d="M36.4759 121.046L36.4949 121.031L36.3799 120.979L36.4759 121.046Z" fill="#3F3F3F"/>
<path fill-rule="evenodd" clip-rule="evenodd" d="M36.2101 120.938L36.2441 120.943L36.2121 120.92L36.0601 120.882L36.2101 120.938Z" fill="#3F3F3F"/>
<path fill-rule="evenodd" clip-rule="evenodd" d="M35.509 120.559L35.531 120.589L35.576 120.506L35.552 120.35L35.509 120.559Z" fill="#3F3F3F"/>
<path fill-rule="evenodd" clip-rule="evenodd" d="M35.3291 120.401L35.3531 120.413L35.3401 120.313L35.3291 120.401Z" fill="#3F3F3F"/>
<path fill-rule="evenodd" clip-rule="evenodd" d="M35.125 120.356L35.287 120.387L35.145 120.341L35.054 120.302L35.125 120.356Z" fill="#3F3F3F"/>
<path fill-rule="evenodd" clip-rule="evenodd" d="M34.9231 120.23L35.0281 120.289L34.9771 120.219L34.9231 120.23Z" fill="#3F3F3F"/>
<path fill-rule="evenodd" clip-rule="evenodd" d="M34.751 120.145L34.891 120.209L34.797 120.125L34.751 120.145Z" fill="#3F3F3F"/>
<path fill-rule="evenodd" clip-rule="evenodd" d="M36.8721 116.909L36.8901 116.974L37.0231 117.027L36.9191 116.951L36.9241 116.772L36.9091 116.752L36.8721 116.909Z" fill="#3F3F3F"/>
<path fill-rule="evenodd" clip-rule="evenodd" d="M34.7739 103.812L34.8569 103.841L34.6899 103.72L34.7739 103.812Z" fill="#3F3F3F"/>
<path fill-rule="evenodd" clip-rule="evenodd" d="M34.897 103.873L34.923 103.868L34.856 103.841L34.897 103.873Z" fill="#3F3F3F"/>
<path fill-rule="evenodd" clip-rule="evenodd" d="M34.1709 103.132L34.2269 103.247L34.3289 103.341L34.1979 103.127L34.1709 103.132Z" fill="#3F3F3F"/>
<path fill-rule="evenodd" clip-rule="evenodd" d="M33.177 102.589L33.29 102.657L33.39 102.626L33.231 102.577L33.177 102.589Z" fill="#3F3F3F"/>
<path fill-rule="evenodd" clip-rule="evenodd" d="M29.7891 101.011L29.7951 101.164L29.8601 101.271L29.9021 101.285L29.9761 101.179L30.0161 101.006L29.8451 100.983L29.7891 101.011Z" fill="#3F3F3F"/>
<path fill-rule="evenodd" clip-rule="evenodd" d="M29.417 99.735L29.461 99.875L29.477 100.02L29.588 100.107L29.73 100.09L29.747 100.092L29.744 100.046L29.674 99.769L29.44 99.622L29.417 99.735Z" fill="#3F3F3F"/>
<path fill-rule="evenodd" clip-rule="evenodd" d="M25.3899 96.095L25.8439 96.226L26.0199 96.214L25.8529 96.156L25.6299 96.126L25.4879 96.081L25.3899 96.095Z" fill="#3F3F3F"/>
<path fill-rule="evenodd" clip-rule="evenodd" d="M21.9729 94.952L22.4169 95.091L22.6799 95.216L22.8009 95.151L22.7979 95.106L22.6169 95.091L22.3619 94.976L22.1909 94.954L22.0959 94.87L22.0479 94.845L21.9729 94.952Z" fill="#3F3F3F"/>
<path fill-rule="evenodd" clip-rule="evenodd" d="M21.7119 94.81L21.5929 94.857L21.4519 94.874L21.4299 94.907L21.7439 94.913L21.8939 94.888L21.8789 94.805L21.7119 94.81Z" fill="#3F3F3F"/>
<path fill-rule="evenodd" clip-rule="evenodd" d="M20.863 94.911L20.707 94.908L20.368 94.971L20.113 95.062L19.929 95.208L20.313 95.062L20.574 94.998L21.035 94.934L21.141 94.85L20.863 94.911Z" fill="#3F3F3F"/>
<path fill-rule="evenodd" clip-rule="evenodd" d="M19.0271 96.082L18.9381 96.169L18.8861 96.305L18.6991 96.549L18.5101 96.729L18.4441 96.846L18.7131 96.568L18.8791 96.358L19.3161 95.726L19.6341 95.411L19.8461 95.242L19.5991 95.406L19.5181 95.502L19.3071 95.654L19.2561 95.79L19.1421 95.864L19.0271 96.082Z" fill="#3F3F3F"/>
<path fill-rule="evenodd" clip-rule="evenodd" d="M10.954 57.344L10.788 57.555L10.759 57.721L10.843 57.813L10.932 57.52L10.992 57.393L11.053 57.25L10.954 57.344Z" fill="#3F3F3F"/>
<path fill-rule="evenodd" clip-rule="evenodd" d="M11.8199 57.038L11.6909 57.298L11.7909 57.473L11.8679 57.349L11.8899 57.173L11.8859 57.002L11.8589 56.864L11.8199 57.038Z" fill="#3F3F3F"/>
<path fill-rule="evenodd" clip-rule="evenodd" d="M10.75 55.715L10.815 55.821L10.852 55.666L10.794 55.568L10.75 55.715Z" fill="#3F3F3F"/>
<path fill-rule="evenodd" clip-rule="evenodd" d="M11.9779 54.454L11.8889 54.541L11.9329 54.681L12.0799 54.898L12.2219 54.944L12.1369 54.852L12.0779 54.566L12.0709 54.414L11.9779 54.454Z" fill="#3F3F3F"/>
<path fill-rule="evenodd" clip-rule="evenodd" d="M11.5859 54.116L11.6319 54.238L11.7329 54.332L11.8079 54.288L11.8409 54.167L11.7759 54.06L11.6449 53.989L11.5859 54.116Z" fill="#3F3F3F"/>
<path fill-rule="evenodd" clip-rule="evenodd" d="M36.1879 39.112L36.1499 39.268L36.0299 39.333L35.9449 39.447L35.9149 39.612L35.8669 39.651L35.9879 39.729L36.0769 39.643L36.1209 39.496L36.0469 39.397L36.2669 39.239L36.3069 39.064L36.4489 39.11L36.5599 39.197L36.6269 39.08L36.6139 39.043L36.4539 38.995L36.2559 38.978L36.1879 39.112Z" fill="#3F3F3F"/>
<path fill-rule="evenodd" clip-rule="evenodd" d="M36.874 38.425L36.864 38.575L36.976 38.519L36.908 38.636L37.05 38.619L37.045 38.448L37.008 38.397L36.874 38.425Z" fill="#3F3F3F"/>
<path fill-rule="evenodd" clip-rule="evenodd" d="M36.5839 38.243L36.5249 38.369L36.5889 38.476L36.7109 38.411L36.7559 38.265L36.7399 38.183L36.5839 38.243Z" fill="#3F3F3F"/>
<path fill-rule="evenodd" clip-rule="evenodd" d="M59.607 78.224L59.532 78.33L59.656 78.391L59.811 78.394L59.939 78.42L60.182 78.56L60.344 78.59L60.471 78.553L60.642 78.576L60.622 78.528L60.482 78.465L60.222 78.386L59.959 78.261L59.675 78.17L59.607 78.224Z" fill="#3F3F3F"/>
<path fill-rule="evenodd" clip-rule="evenodd" d="M59.27 79.728L59.129 79.744L59.059 79.879L59.203 80.05L59.308 79.984L59.211 80.06L59.045 80.065L59.0229 80.241L59.406 80.175L59.743 80.193L59.905 80.224L60.026 80.159L60.13 80.299L60.2729 80.345L60.265 80.191L60.1 79.99L59.86 79.814L59.585 79.715L59.27 79.728Z" fill="#3F3F3F"/>
<path fill-rule="evenodd" clip-rule="evenodd" d="M57.571 84.039L57.39 84.025L57.276 84.098L57.12 84.096L56.935 84.179L56.875 84.305L56.931 84.42L57.08 84.413L57.206 84.376L57.303 84.299L57.505 84.281L57.587 84.185L57.857 84.113L57.864 84.061L57.712 84.022L57.571 84.039Z" fill="#3F3F3F"/>
<path fill-rule="evenodd" clip-rule="evenodd" d="M59.7769 84.986L59.6709 85.071L59.7819 85.156L59.9699 84.975L60.0069 84.963L59.8889 84.929L59.7769 84.986Z" fill="#3F3F3F"/>
<path fill-rule="evenodd" clip-rule="evenodd" d="M72.221 100.011L72.392 100.034L72.411 100.049C72.345 100.036 72.278 100.022 72.221 100.011ZM65.219 102.313L65.345 102.276L65.219 102.313ZM57.399 81.385L57.271 81.153L57.399 81.385L57.503 81.461L57.399 81.385ZM51.765 81.112L51.749 81.243C51.756 81.169 51.762 81.089 51.758 80.958L51.765 81.112ZM51.685 81.477L51.543 81.626C51.616 81.55 51.665 81.493 51.7 81.428L51.685 81.477ZM50.318 83.972L50.291 83.977L50.317 83.971L50.461 83.731L50.318 83.972ZM50.573 72.512C50.66 72.461 50.711 72.406 50.745 72.351L50.679 72.428C50.619 72.473 50.563 72.527 50.508 72.581L50.573 72.512ZM50.793 72.226L50.761 72.331L50.75 72.344C50.773 72.305 50.782 72.266 50.793 72.226ZM34.117 45.542V45.541L34.257 45.605L34.117 45.542ZM33.257 44.353L33.059 44.193L33.256 44.353L33.433 44.546L33.257 44.353ZM31.986 42.063L31.892 41.979L31.716 41.785L31.892 41.979L31.986 42.063L32.126 42.126L31.986 42.063ZM78.598 103.31L78.442 103.307L78.454 103.139L78.716 103.138L78.767 102.796L78.771 102.76L78.739 102.676L78.679 102.596L78.532 102.585L78.537 102.407L78.599 102.263L78.705 102.179L78.742 102.022L78.817 101.916L78.945 101.861L78.941 101.754L78.828 101.685L78.746 101.576L78.732 101.412L78.648 101.321L78.722 101.214L78.816 101.155L78.868 101.019L78.965 100.942L79.207 100.544L80.196 99.047L80.148 98.942L80.136 98.618L80.067 98.34L80.014 98.208L79.876 98.127L79.71 98.132L79.587 98.071L79.413 98.066L79.3 97.997L79.129 97.974L79.068 97.832L79.066 97.644L79.224 97.423L79.159 97.316L79.065 97.232L77.334 97.843L76.971 98.243L76.759 98.268L76.421 98.456L76.37 98.592L76.166 98.754L76.137 98.92L75.835 98.969L75.795 99.08L75.465 99.072L75.323 99.089L75.202 99.154L75.168 99.149L75.047 99.419L75.011 99.289L74.979 99.267L74.867 99.324L74.785 99.421L74.672 99.352L74.646 99.214L74.489 99.211L74.308 99.196L74.263 99.074L74.111 99.036L74.014 99.112L73.774 99.224L73.692 99.32L73.675 99.318L72.029 98.007L71.614 97.701L70.812 97.085L70.113 96.482L70.039 96.383L69.776 96.258L69.113 96.197L68.335 96.29L68.217 96.4L67.894 96.402L67.787 96.424L67.618 96.383L67.283 96.348L67.171 96.405L67.168 96.565L67.125 96.631L67.217 96.527L67.347 96.598L67.21 96.723L67.382 96.809L67.24 96.826L67.129 96.882L67.015 96.814L66.887 97.074L66.826 97.137L66.76 97.254L66.661 97.348L66.512 97.356L66.43 97.246L66.232 97.229L66.038 97.176L65.887 97.201L65.723 97.188L65.591 97.135L65.442 97.142L65.411 97.039L65.245 96.838L65.04 96.668L64.767 96.551L64.672 96.198L64.34 95.796C64.078 95.482 63.686 95.281 63.327 95.124L63.196 95.054L63.187 95.061L63.048 95.267L62.963 95.318L63.088 95.567L63.057 95.608L62.952 95.612L62.827 95.918L62.72 96.002L62.393 95.976L62.249 96.011L62.093 96.008L61.87 95.978L61.54 95.97L61.146 95.918L61.087 95.901L60.556 95.768L60.577 95.735L60.396 95.72L60.075 95.642L59.893 95.564L59.09 95.233L58.789 95.14L58.637 95.101L58.473 95.088L58.236 95.102L57.913 95.041L57.727 94.855L57.672 94.741L57.411 94.599L57.269 94.553L57.148 94.474L56.996 94.436L56.941 94.321L56.909 94.156L56.753 93.947L56.591 93.917L56.526 93.81L56.698 93.833L56.856 93.961L56.885 93.795L56.714 93.772L56.651 93.647L56.654 93.487L56.571 93.315L56.545 93.177L56.41 92.935L56.426 92.875L56.681 92.783L57.115 92.724L57.423 92.497L57.542 92.45L57.612 92.441L57.639 92.436L57.816 92.486L57.972 92.489L58.177 92.31L58.326 92.303L58.428 92.254L58.568 92.317L58.538 92.421L58.464 92.527L58.42 92.531L58.501 92.577L58.642 92.56L58.87 92.411L58.944 92.305L59.162 92.164L59.223 92.163L59.293 92.092L59.286 92.081L59.376 91.852L59.454 91.71L59.622 91.482L59.781 91.261L59.833 91.125L60.147 90.701L60.261 90.421L60.283 90.245L60.247 90.115L60.184 89.99L59.949 89.923L59.836 89.854L59.657 89.822L59.543 89.752L59.462 89.849L59.25 89.938L59.098 89.899L58.965 89.926L58.798 89.931L58.763 89.801L58.69 89.684L58.709 89.463L58.857 89.33L59.074 89.189L59.234 89.237L59.335 89.331L59.564 89.308L59.775 89.157L59.894 89.11L60.027 89.163L60.198 89.186L60.487 88.893L60.698 88.742L60.864 88.531L60.923 88.405L60.909 88.242L60.961 88.106L61.116 88.046L61.21 88.13L61.307 88.053L61.301 87.963L61.338 87.807L61.412 87.7L61.398 87.537L61.323 87.438L61.289 87.29L61.183 87.025L61.157 86.888L61.075 86.778L61.03 86.656L61.081 86.52L61.065 86.374L61.019 86.252L60.933 86.178L60.858 86.078L60.861 85.917L60.815 85.795L60.791 85.639L60.647 85.611L60.524 85.55L60.373 85.575L60.182 85.568L60.086 85.644L60.017 85.778L60.033 85.924L59.953 86.003L59.849 85.864L59.709 85.8L59.557 85.762L59.408 85.769L59.136 86.064L59.02 86.156L58.908 86.213L58.78 86.268L58.616 86.255L58.735 86.208L58.938 86.047L58.899 86.015L58.673 86.146L58.524 86.153L58.606 86.057L58.732 86.02L58.802 85.886L58.892 85.862L59.194 85.669L59.042 85.631L58.916 85.668L58.767 85.675L58.655 85.732L58.499 85.729L58.454 85.607L58.173 85.623L58.083 85.71L57.92 85.697L57.768 85.659L57.619 85.872L57.43 85.99L57.348 86.087L57.234 86.161L56.845 86.279L56.672 86.274L56.568 86.341L56.515 86.477L56.275 86.794L56.117 86.809L55.99 86.846L55.909 86.943L55.593 87.653L55.706 87.721L55.565 87.738L55.36 88.123L54.998 88.505L54.699 88.742L54.287 88.974L54.151 89.019L53.865 89.07L53.498 89.219L53.364 89.246L53.206 89.261L53.034 89.237L52.976 89.221L52.674 89.127L52.411 89.003L52.3 88.916L52.225 88.754L52.217 88.538L52.289 88.306L52.364 88.2L52.425 88.056L52.558 87.903L52.57 87.735L52.682 87.472L52.763 87.376L52.974 87.225L53.063 87.138L53.253 86.939L53.365 86.883L53.472 86.798L53.546 86.692L53.59 86.546L53.687 86.469L53.726 86.295L53.845 86.248L54.015 86.002L54.224 85.869L54.489 85.77L54.578 85.683L54.699 85.618L54.85 85.594L54.957 85.509L55.132 85.291L55.229 85.215L55.469 85.103L55.613 85.069L55.765 85.107L55.821 85.078L55.964 84.838L56.093 84.783L56.301 84.649L56.673 84.529L56.785 84.472L56.854 84.338L56.883 84.172L56.724 84.124L56.611 84.055L56.469 84.072L56.358 84.129L56.199 84.144L56.047 84.106L55.913 84.133L55.848 84.026L55.93 83.929L56.078 83.859L56.341 83.778L56.492 83.753L56.596 83.686L56.717 83.765L56.859 83.811L56.927 83.757L57.046 83.71L57.135 83.623L57.382 83.603L57.793 83.514L58.041 83.413L58.192 83.388L58.366 83.393L58.589 83.279L58.801 83.254L58.675 83.291L58.598 83.415L58.546 83.551L58.708 83.582L58.781 83.556L58.962 83.571L59.075 83.639L59.13 83.754L59.016 83.829L58.864 83.79L58.702 83.841L58.766 83.947L58.925 83.933L59.096 83.956L59.256 84.003L59.379 83.922L59.52 83.904L59.629 83.946L59.73 84.04L59.795 84.147L60.002 84.3L60.084 84.409L60.217 84.462L60.438 84.429L60.617 84.605L60.67 84.737L60.754 84.829L60.843 85.091L60.833 85.448L60.869 85.578L61.052 85.432L61.181 85.378L61.275 85.462L61.292 85.608L61.405 85.676L61.761 86.171L61.865 86.248L61.916 86.111L61.883 85.963L61.972 85.877L61.946 85.739L61.923 85.709L61.916 85.556L62.015 85.462L62.09 85.355L62.151 85.212L62.181 85.046L62.144 84.996L62.102 84.981L62.085 84.979L61.953 84.988L61.83 84.927L61.874 84.781L61.64 84.633L61.52 84.412L61.57 84.293L61.921 83.999L61.742 83.823L61.629 83.755L61.364 83.648L61.26 83.571L60.918 83.177L60.805 83.108L60.632 82.96L60.461 82.937L60.178 82.828L59.856 82.83L59.828 82.71L59.743 82.618L59.68 82.493L59.693 82.325L59.427 82.155L59.342 82.064L59.309 81.916L59.371 81.772L59.422 81.43L59.484 81.286L59.429 81.171L59.441 81.003L59.378 80.878L59.222 80.669L59.108 80.6L58.96 80.608L58.893 80.581L59.163 80.509L58.992 80.487L58.86 80.433L58.74 80.48L58.672 80.471L58.746 80.364L58.964 80.223L59.041 79.893L59.027 79.793L59.072 79.647L58.666 79.62L58.524 79.637L58.281 79.497L58.092 79.472L57.95 79.426L57.837 79.358L57.745 79.256L57.641 79.179L57.559 79.07L57.419 79.007L57.074 78.979L56.708 78.778L56.575 78.725L56.46 78.53L56.434 78.392L56.372 78.268L56.239 78.214L56.157 78.105L56.254 78.091L56.373 78.044L56.47 77.968L56.619 77.96L56.74 77.896L56.736 77.725L56.58 77.642L56.429 77.604L56.289 77.541L56.178 77.454L55.912 77.348L55.462 77.055L55.368 76.971L55.305 76.846L55.327 76.67L55.442 76.658L55.915 76.775L56.076 76.805L56.198 76.804L56.367 76.844L56.869 76.875L57.115 76.854L57.773 76.95L58.196 77.123L58.432 77.252L58.543 77.339L58.971 77.539L59.103 77.592L59.275 77.615L59.417 77.661L59.23 77.412L59.1 77.341L59.074 77.203L59.095 77.17L59.117 76.994L58.941 76.801L58.83 76.714L58.683 76.498L58.572 76.412L58.498 76.312L58.572 76.206L58.556 76.123L58.631 76.079L58.54 75.978C58.169 75.771 57.745 75.999 57.701 75.311L57.763 75.23L57.665 74.832L57.732 74.716L57.679 74.583L57.54 74.44L57.363 74.532L57.329 74.385L57.352 74.272L57.442 74.185L57.454 74.016L57.362 73.915L57.491 73.86L57.342 73.312L57.171 73.084L57.086 72.992L57.054 72.97L57.013 72.955L56.951 72.893L56.809 72.91L56.557 72.698L56.533 72.542L56.608 72.436L56.32 71.95L56.314 71.797L56.157 71.589L56.121 71.458L56.15 71.292L56.303 71.187L56.526 70.868L56.791 70.563L56.82 70.397L56.69 70.182L56.667 70.09L56.191 70.483L56.08 70.54L55.449 69.74L53.696 67.404L52.126 65.208L50.338 62.599L49.184 60.834L49.145 60.865L49.184 60.834L48.66 60.013C46.32 56.294 44.132 52.437 42.166 48.499L41.294 46.7L41.164 46.423L40.724 45.488L40.166 44.313L39.175 42.086L38.348 40.142L37.644 38.401L37.516 38.375L37.427 38.462L37.368 38.588L37.329 38.619L37.282 38.783L37.308 38.92L37.197 38.977L37.108 39.064L36.996 39.121L36.97 38.983L36.91 39.109L36.782 39.164L36.758 39.008L36.725 38.923L36.618 39.008L36.703 39.099L36.628 39.206L36.57 39.395L36.46 39.435L36.429 39.475L36.211 39.616L36.159 39.752L36.06 39.847L35.881 39.814L35.657 39.802L35.567 39.888L35.425 39.843L35.371 39.997L35.207 39.984L35.009 40.173L34.838 40.15L34.611 40.012L34.499 40.006L34.347 39.968L34.263 39.877L34.324 39.732L34.194 39.662L34.073 39.726L34.105 39.605L34.2 39.546L34.154 39.424L34.239 39.515L34.395 39.518L34.696 39.612L34.575 39.676L34.441 39.703L34.352 39.79L34.421 39.799L34.542 39.734L34.691 39.727L34.785 39.812L34.611 39.807L34.626 39.969L35.12 39.847L35.179 39.721L35.085 39.637L35.192 39.552L35.237 39.675L35.341 39.608L35.433 39.504L35.496 39.629L35.613 39.662L35.727 39.588L35.786 39.461L35.395 39.391L35.221 39.386L35.007 39.224L34.657 39.168L34.565 39.272L34.659 39.356L34.731 39.473L34.536 39.295L34.556 39.137L34.705 39.13L35.028 39.191L35.161 39.244L35.525 39.256L35.406 39.303L35.309 39.38L35.443 39.353L35.622 39.386L35.777 39.326L35.984 39.067L36.113 39.012L35.953 38.964L35.839 39.039L35.942 38.846L35.821 38.768L35.92 38.674L35.994 38.567L35.891 38.49L35.799 38.389L35.787 38.208L35.679 37.961L35.664 37.798L35.573 37.553L35.548 37.335L35.593 37.189L35.569 37.033L35.574 36.855L35.616 36.52L35.592 36.365L35.479 36.502L35.437 36.488L35.309 36.542L35.15 36.557L35.061 36.644L34.942 36.69L34.835 36.775L34.753 36.871L34.697 37.043L34.531 37.254L34.432 37.348L33.989 37.62L33.767 37.86L33.445 38.067L33.309 38.112L33.31 38.175L33.429 38.128L33.436 38.281L33.404 38.465L33.44 38.595L33.294 38.441L33.097 38.343L33.189 38.239L32.956 38.36L32.872 38.475L32.896 38.487L32.985 38.749L32.918 38.866L32.896 38.836L32.872 38.68L32.723 38.688L32.649 38.794L32.483 38.799L32.438 38.945L32.392 38.966L32.434 38.837L32.35 38.745L32.573 38.632L32.665 38.528L32.055 38.805L32.14 38.897L32.093 39.06L32.305 39.241L32.253 39.377L32.309 39.492L32.321 39.529L32.329 39.602L32.342 39.64L32.268 39.746L32.246 39.922L32.33 40.014L32.207 39.953L32.173 39.805L32.176 39.787L32.218 39.659L32.221 39.498L32.11 39.412L32.045 39.305L32.071 39.237L32.021 39.149L31.984 39.162L31.956 39.248L31.943 39.211L31.965 39.178L31.977 39.009L31.841 39.054L31.608 39.175L31.444 39.162L31.433 39.188L31.321 39.244L31.187 39.271L31.088 39.365L31.05 39.459L30.886 39.446L30.743 39.481L30.698 39.627L30.653 39.505L30.568 39.556L30.434 39.583L30.32 39.658L30.176 39.692L30.055 39.757L29.818 39.77L29.69 39.825L29.28 39.896L29.057 40.009L28.787 40.081L28.695 40.185L28.649 40.206L28.548 40.174L28.407 40.191L28.159 40.293L27.49 40.49L27.339 40.515L27.22 40.562L27.341 40.641L27.3 40.689L27.218 40.579L27.064 40.559L26.781 40.593L26.645 40.638L26.665 40.685L26.682 40.687L26.672 40.695L26.7 40.752L26.61 40.776L26.672 40.695L26.665 40.685L26.532 40.632L26.396 40.676L26.463 40.56L25.907 40.683H25.507L25.304 40.844L25.138 41.055L25.009 41.11L24.843 41.114L24.731 41.171L24.561 41.212L24.179 41.546L24.051 41.806L23.786 41.905L23.645 41.922L23.581 42.084L23.477 42.151L23.289 42.332L23.254 42.327L23.038 42.45L22.417 42.547L22.335 42.643L22.199 42.688L22.05 42.695L21.906 42.73L21.9 42.783L21.757 42.737L21.627 42.666L21.485 42.683L21.305 42.668L21.034 42.739L20.87 42.87L20.741 42.924L20.605 43.38L20.509 43.457L20.464 43.604L20.23 43.948L20.125 44.015L20.034 44.119L19.922 44.176L19.797 44.276L19.648 44.283L19.387 44.347L18.996 44.689L18.826 44.791L18.662 44.779L18.526 45.029L18.413 45.309L18.195 45.657L18.141 45.81L18.111 45.976L18.052 46.103L17.961 46.207L17.857 46.274L17.91 46.263L17.908 46.281L17.772 46.531L17.591 46.722L17.742 46.492L17.621 46.556L17.462 46.571L17.326 46.615L17.476 46.671L17.442 46.872L17.367 46.979L17.382 47.142L17.32 47.286L17.298 47.462L17.423 47.505L17.492 47.371L17.62 47.397L17.711 47.293L17.855 47.258L17.975 47.337L17.963 47.505L17.916 47.669L17.933 47.815L18.048 47.866L18.113 47.973L18.084 48.139L18.223 48.346L18.375 48.384L18.285 48.407L18.143 48.362L18.217 48.461L18.348 48.532L18.345 48.55L18.326 48.708L18.281 48.855L18.252 48.878L18.345 48.55L18.112 48.402L18.025 47.979L17.896 47.828L17.899 47.667L17.793 47.608L17.719 47.509L17.568 47.533L17.523 47.68L17.404 47.726L17.328 47.851L17.334 47.941L17.163 48.124L16.969 48.278L16.923 48.442L16.867 48.327L16.909 48.135L16.97 47.991L16.963 47.838L17.068 47.772L17.209 47.754L17.308 47.66L17.332 47.61L17.25 47.5L17.125 47.519L17.021 47.586L16.759 47.668L16.707 47.804L16.511 47.975L16.392 48.022L16.294 48.036L16.198 48.113L16.131 48.229L15.958 48.636L15.953 48.814L16.083 49.028L15.924 49.249L15.711 49.417L15.694 49.352L15.567 49.389L15.314 49.257L15.101 49.426L14.876 49.557L14.807 49.691L14.73 50.021L14.564 50.232L14.554 50.383L14.356 50.571L14.245 50.834L14.146 50.928L14.079 51.045L14.07 51.258L13.912 51.479L13.86 51.821L13.768 51.925L13.641 51.899L13.52 51.964L13.483 52.12L13.526 52.26L13.479 52.424L13.375 52.491L13.163 52.517L12.96 52.678L12.819 52.694L12.727 52.799L12.569 52.813L12.455 52.888L12.487 52.973L12.433 53.127L12.404 53.293L12.587 53.639L12.622 53.769L12.685 53.894L12.699 54.2L12.735 54.33L12.872 54.555L12.873 54.823L12.836 54.979L12.824 55.148L12.643 55.339L12.631 55.713L12.662 56.021L12.9 56.483L12.895 56.518L12.752 56.758L12.663 56.845L12.544 56.892L12.455 56.979L12.469 57.142L12.584 57.13L12.639 57.245L12.663 57.4L12.573 57.63L12.536 57.786L12.531 57.964L12.359 58.64L12.231 58.9L12.051 59.154L11.863 59.335L11.645 59.476L11.414 59.58L11.308 59.664L11.407 59.632L11.422 59.796L11.295 59.832L11.364 59.698L11.288 59.822L11.165 59.967L11.193 60.025L13.268 63.469H13.267L12.953 63.48L12.816 63.525L12.871 63.989L13.379 67.852L13.734 70.361L14.983 72.621L15.412 73.358L16.077 74.512L16.191 74.58L16.757 74.226L16.928 74.186L18.344 76.567L18.351 76.577L18.39 76.546L18.423 76.425L18.571 76.212L18.62 76.174L18.571 76.212L18.423 76.425L18.39 76.546L18.352 76.577L18.37 76.705L18.368 76.722L18.396 76.78L18.393 76.94L18.341 77.077L18.259 77.173L18.133 77.416L18.13 77.577L18.173 77.86L18.151 78.036L18.039 78.442L17.995 78.794L17.925 78.928L17.857 79.268L17.862 79.439L17.897 79.569L17.87 79.924L17.897 80.061L17.815 80.158L17.826 80.276L17.759 80.392L17.578 80.583L17.577 80.664L17.441 80.914L17.389 81.05L17.293 81.127L17.164 81.181L16.978 81.345L16.639 81.962L16.608 82.209L16.644 82.339L16.651 82.492L16.607 82.638L16.573 83.045L16.609 83.176L16.717 83.422L16.648 83.556L16.731 83.935L16.699 84.118L16.696 84.279L16.761 84.386L16.73 84.427L16.785 84.541L16.912 84.711L17.022 84.671L17.171 84.727L17.313 84.71L17.426 84.779L17.552 84.742L17.674 84.677L17.757 84.707L18.29 84.554L18.483 84.543L18.568 84.554L18.653 84.646L18.783 84.717L18.848 84.824L18.952 84.901L19.093 84.884L19.168 84.983L19.205 85.239L19.251 85.361L19.352 85.455L19.408 85.57L19.49 85.679L19.621 86.019L19.771 86.075L19.807 86.205L19.804 86.366L19.737 86.482L19.71 86.631L19.647 86.712L19.741 86.796L19.674 86.912L19.669 87.091L19.695 87.228L19.616 87.307L19.617 87.782L19.504 88.062L19.467 88.218L19.25 88.485L19.127 88.773L19.06 88.889L19.022 88.92L18.987 89.059L18.927 89.185L18.888 89.359L18.837 89.352L18.671 89.563L18.542 89.823L18.537 90.001L18.574 90.132L18.495 90.336L18.421 90.443L18.42 90.586L18.374 90.75L18.292 90.846L18.171 91.26L18.249 91.467L18.246 91.628L18.22 91.696L18.116 91.763L18.049 91.879L17.935 91.954L17.791 91.988L17.796 92.159L17.69 92.243L17.578 92.3L17.489 92.387L17.452 92.543L17.341 92.806L17.294 92.97L17.141 93.218L16.95 93.416L16.936 93.602L16.824 93.659L16.84 93.742L16.977 93.966L17.004 94.104L17.058 94.156L17.065 94.309L17.021 94.455L17.026 94.545L17.128 94.639L17.154 94.777L17.226 94.894L17.192 95.239L17.22 95.359L17.495 95.807L17.684 96.038L17.71 96.176L17.765 96.291L17.721 96.643L17.735 96.662L17.74 96.833L17.825 96.925L17.921 96.848L18.183 97.053L18.23 97.095L18.331 96.983L18.145 96.941L18.274 96.886L18.108 96.891L18.183 96.704L18.265 96.813L18.31 96.667L18.49 96.476L18.702 96.039L18.816 95.964L19.105 95.609L19.126 95.433L19.223 95.356L19.259 95.486L19.303 95.277L19.407 95.21L19.482 95.31L19.595 95.235L19.729 95.208L19.836 95.124L19.955 95.077L19.757 94.917L19.659 94.662L19.78 94.598L19.793 94.492L19.862 94.358L19.86 94.519L19.823 94.675L19.907 94.767L19.988 94.813L20.034 94.935L19.882 94.897L20.042 95.008L20.701 94.818L20.776 94.712L20.767 94.639L20.804 94.483L20.882 94.421L20.778 94.345L20.772 94.255L20.883 94.341L21.067 94.545L21.044 94.72L21.464 94.705L21.615 94.68L21.702 94.611L21.56 94.565L21.426 94.592L21.439 94.424L21.58 94.407L21.606 94.339L21.679 94.456L21.802 94.517L21.746 94.608L21.918 94.631L22.037 94.584L21.948 94.67L21.821 94.707L21.944 94.768L22.169 94.78L22.275 94.696L22.335 94.569L22.478 94.535L22.502 94.484L22.413 94.777L22.449 94.907L22.844 95.085L22.898 95.074L22.882 94.929L22.771 94.842L22.912 94.825L22.905 94.672L23.026 94.402L23.118 94.504L23.065 94.577L23.059 94.836L23.172 94.904L23.298 94.662L23.323 94.674L23.261 94.818L23.287 94.956L23.437 95.011L23.37 95.128L23.454 95.22L23.342 95.214L23.586 95.354L23.467 95.4L23.194 95.284L23.157 95.296L23.553 95.474L23.787 95.622L23.954 95.68L23.853 95.586L23.71 95.54L23.792 95.444L24.017 95.599L24.185 95.782L24.469 95.873L24.649 95.969L24.801 96.007L25.134 96.06L25.323 95.942L25.566 96.019L25.714 96.012L25.837 96.073L26.001 96.023L25.957 95.883L26.102 95.768L26.105 95.607L26.209 95.541L26.278 95.406L26.354 95.426L26.379 95.644L26.53 95.619L26.682 95.657L26.737 95.772L26.573 95.902L26.31 95.984L26.532 96.157L26.681 96.355L26.638 96.359L26.536 96.264L26.21 96.158L26.059 96.183L26.081 96.213C26.519 96.267 26.893 96.584 27.292 96.759L27.553 97.044L27.654 96.726L27.946 96.684C28.015 96.697 28.064 96.706 28.114 96.715H28.108L28.091 96.712L28.098 96.722L28.022 96.847L27.885 96.891L27.763 96.83L27.641 96.894L27.646 97.065L27.788 97.111L28.202 97.559L28.29 97.553L28.283 97.4L28.435 97.438L28.701 97.259L28.672 97.425L28.605 97.542L28.508 97.618L28.385 97.557L28.314 97.565L28.35 97.696L28.423 97.813L28.531 98.06L28.61 98.33L28.634 98.485L28.71 98.71L29.021 99.289L29.105 99.38L29.294 99.468L29.369 99.567L29.472 99.375L29.474 99.214L29.566 99.316L29.634 99.325L29.765 99.396L29.989 99.551L29.868 99.616L29.817 99.672L29.921 99.748L30.097 99.942L30.013 100.056L30.039 100.194L29.924 100.348L30.006 100.457L30.087 100.71L30.229 100.693L30.261 100.715L30.338 100.654L30.257 100.751L30.232 100.738L30.118 100.813L30.073 100.959L30.088 101.122L30.019 101.256L29.9 101.303L29.911 101.421L30.032 101.499L30.055 101.798L30.186 101.869L30.208 101.899L30.232 102.054L30.34 102.095L30.475 101.988L30.604 101.933L30.696 102.035L30.809 102.104L30.866 102.138L30.789 102.262L30.903 102.331L30.955 102.464L30.793 102.576L30.734 102.703L30.84 102.761L30.992 102.799L31.126 102.773L31.17 102.626L31.274 102.703L31.445 102.52L31.404 102.219L31.486 102.122L31.503 102.124L31.634 102.607L31.689 102.722L31.716 102.86L31.714 102.94L31.555 102.955L31.637 103.064L31.741 103.141L31.687 103.294L31.757 103.429L31.861 103.506L31.786 103.612L31.732 103.766L31.787 103.881L31.921 103.791L31.851 103.925L31.703 103.932L31.44 104.014L31.611 104.036L31.738 104L31.904 103.995L31.844 104.264L31.955 104.207L32.099 104.173L32.15 104.117L32.253 104.193L32.275 104.16L32.229 104.038L32.289 103.912L32.279 103.776L32.159 103.554L32.135 103.399L32.029 103.277L32.098 103.143L32.064 102.995L32.004 102.853L32.08 102.729L32.193 102.798L32.239 102.714L32.33 102.816L32.366 102.946L32.392 102.815L32.451 102.689L32.63 102.722L32.685 102.836L32.678 102.889L32.807 102.835L32.904 102.758L32.885 102.63L32.993 102.528L33.068 102.422L32.842 102.347L32.728 102.421L32.602 102.458L32.527 102.359L32.587 102.232L32.493 102.148L32.501 102.015L32.522 101.982L32.812 102.101L32.956 102.067L32.951 102.039L32.801 101.984L32.89 101.897L32.741 101.904L32.725 101.759L32.561 101.746L32.447 101.677L32.194 101.402L32.075 101.242L32.036 101.067L32.126 100.981L32.289 100.994L32.607 100.964L32.71 101.04L32.795 101.195L32.81 101.358L32.797 101.526L32.872 101.626L32.885 101.726L32.944 101.743L32.932 101.911L33.004 102.028L33.046 102.043L33.024 102.076L33.162 102.157L33.246 102.248L33.373 102.211L33.542 102.252L33.613 102.243L33.607 102.216L33.694 102.29L33.66 102.286L33.744 102.377L33.988 102.517L34.183 102.695L34.249 102.722L34.147 102.565L34.293 102.719L34.298 102.889L34.343 103.012L34.457 103.08H34.518L34.597 103.35L34.748 103.325L34.842 103.409L34.952 103.638L35.027 103.738L35.4 103.474L35.521 103.41L35.638 103.381L35.679 103.332L35.646 103.453L35.674 103.51L35.622 103.647L35.54 103.743L35.414 103.78L35.354 103.907L35.378 104.062L35.42 104.077L35.366 104.23L35.254 104.287L35.133 104.209L35.069 104.102L34.968 104.07L35.341 104.424L35.462 104.503L35.581 104.456L35.595 104.413L35.658 104.538L35.819 104.568L36.026 104.452L36.061 104.583L36.021 104.631L35.849 104.608L35.715 104.635L35.75 104.702L35.871 104.781L36.004 104.835L36.206 104.817L36.35 104.782L36.374 104.731L36.376 104.714L36.479 104.728L36.381 104.884L36.522 104.868L36.668 104.815L36.586 104.912L36.571 105.098L36.415 105.095L36.257 104.967L36.215 104.952L36.307 105.054L36.623 105.311L36.853 105.556L36.9 105.598L37.241 105.661L37.176 105.76L37.299 105.821L37.41 105.907L37.467 106.148L37.417 106.266L37.37 106.161L37.336 106.014L37.242 105.93L37.169 105.956L37.022 105.739L37.068 105.862L37.142 105.961L37.368 106.448L37.475 106.775L37.516 107.076L37.598 106.979L37.581 106.834L37.621 106.723L37.715 106.807L37.742 106.945L37.977 107.012L37.865 107.069L37.776 107.012L37.652 107.031L37.667 107.257L37.769 107.351L37.707 107.495L37.799 107.597L37.686 107.591L37.672 107.428L37.592 107.158L37.571 107.334L37.597 107.472L37.588 107.542L37.558 107.502L37.582 107.657L37.628 107.78L37.605 107.956L37.544 108.1L37.462 108.197L37.359 108.121L37.435 107.996L37.524 107.91L37.411 107.984L37.344 108.101L37.379 108.23L37.471 108.332L37.53 108.349L37.745 108.512L37.829 108.604L37.892 108.585L38.062 108.626L38.028 108.684L38.112 108.775L38.595 108.884L38.706 108.971L38.787 109.017L38.84 109.15L38.907 109.033L38.868 108.858L38.934 109.028L38.952 108.95L39.086 108.923L39.238 108.961L39.407 109.144L39.518 109.231L39.553 109.298L39.608 109.618L39.674 109.726L39.704 110.034L39.613 110.344L39.681 110.64L39.611 110.773L39.522 110.86L39.552 111.312L39.504 111.493L39.54 111.623L39.487 111.76L39.533 111.882L39.709 112.076L39.683 112.349L39.586 112.426L39.55 112.583L39.583 112.73L39.484 112.825L39.451 112.883L39.166 113.14L39.092 113.247L38.968 113.329L38.373 113.626L38.309 113.725L38.106 113.886L37.904 113.966L37.85 114.12L37.835 114.306L37.899 114.082L37.922 114.38L37.891 114.421L38.04 114.414L38.28 114.303L38.205 114.203L38.202 114.158L38.299 114.081L38.324 113.95L38.343 113.935L38.401 114.238L38.327 114.345L38.498 114.367L38.469 114.534L38.396 114.622L37.963 114.681L37.776 114.782L37.662 114.713L37.595 114.766L37.598 114.606L37.553 114.752L37.605 115.028L37.554 115.164L37.5 115.175L37.304 115.695L37.259 115.841L37.214 116.13L37.26 116.253L37.344 116.345L37.355 116.4L37.429 116.293L37.481 116.157L37.474 116.004L37.546 116.121L37.516 116.224L37.755 116.336L37.75 116.372L37.601 116.316L37.556 116.462L37.346 116.613L37.254 116.717L37.195 116.844L37.119 116.888L37.204 116.98L37.384 116.994L37.496 116.938L37.707 116.992L37.472 116.988L37.359 117.063L37.202 117.06L37.152 117.116L37.197 117.238L37.185 117.407L36.89 117.815L36.813 118.145L36.873 118.225L36.76 118.156L36.776 118.301L36.887 118.387L36.96 118.505L36.995 118.572L37.067 118.832L36.992 118.939L36.99 119.099L36.913 119.366L36.844 119.501L36.784 119.833L36.822 119.945L36.904 120.055L36.902 120.215L36.76 120.232L36.721 120.057L36.724 119.897L36.568 119.894L36.501 120.01L36.469 120.194L36.693 120.349L36.868 120.417L36.923 120.532L37.005 120.641L37.128 120.702L37.275 120.713L37.417 120.758L37.441 120.914L37.444 120.816L37.493 120.983L37.56 120.867L37.696 120.822L37.845 120.815L37.986 120.592L38.067 120.576L38.148 120.479L38.292 120.445L38.396 120.378L38.543 120.389L38.632 120.302L38.761 120.248L38.684 120.372L38.788 120.305L38.892 120.175L39.08 119.994L39.38 119.757L39.471 119.653L39.921 119.265L40.208 118.846L40.2 118.774L40.311 118.654L40.387 118.324L40.361 118.186L40.319 118.172L40.373 118.161L40.469 118.084L40.566 117.802L40.787 117.357L41.04 116.522L41.292 115.83L41.344 115.694L41.547 115.327L41.698 115.097L41.728 115.136L41.744 115.282L41.633 115.339L41.618 115.525L41.731 115.593V115.737L41.639 115.841L41.421 115.982L41.174 116.289L41.011 116.751L40.987 116.944L41.123 116.488L41.182 116.362L41.321 116.157L41.502 115.966L41.658 115.968L41.727 115.835L41.772 115.688L41.825 115.328L42.099 114.192L42.384 113.442L42.565 113.045L42.813 112.595L42.897 112.481L43.018 112.21L43.179 112.035L43.239 111.909L43.261 111.733L43.323 111.589L43.3 111.702L43.518 111.561L43.467 111.411L43.581 111.336L43.625 111.19L43.737 111.133L43.871 111.106L43.818 111.037L43.96 111.02L43.972 110.851L43.989 110.997L44.132 110.962L44.038 110.815L44.164 110.778L44.181 110.924L44.403 110.891L44.522 110.844L44.478 110.704L44.404 110.604L44.378 110.467L44.41 110.489L44.455 110.611L44.53 110.71L44.636 110.626L44.671 110.693L44.917 110.61L44.813 110.533L44.824 110.445L44.986 110.476L45.046 110.349L45.06 110.512L45.196 110.468L45.237 110.42L45.124 110.351L45.206 110.254L45.307 110.348L45.482 110.336L45.476 110.183L45.582 110.098L45.608 110.236L45.692 110.328L45.782 110.241L45.924 110.287L46.058 110.26L46.008 110.173L46.248 110.061L46.375 110.024L46.278 110.101L46.34 110.163L46.489 110.156L46.492 109.995L46.522 109.892L46.596 109.785L46.715 109.533L46.698 109.673L46.638 109.8L46.626 109.968L46.836 109.817L46.705 110.033L46.721 110.178L46.881 110.226L47.082 110.146L46.911 110.122L47.06 110.116L47.079 110.037L46.996 109.928L46.97 109.79L46.901 109.718L47.137 109.848L47.205 110.001L47.328 110.062L47.412 110.153L47.584 110.176L47.58 110.068L47.606 110.206L47.758 110.244L47.876 110.34L47.927 110.284L48.05 110.345L48.194 110.311L48.158 110.181L48.273 110.026L48.34 110.115L48.273 110.232L48.367 110.316L48.531 110.329L48.672 110.312L48.773 110.343L48.849 110.219L48.998 110.211L49.044 110.334L49.147 110.41L49.274 110.374L49.44 110.369L49.419 110.259L49.465 110.381L49.628 110.394L49.666 110.238L49.659 110.085L49.782 110.002L49.933 109.978L49.975 109.992L49.72 110.084L49.755 110.214L49.689 110.33L50.025 110.08L50.168 110.045L50.729 109.949L51.133 109.994L51.265 110.047L51.323 110.001L51.378 110.053L51.621 110.193L51.819 110.353L51.953 110.532L52.095 110.578L52.314 110.437L52.464 110.206L52.479 110.226L52.42 110.353L52.23 110.614L52.53 110.376L52.659 110.322L52.929 110.25L53.236 110.228L53.584 110.301L53.636 110.165L53.778 110.148L53.808 110.045L53.844 110.174L53.695 110.182L53.738 110.322L53.78 110.336L53.929 110.329L54.197 110.275L54.24 110.415L54.553 110.564L54.627 110.664L54.683 110.635L54.839 110.638L54.77 110.772L54.906 110.728L54.921 110.89L54.96 110.923L55.221 110.859L55.385 110.872L55.521 110.827L55.568 110.726L55.529 110.694L55.385 110.729L55.291 110.644L55.41 110.598L55.47 110.471L55.351 110.518L55.348 110.535L55.27 110.472L55.195 110.578L55.169 110.44L54.887 110.331L54.749 110.107L54.777 109.815L54.814 109.659L54.823 109.795L54.867 109.935L54.869 110.123L54.942 110.24L55.042 110.271L55.355 110.277L55.452 110.2L55.358 110.116L55.457 110.084L55.559 110.179L55.695 110.134L55.608 109.854L55.534 109.755L55.307 109.205L55.323 109.145L55.35 109.139L55.456 109.404L55.595 109.611L55.709 109.679L55.741 109.764L55.808 109.648L55.897 109.561L55.982 109.653L55.869 109.647L55.857 109.815L55.91 109.948L56.024 109.873L55.972 110.01L56.027 110.124L56.189 110.361L56.353 110.373L56.766 110.267L56.863 110.191L56.909 110.313L57.073 110.326L57.137 110.227L57.325 110.046L57.37 109.9L57.385 109.714L57.334 109.77L57.252 109.804L57.12 109.67L57.014 109.754L56.843 109.937L56.672 109.915L56.69 109.837L56.839 109.829L56.803 109.699L56.937 109.672L57.053 109.58L57.135 109.484L57.062 109.367L56.885 109.253L56.774 109.311L56.665 109.063L56.516 109.008L56.402 108.939L56.301 108.845L56.392 108.741L56.429 108.585L56.491 108.441L56.573 108.344L56.69 108.315L56.676 108.358L56.571 108.424L56.453 108.677L56.537 108.769L56.58 108.909L56.936 108.992L56.921 108.829L56.996 108.928L57.078 109.1L57.116 108.944L57.159 109.084L57.272 109.153L57.359 109.084L57.364 108.906L57.319 108.783L57.42 108.877L57.451 109.185L57.548 109.315L57.57 109.139L57.614 108.992L57.616 109.324L57.541 109.511L57.64 109.416L57.78 108.988L57.829 108.949L57.766 108.825L57.803 108.668L57.885 108.572L57.908 108.602L57.904 108.762L58.024 108.716L57.964 108.636L58.066 108.73L57.811 109.233L57.785 109.364L57.659 109.607L57.637 109.783L57.569 109.774L57.605 109.904L57.573 110.088L57.511 110.232L57.555 110.229L57.617 110.085L57.722 109.588L57.821 109.289L58.093 108.787L58.105 108.762L58.263 108.336L58.399 108.085L58.173 107.804L58.118 107.69L57.979 107.752L57.951 107.838L57.925 107.7L57.875 107.613L57.696 107.58L57.815 107.533L57.837 107.357L57.83 107.204L57.813 107.202L57.867 107.048L57.934 106.931L57.814 106.853L57.778 106.723L57.691 106.649L57.62 106.388L57.381 106.07L57.452 106.062L57.507 106.177L57.702 106.355L57.697 106.533L57.734 106.583L57.848 106.508L57.836 106.677L57.852 106.822L58.004 106.86L57.958 107.024L57.945 107.192L57.988 107.332L57.957 107.516L58.052 107.52L58.124 107.574L58.252 107.52L58.319 107.403L58.276 107.263L58.35 107.157L58.239 107.07L58.16 106.8L58.19 106.634V106.285L58.252 106.41L58.228 106.747L58.297 107.024L58.441 106.99L58.47 106.823L58.529 106.84L58.584 106.955L58.582 107.116L58.693 107.059L58.84 106.864L58.756 106.772L58.71 106.649L58.769 106.666L58.774 106.488L58.689 106.396L58.692 106.236L58.728 106.159L58.668 105.874L58.715 105.71L58.681 105.563L58.694 105.457L58.746 105.321L58.715 105.012L58.658 104.915L58.742 105.007L58.783 105.164L58.778 105.343L58.739 105.517L58.775 105.646L58.736 105.821L58.778 105.898L58.78 106.229L58.845 106.336L58.823 106.369L58.867 106.509L59.057 106.454L59.156 106.36L59.208 106.223L59.263 106.338L59.369 106.254L59.282 105.974L59.217 105.866L59.256 105.836L59.182 105.736L59.24 105.69L59.233 105.537L59.266 105.479L59.078 105.311L59.075 105.266L58.983 105.164L58.958 105.089L58.976 104.805L59.073 104.728L58.991 104.619L58.815 104.569L58.733 104.522L58.668 104.415L58.735 104.298L58.775 104.331L58.857 104.234L59.186 104.036L59.192 104.126L59.224 104.149L59.285 104.148L59.326 104.1L59.498 104.122L59.581 104.008L59.632 103.952L59.701 103.818L59.705 103.926L59.633 104.015L59.522 104.135L59.366 104.132L59.261 104.198L59.12 104.216L59.078 104.201L58.959 104.248L58.868 104.352L58.838 104.518L59.004 104.513L59.079 104.47L59.193 104.538L59.131 104.682L59.094 104.839L59.108 105.001L59.205 104.925L59.278 104.899L59.211 105.015L59.189 105.191L59.31 105.27L59.375 105.377L59.345 105.543L59.387 105.558L59.459 105.675L59.456 105.836L59.566 105.796L59.662 105.514L59.626 105.384L59.631 105.205L59.597 104.995L59.641 104.849L59.792 104.618L59.85 104.572L59.776 104.678L59.655 104.949L59.669 105.112L59.715 105.234L59.684 105.338L59.826 105.321L59.87 104.968L60.048 104.732L60.1 104.596L60.219 104.549L60.286 104.433L60.477 104.297L60.475 104.171L60.509 104.176L60.572 104.301L60.612 104.333L60.595 104.188L60.716 104.123L60.675 103.759L60.786 103.846L60.789 103.891L60.864 103.99L60.876 103.822L60.931 103.937L61.065 103.847L61.108 103.781L61.188 103.765L61.149 103.939L61.304 103.816L61.391 103.81L61.302 103.896L61.406 103.973L61.562 103.976L61.616 103.822L61.682 103.786L61.776 103.87L61.849 103.906L61.738 103.963L61.89 104.001L61.873 104.062L61.566 104.084L61.661 104.23L61.538 104.17L61.444 104.085L61.28 104.072L60.943 104.261L60.889 104.414L61.015 104.378L61.035 104.425L60.939 104.502L60.915 104.552L60.746 104.512L60.659 104.438L60.456 104.599L60.568 104.542L60.693 104.586L60.754 104.585L60.71 104.731L60.774 104.838L60.635 104.837L60.576 104.964L60.579 104.803L60.465 104.734L60.344 104.799L60.285 104.925L60.406 104.861L60.5 104.945L60.506 105.035L60.439 105.151L60.497 105.311L60.62 105.372L60.472 105.38L60.297 105.106L60.168 105.16L60.308 105.224L60.078 105.327L59.971 105.412L59.939 105.595L60.014 105.489L60.04 105.627L60.037 105.787L60.066 105.907L60.149 105.793L60.276 105.756L60.179 105.833L60.168 105.921L60.439 105.85L60.245 106.003L60.268 106.096L60.095 106.09L60.013 106.187L60.146 106.24L60.108 106.334L60.221 106.402L60.094 106.439L59.936 106.454L59.868 106.508L60.085 106.653L60.152 106.742L59.989 106.73L59.995 106.883L59.874 106.947L59.8 106.848L59.589 106.999L59.355 107.057L59.145 107.208L59.053 107.313L59.002 107.306L58.806 107.477L58.743 107.701L59.004 107.637L59.173 107.472L59.294 107.407L59.428 107.38L59.539 107.323L59.546 107.477L59.564 107.479L59.692 107.424L59.878 107.261L60.111 107.14L60.308 107.094L60.397 107.008L60.565 106.923L60.654 106.836L60.81 106.839L61.051 106.728L61.059 106.8L61.299 106.689L61.312 106.521L61.388 106.539L61.442 106.529L61.473 106.551L61.382 106.655L61.486 106.588L61.496 106.581L61.647 106.35L61.545 106.256L61.479 106.229L61.653 106.234L61.625 106.177L61.722 106.101L61.848 106.064L61.877 105.978L61.785 105.876L61.79 105.554L61.857 105.438L61.862 105.26L61.972 105.077L62.071 104.983L62.115 104.837L62.118 104.676L62.148 104.51L62.2 104.374L62.304 104.307L62.341 104.151L62.446 104.147L62.582 104.102L62.686 104.035L62.772 104.047L62.953 104.062L63.057 104.138L63.218 104.169L63.315 104.092L63.461 104.102L63.318 104.137L63.221 104.214L63.062 104.166C62.832 104.046 62.711 104.029 62.483 104.196L62.393 104.22L62.357 104.233L62.305 104.37L62.303 104.387L62.239 104.406L62.224 104.735L62.277 104.867L62.303 105.005L62.302 105.291L62.425 105.352L62.582 105.561L62.505 105.685L62.311 105.776L62.212 105.87L62.296 105.962L62.419 105.96L62.53 105.903L62.689 105.889L62.922 105.767L63.055 105.74L63.038 105.675L63.093 105.647L63.25 105.65L63.334 105.741L63.384 105.623L63.533 105.616L63.6 105.499L63.713 105.568L63.844 105.496L64.002 105.481L64.129 105.444L64.188 105.318L64.308 105.271L64.447 105.128L64.514 105.012L64.563 105.036L64.675 104.98L64.618 105.089L64.513 105.155L64.333 105.346L64.447 105.272L64.731 105.014L64.806 104.907L65.115 104.662L65.219 104.533L65.091 104.301L64.987 104.225L64.947 104.13L65.228 103.907L65.388 103.875L65.401 103.912L65.572 103.935L65.633 103.872L65.807 103.796L65.921 103.722L66.02 103.628L66.21 103.366L66.232 103.19L66.313 103.094L66.35 103.081L66.276 103.187L66.29 103.35L66.173 103.523L66.025 103.655L65.878 103.788L65.628 103.907L65.658 103.947L65.802 103.912L65.922 103.991L66.046 103.909L66.341 103.849L66.454 103.918L66.799 103.946L66.939 104.009L67.105 104.004L67.111 104.095L67.433 104.093L67.534 104.187L67.667 104.24L67.749 104.35L67.835 104.361L68.151 104.618L68.209 104.572L68.256 104.471L68.274 104.536L68.226 104.574L68.298 104.691L68.581 104.8L68.805 104.955L68.83 105.03L68.871 104.982L68.903 104.941L69.002 104.91L69.094 104.806L69.715 103.948L70.13 104.254L70.136 104.407L70.07 104.523L70.085 104.606L70.015 104.677L69.998 104.818L70.009 104.936L70.127 104.969L70.238 104.913L70.132 104.997L70.013 105.044L70.051 105.156L69.943 105.321L69.893 105.377L70.051 105.362L70.116 105.469L70.325 105.399L70.477 105.437L70.611 105.41L70.754 105.456L70.657 105.532L70.491 105.743L70.612 105.822L70.754 105.867L70.883 105.813L70.893 105.868L71.289 106.046L71.417 106.134L71.568 106.11L71.717 105.897L71.796 105.612L71.791 105.441L71.746 105.319L71.644 105.225L71.707 105.349L71.721 105.512L71.645 105.636L71.722 105.718L71.595 105.898L71.431 105.885L71.119 105.799L71.074 105.677L70.982 105.575L70.976 105.485L71.095 105.232L71.04 105.117L71.013 104.98L71.11 104.903L71.136 105.041L71.176 104.867L71.21 104.523L71.148 104.398L71.007 104.334L70.991 104.189L71.035 104.043L71.117 104.152L71.177 104.026L71.35 104.031L71.374 103.98L71.508 103.953L71.792 104.045L71.914 103.981L71.82 103.896L71.816 103.932L71.721 103.847L71.725 103.687L71.806 103.59L71.795 103.472L71.907 103.416L72.003 103.339L72.244 103.227L72.235 103.155L72.399 103.168L72.535 103.123L72.619 103.009L72.716 102.932L72.887 102.955L73.131 102.889L73.19 102.762L73.498 102.741L73.474 102.648L73.564 102.561L73.692 102.507L74.024 102.497L73.878 102.693L73.982 102.626L73.893 102.713L74.027 102.685L74.156 102.631L74.168 102.668L74.025 102.909L74.154 102.854L74.359 102.47L74.29 102.461L74.394 102.394L74.528 102.367L74.415 102.441L74.198 102.852L74.324 102.815L74.371 102.651L74.529 102.573L74.578 102.597L74.526 102.734L74.407 102.781L74.44 102.928L74.597 102.726L74.71 102.651L74.745 102.656L74.64 102.722L74.557 102.836L74.558 102.962L74.67 102.905L74.769 102.811L74.895 102.774L74.968 102.891L75.011 103.031L75.137 102.994L75.313 102.982L75.373 102.855L75.494 102.791L75.593 102.696L75.712 102.65L75.826 102.575L75.878 102.439L76.076 102.519L76.219 102.359L76.182 102.515L76.07 102.572L76.164 102.656L76.05 102.73L75.945 102.734L76.102 102.943L76.155 103.138L76.217 102.994L76.299 102.897L76.428 102.843L76.517 102.757L76.487 102.923L76.649 102.953L76.731 102.857L76.864 103.179L76.81 103.333L76.937 103.296L77.004 103.179L77.097 103.2L77.03 103.317L77.144 103.242L77.06 103.357L77.181 103.292L77.255 103.186L77.416 103.153L77.377 103.327L77.404 103.385L77.516 103.328L77.591 103.427L77.687 103.351L77.803 103.402L77.81 103.412L77.878 103.358L77.933 103.472L77.987 103.319L78.087 103.493L78.23 103.539L78.505 103.495L78.609 103.428L78.614 103.25L78.598 103.31Z" fill="#3F3F3F"/>
<path fill-rule="evenodd" clip-rule="evenodd" d="M78.8221 103.672L78.8241 103.654L78.6901 103.681L78.5761 103.756L78.5071 103.889L78.6811 103.895L78.7771 103.818L78.8221 103.672Z" fill="#3F3F3F"/>
<path fill-rule="evenodd" clip-rule="evenodd" d="M76.6759 103.011L76.4009 103.055L76.3259 103.162L76.5799 103.294L76.7009 103.229L76.6959 103.058L76.6759 103.011Z" fill="#3F3F3F"/>
<path fill-rule="evenodd" clip-rule="evenodd" d="M71.0319 106.567L71.0179 106.61L70.9039 106.684L70.7429 106.654L70.9299 106.822L70.9889 106.839L71.0259 106.682L71.0319 106.567Z" fill="#3F3F3F"/>
<path fill-rule="evenodd" clip-rule="evenodd" d="M70.454 105.899L70.305 105.906L70.064 105.955L70.317 106.087L70.486 106.127L70.523 105.971L70.454 105.899Z" fill="#3F3F3F"/>
<path fill-rule="evenodd" clip-rule="evenodd" d="M68.1401 105.261L68.1471 105.208L68.0351 105.122L67.9031 105.068L67.6021 105.1L67.5221 105.054L67.4381 104.962L67.5861 104.955L67.7561 104.995L67.8621 104.911L68.1111 104.872L67.5221 104.848L67.2781 104.708L66.9791 104.454L66.8661 104.385L66.7321 104.412L66.6561 104.312L66.3931 104.188L66.3451 104.083L66.1941 104.045L66.1051 104.132L66.0591 104.009L65.9231 104.054L65.6721 103.967L65.5171 104.027L65.4121 104.093L65.4231 104.149L65.6191 104.327L65.4591 104.279L65.7131 104.411L66.1911 104.617L66.2321 104.65L66.4081 104.7L66.5211 104.769L66.8101 104.888L66.9321 104.966L67.0901 105.014L67.1761 105.106L67.4761 105.2L67.5701 105.158L67.6711 105.252L67.9941 105.313L68.1431 105.369L68.4121 105.378L68.2531 105.33L68.1401 105.261Z" fill="#3F3F3F"/>
<path fill-rule="evenodd" clip-rule="evenodd" d="M64.074 105.536L64.171 105.459L63.802 105.625L64.074 105.536Z" fill="#3F3F3F"/>
<path fill-rule="evenodd" clip-rule="evenodd" d="M60.725 107.034L60.591 107.061L60.487 107.128L60.353 107.155L60.502 107.148L60.75 107.046L60.878 106.992L61.218 106.786L61.082 106.831L60.725 107.034Z" fill="#3F3F3F"/>
<path fill-rule="evenodd" clip-rule="evenodd" d="M57.397 110.655L57.526 110.395L57.444 110.491L57.382 110.635L57.3 110.732L56.946 111.061L56.812 111.088L56.65 111.057L56.646 111.093L56.818 111.178L57.036 111.037L57.306 110.76L57.397 110.655Z" fill="#3F3F3F"/>
<path fill-rule="evenodd" clip-rule="evenodd" d="M56.2471 110.933L56.0911 110.93L56.4141 110.991L56.4331 110.976L56.4091 110.963L56.2471 110.933Z" fill="#3F3F3F"/>
<path fill-rule="evenodd" clip-rule="evenodd" d="M55.781 110.907L55.937 110.91L55.907 110.87L55.781 110.907Z" fill="#3F3F3F"/>
<path fill-rule="evenodd" clip-rule="evenodd" d="M55.226 110.949L55.093 110.976L54.791 111.088L55.197 110.972L55.548 110.947L55.378 110.924L55.226 110.949Z" fill="#3F3F3F"/>
<path fill-rule="evenodd" clip-rule="evenodd" d="M54.5759 110.657L54.3419 110.51L54.2339 110.468L54.4769 110.608L54.6829 110.779L54.6699 110.741L54.5759 110.657Z" fill="#3F3F3F"/>
<path fill-rule="evenodd" clip-rule="evenodd" d="M53.4639 110.286L53.2929 110.264L53.1489 110.298L53.3059 110.301L53.6389 110.354L53.6239 110.334L53.4639 110.286Z" fill="#3F3F3F"/>
<path fill-rule="evenodd" clip-rule="evenodd" d="M55.409 48.225C54.434 48.804 53.552 49.177 52.762 49.344C51.972 49.512 51.247 49.473 50.587 49.23C49.927 48.986 49.329 48.583 48.792 48.021C48.255 47.459 47.723 46.708 47.196 45.769L40.416 33.697L44.517 31.264L51.694 44.045C51.827 44.281 51.95 44.477 52.065 44.632C52.179 44.787 52.322 44.945 52.494 45.107C52.666 45.269 52.857 45.36 53.066 45.38C53.276 45.399 53.492 45.343 53.715 45.21C53.939 45.078 54.094 44.913 54.183 44.717C54.271 44.521 54.29 44.306 54.24 44.071C54.189 43.837 54.125 43.631 54.049 43.454C53.972 43.277 53.867 43.07 53.734 42.834L46.556 30.053L50.667 27.613L57.446 39.685C57.973 40.624 58.338 41.474 58.54 42.235C58.742 42.996 58.782 43.731 58.661 44.438C58.539 45.145 58.209 45.81 57.669 46.432C57.13 47.053 56.376 47.651 55.409 48.225Z" fill="#3F3F3F"/>
<path fill-rule="evenodd" clip-rule="evenodd" d="M62.715 43.527L53 26.228L55.923 24.494L63.158 30.076L58.998 22.668L62.398 20.65L72.112 37.949L69.301 39.618L61.676 33.293L66.246 41.431L62.715 43.527Z" fill="#3F3F3F"/>
<path fill-rule="evenodd" clip-rule="evenodd" d="M74.567 36.492L64.8521 19.193L68.963 16.754L78.678 34.052L74.567 36.492Z" fill="#3F3F3F"/>
<path fill-rule="evenodd" clip-rule="evenodd" d="M82.6351 31.704L74.6771 17.535L72.2221 18.993L70.4641 15.863L79.4861 10.508L81.2441 13.638L78.7981 15.089L86.7551 29.258L82.6351 31.704Z" fill="#3F3F3F"/>
<path fill-rule="evenodd" clip-rule="evenodd" d="M90.692 26.922L80.9771 9.623L88.8521 4.948L90.446 7.786L86.691 10.015L88.859 13.875L91.66 12.213L93.312 15.155L90.511 16.818L93.224 21.648L97.0201 19.395L98.608 22.223L90.692 26.922Z" fill="#3F3F3F"/>
<path fill-rule="evenodd" clip-rule="evenodd" d="M100.24 21.254L90.5259 3.95502L94.9609 1.32301C96.1179 0.636015 97.1259 0.17002 97.9849 -0.0759796C98.8429 -0.32098 99.6249 -0.346983 100.329 -0.152983C101.034 0.0410169 101.664 0.420017 102.22 0.985017C102.777 1.55002 103.342 2.34401 103.916 3.36601L107.42 9.60501C107.998 10.635 108.386 11.538 108.584 12.316C108.781 13.094 108.787 13.846 108.6 14.574C108.413 15.302 108.002 15.986 107.365 16.628C106.729 17.27 105.836 17.933 104.686 18.615L100.24 21.254ZM102.72 15.887L103.106 15.658C103.458 15.449 103.72 15.254 103.893 15.072C104.067 14.891 104.163 14.692 104.182 14.477C104.2 14.262 104.173 14.053 104.1 13.85C104.027 13.648 103.897 13.38 103.709 13.046L99.1509 4.92902C98.9629 4.59502 98.8039 4.34602 98.6719 4.18402C98.5399 4.02102 98.3799 3.89801 98.1929 3.81401C98.0059 3.73001 97.7939 3.72101 97.5559 3.78801C97.3189 3.85501 97.0239 3.99301 96.6719 4.20201L96.2869 4.43102L102.72 15.887Z" fill="#3F3F3F"/>
<path fill-rule="evenodd" clip-rule="evenodd" d="M67.243 70.261C65.578 71.249 64.11 71.546 62.837 71.151C61.565 70.757 60.338 69.565 59.158 67.576L62.386 65.034C62.706 65.604 63.006 66.066 63.286 66.42C63.565 66.773 63.82 67.018 64.05 67.155C64.281 67.292 64.485 67.363 64.664 67.368C64.843 67.373 65.02 67.324 65.196 67.219C65.656 66.946 65.695 66.469 65.312 65.787C64.937 65.12 64.468 64.633 63.904 64.328C63.34 64.023 62.573 63.778 61.603 63.593L60.016 63.297C59.439 63.185 58.953 63.07 58.557 62.952C58.162 62.834 57.729 62.658 57.259 62.422C56.788 62.187 56.361 61.872 55.978 61.479C55.594 61.085 55.242 60.603 54.922 60.032C54.082 58.537 53.873 57.124 54.294 55.794C54.715 54.463 55.695 53.337 57.233 52.414C59.994 50.776 62.33 51.634 64.24 54.988L60.873 57.474C60.619 57.022 60.424 56.686 60.287 56.466C60.15 56.245 59.99 56.03 59.808 55.818C59.626 55.606 59.456 55.484 59.298 55.452C59.141 55.421 58.974 55.457 58.798 55.562C58.552 55.717 58.438 55.965 58.458 56.306C58.478 56.646 58.564 56.952 58.716 57.224C58.799 57.37 58.89 57.505 58.992 57.63C59.094 57.755 59.185 57.866 59.266 57.962C59.347 58.057 59.457 58.149 59.597 58.238C59.737 58.326 59.846 58.399 59.922 58.455C59.999 58.512 60.124 58.573 60.295 58.637C60.467 58.702 60.584 58.749 60.645 58.778C60.706 58.806 60.836 58.845 61.035 58.894C61.234 58.943 61.354 58.972 61.394 58.98C61.435 58.988 61.568 59.016 61.793 59.063C62.018 59.111 62.141 59.137 62.162 59.143L63.635 59.452C64.262 59.589 64.814 59.74 65.289 59.903C65.764 60.066 66.255 60.287 66.763 60.565C67.271 60.843 67.735 61.198 68.154 61.631C68.573 62.064 68.948 62.576 69.28 63.168C69.98 64.413 70.153 65.705 69.801 67.046C69.449 68.386 68.596 69.458 67.243 70.261Z" fill="#3F3F3F"/>
<path fill-rule="evenodd" clip-rule="evenodd" d="M74.912 65.348L66.955 51.179L64.499 52.637L62.741 49.507L71.763 44.152L73.521 47.282L71.075 48.734L79.032 62.902L74.912 65.348Z" fill="#3F3F3F"/>
<path fill-rule="evenodd" clip-rule="evenodd" d="M83.5001 52.39L85.0131 51.493L80.6241 45.486L83.5001 52.39ZM82.0921 61.086L75.4321 41.974L80.2221 39.131L92.9611 54.635L89.1961 56.869L86.7291 53.729L84.5471 55.024L85.9791 58.779L82.0921 61.086Z" fill="#3F3F3F"/>
<path fill-rule="evenodd" clip-rule="evenodd" d="M95.825 52.935L87.868 38.766L85.412 40.224L83.6541 37.094L92.676 31.739L94.4341 34.869L91.9881 36.32L99.9451 50.489L95.825 52.935Z" fill="#3F3F3F"/>
<path fill-rule="evenodd" clip-rule="evenodd" d="M103.88 48.154L94.165 30.855L102.04 26.181L103.634 29.019L99.879 31.247L102.047 35.108L104.848 33.445L106.5 36.387L103.699 38.05L106.412 42.881L110.208 40.628L111.796 43.455L103.88 48.154Z" fill="#3F3F3F"/>
<path fill-rule="evenodd" clip-rule="evenodd" d="M118.196 40.018C116.532 41.006 115.063 41.303 113.791 40.908C112.518 40.513 111.292 39.321 110.112 37.332L113.339 34.791C113.659 35.361 113.959 35.823 114.239 36.176C114.519 36.53 114.774 36.775 115.004 36.912C115.234 37.049 115.439 37.12 115.617 37.125C115.796 37.13 115.974 37.08 116.15 36.976C116.61 36.703 116.648 36.226 116.265 35.544C115.89 34.876 115.421 34.39 114.857 34.084C114.293 33.779 113.526 33.534 112.557 33.349L110.97 33.053C110.392 32.941 109.906 32.826 109.511 32.709C109.115 32.591 108.683 32.414 108.212 32.179C107.742 31.943 107.314 31.629 106.931 31.235C106.547 30.841 106.196 30.359 105.875 29.789C105.035 28.293 104.826 26.881 105.247 25.55C105.668 24.22 106.648 23.093 108.187 22.171C110.947 20.532 113.283 21.39 115.194 24.745L111.827 27.23C111.573 26.778 111.377 26.442 111.24 26.222C111.103 26.002 110.943 25.786 110.761 25.574C110.579 25.362 110.409 25.241 110.252 25.209C110.094 25.177 109.927 25.214 109.751 25.318C109.505 25.474 109.392 25.722 109.412 26.062C109.431 26.403 109.518 26.709 109.67 26.98C109.752 27.126 109.844 27.262 109.946 27.387C110.047 27.512 110.139 27.622 110.22 27.718C110.301 27.814 110.411 27.906 110.551 27.995C110.691 28.083 110.799 28.156 110.876 28.212C110.953 28.268 111.077 28.329 111.249 28.394C111.421 28.459 111.537 28.506 111.598 28.534C111.659 28.563 111.789 28.602 111.988 28.651C112.187 28.7 112.307 28.728 112.348 28.736C112.388 28.745 112.521 28.773 112.746 28.82C112.971 28.867 113.095 28.894 113.116 28.9L114.588 29.208C115.216 29.346 115.767 29.496 116.242 29.659C116.717 29.823 117.209 30.043 117.717 30.321C118.225 30.599 118.688 30.955 119.107 31.388C119.526 31.821 119.902 32.333 120.234 32.924C120.933 34.169 121.107 35.462 120.754 36.802C120.402 38.143 119.549 39.215 118.196 40.018Z" fill="#3F3F3F"/>
<path fill-rule="evenodd" clip-rule="evenodd" d="M82.1031 90C81.5671 90.652 80.8191 91.263 79.8581 91.834C78.8981 92.404 78.0081 92.763 77.1881 92.911C76.3691 93.058 75.6181 92.999 74.9361 92.731C74.2541 92.464 73.6321 92.04 73.0711 91.459C72.5111 90.878 71.9691 90.122 71.4451 89.19L67.8591 82.805C67.3361 81.873 66.9701 81.012 66.7611 80.222C66.5521 79.433 66.5061 78.667 66.6221 77.926C66.7381 77.185 67.0631 76.487 67.5971 75.831C68.1311 75.176 68.8781 74.563 69.8391 73.992C70.7991 73.422 71.6911 73.062 72.5141 72.913C73.3361 72.763 74.0901 72.821 74.7761 73.086C75.4621 73.351 76.0871 73.773 76.6511 74.352C77.2151 74.931 77.7591 75.686 78.2821 76.618L81.8681 83.004C82.3921 83.936 82.7561 84.797 82.9611 85.589C83.1671 86.38 83.2101 87.148 83.0911 87.891C82.9711 88.634 82.6421 89.337 82.1031 90ZM78.2121 88.902C78.4351 88.769 78.5891 88.611 78.6751 88.425C78.7601 88.24 78.7791 88.032 78.7301 87.801C78.6821 87.57 78.6211 87.37 78.5481 87.2C78.4751 87.03 78.3721 86.827 78.2401 86.59L73.4411 78.045C73.3081 77.809 73.1881 77.615 73.0811 77.465C72.9751 77.315 72.8371 77.163 72.6691 77.008C72.5001 76.853 72.3171 76.767 72.1181 76.75C71.9191 76.734 71.7081 76.792 71.4851 76.924C71.3031 77.033 71.1681 77.163 71.0831 77.316C70.9971 77.469 70.9511 77.615 70.9431 77.754C70.9351 77.893 70.9641 78.061 71.0301 78.259C71.0961 78.456 71.1591 78.613 71.2211 78.73C71.2821 78.847 71.3691 79.006 71.4821 79.208L76.2811 87.753C76.3901 87.947 76.4801 88.103 76.5501 88.219C76.6191 88.335 76.7211 88.472 76.8541 88.629C76.9881 88.787 77.1151 88.897 77.2361 88.959C77.3571 89.022 77.5041 89.055 77.6781 89.059C77.8511 89.063 78.0291 89.01 78.2121 88.902Z" fill="#3F3F3F"/>
<path fill-rule="evenodd" clip-rule="evenodd" d="M85.6839 74.715L86.7599 74.076C87.4369 73.675 87.7929 73.197 87.8289 72.642C87.8649 72.087 87.6759 71.441 87.2619 70.704C86.8629 69.995 86.4319 69.52 85.9679 69.281C85.5049 69.041 84.9879 69.09 84.4199 69.428L83.1409 70.187L85.6839 74.715ZM87.1659 87.135L77.4509 69.836L82.4739 66.854C83.1919 66.429 83.8469 66.09 84.4419 65.84C85.0359 65.589 85.6419 65.415 86.2589 65.317C86.8769 65.22 87.4409 65.244 87.9519 65.391C88.4619 65.538 88.9639 65.824 89.4559 66.251C89.9479 66.677 90.3989 67.256 90.8099 67.986C91.4619 69.148 91.8389 70.157 91.9419 71.015C92.0439 71.872 91.8139 72.755 91.2509 73.664L98.1969 80.587L93.8839 83.147L87.8439 76.535L86.9909 77.041L91.2859 84.689L87.1659 87.135Z" fill="#3F3F3F"/>
<path fill-rule="evenodd" clip-rule="evenodd" d="M100.136 79.436L90.4209 62.137L94.5309 59.698L104.246 76.997L100.136 79.436Z" fill="#3F3F3F"/>
<path fill-rule="evenodd" clip-rule="evenodd" d="M111.351 73.141C110.478 73.659 109.648 73.957 108.862 74.034C108.075 74.112 107.352 73.98 106.691 73.639C106.031 73.299 105.424 72.824 104.87 72.216C104.317 71.608 103.782 70.845 103.267 69.927L99.9971 64.105C99.4701 63.166 99.0961 62.287 98.8751 61.467C98.6531 60.648 98.5891 59.851 98.6831 59.077C98.7761 58.303 99.0851 57.573 99.6101 56.885C100.135 56.198 100.878 55.569 101.839 54.999C102.603 54.545 103.326 54.23 104.007 54.053C104.688 53.876 105.3 53.821 105.843 53.888C106.386 53.955 106.901 54.134 107.389 54.424C107.876 54.714 108.31 55.076 108.689 55.51C109.067 55.944 109.425 56.46 109.761 57.058L110.458 58.299L106.409 60.703L105.477 59.044C105.368 58.849 105.275 58.693 105.2 58.575C105.125 58.457 105.021 58.32 104.887 58.163C104.754 58.005 104.627 57.895 104.506 57.833C104.385 57.77 104.239 57.738 104.067 57.738C103.896 57.738 103.719 57.792 103.536 57.901C103.313 58.033 103.156 58.196 103.066 58.388C102.975 58.581 102.952 58.792 102.995 59.022C103.038 59.251 103.097 59.457 103.173 59.639C103.248 59.822 103.35 60.028 103.479 60.257L108.243 68.74C108.364 68.955 108.493 69.145 108.631 69.31C108.768 69.474 108.926 69.623 109.106 69.758C109.285 69.893 109.484 69.967 109.704 69.98C109.924 69.994 110.145 69.934 110.368 69.802C110.659 69.629 110.846 69.388 110.93 69.079C111.013 68.77 111.018 68.472 110.943 68.187C110.869 67.902 110.752 67.617 110.592 67.332L109.326 65.078L107.976 65.879L106.611 63.448L111.665 60.449L116.78 69.557L114.03 71.189L113.118 70.047C113.198 71.363 112.609 72.394 111.351 73.141Z" fill="#3F3F3F"/>
<path fill-rule="evenodd" clip-rule="evenodd" d="M119.074 68.195L109.359 50.897L113.47 48.457L123.184 65.756L119.074 68.195Z" fill="#3F3F3F"/>
<path fill-rule="evenodd" clip-rule="evenodd" d="M125.631 64.304L115.916 47.005L118.839 45.27L126.074 50.853L121.914 43.445L125.313 41.427L135.028 58.726L132.217 60.394L124.592 54.07L129.162 62.208L125.631 64.304Z" fill="#3F3F3F"/>
<path fill-rule="evenodd" clip-rule="evenodd" d="M138.132 49.024L139.644 48.126L135.256 42.12L138.132 49.024ZM136.723 57.72L130.063 38.608L134.854 35.765L147.593 51.268L143.828 53.503L141.36 50.363L139.178 51.658L140.61 55.413L136.723 57.72Z" fill="#3F3F3F"/>
<path fill-rule="evenodd" clip-rule="evenodd" d="M149.288 50.262L139.573 32.963L143.693 30.518L151.82 44.989L155.565 42.766L157.153 45.594L149.288 50.262Z" fill="#3F3F3F"/>
</g>
<defs>
<clipPath id="clip0">
<rect width="160" height="122" fill="white"/>
</clipPath>
</defs>
</svg>
