<svg width="97" height="103" viewBox="0 0 97 103" fill="none" xmlns="http://www.w3.org/2000/svg">
<path fill-rule="evenodd" clip-rule="evenodd" d="M5.21753 97.0072L4.65823 97.0947L5.36594 100.13L5.46784 100.819L5.48999 100.824L5.6384 100.13L6.65289 96.5265H7.31187L8.32969 100.13L8.48142 100.838H8.50357L8.61321 100.13L9.30652 97.0947L8.74279 97.0072V96.5265H10.4949V97.0072L10.0519 97.0647L8.85244 102.039H8.18571L7.0959 98.2155L6.99733 97.7193H6.97407L6.87993 98.2155L5.77462 102.039H5.11232L3.91176 97.0647L3.46875 97.0072V96.5265H5.21753V97.0072" fill="#3F3F3F"/>
<path fill-rule="evenodd" clip-rule="evenodd" d="M10.8658 102.039V101.561L11.4827 101.455V97.1135L10.8658 97.0072V96.5265H15.0977V97.8522H14.4587L14.3977 97.1135H12.2281V98.8966H14.3368V99.4836H12.2281V101.455H14.4432L14.5041 100.717H15.1398V102.039H10.8658" fill="#3F3F3F"/>
<path fill-rule="evenodd" clip-rule="evenodd" d="M19.7992 98.1546H19.2355L19.0959 97.3671C18.9818 97.2707 18.8301 97.1921 18.6407 97.129C18.4524 97.0659 18.232 97.0337 17.9828 97.0337C17.5864 97.0337 17.2818 97.1179 17.0702 97.2863C16.8587 97.4535 16.7524 97.6728 16.7524 97.943C16.7524 98.1822 16.8598 98.3827 17.0758 98.5422C17.2918 98.7028 17.6406 98.8434 18.1224 98.9642C18.7027 99.1081 19.1435 99.3208 19.4459 99.601C19.7471 99.8812 19.8978 100.228 19.8978 100.642C19.8978 101.086 19.7172 101.443 19.3551 101.713C18.9929 101.983 18.5189 102.118 17.933 102.118C17.5099 102.118 17.1323 102.049 16.8033 101.91C16.4744 101.771 16.2064 101.589 15.9993 101.364V100.339H16.5597L16.7025 101.129C16.8465 101.249 17.0182 101.345 17.2175 101.422C17.4169 101.497 17.6561 101.535 17.933 101.535C18.3096 101.535 18.6064 101.455 18.8246 101.297C19.0428 101.137 19.1524 100.921 19.1524 100.649C19.1524 100.397 19.0571 100.186 18.8689 100.015C18.6795 99.8446 18.345 99.7018 17.8655 99.5855C17.2818 99.447 16.8266 99.2421 16.4988 98.9719C16.1709 98.7017 16.007 98.3628 16.007 97.9541C16.007 97.5222 16.1898 97.1633 16.5552 96.8765C16.9218 96.5907 17.397 96.4467 17.9828 96.4467C18.3683 96.4467 18.7205 96.5132 19.0372 96.6461C19.354 96.779 19.6076 96.9396 19.7992 97.129V98.1546" fill="#3F3F3F"/>
<path fill-rule="evenodd" clip-rule="evenodd" d="M24.9825 96.5265V97.7459H24.3456L24.2892 97.1135H23.0664V101.455L23.6833 101.561V102.039H21.7042V101.561L22.3211 101.455V97.1135H21.0939L21.0408 97.7459H20.4017V96.5265H24.9825" fill="#3F3F3F"/>
<path fill-rule="evenodd" clip-rule="evenodd" d="M31.5933 98.2188H31.0672L30.9277 97.4391C30.8058 97.3206 30.6574 97.2231 30.4802 97.1478C30.3041 97.0714 30.0926 97.0337 29.8478 97.0337C29.2752 97.0337 28.8355 97.242 28.5276 97.6573C28.2198 98.0715 28.0658 98.5987 28.0658 99.2377V99.3241C28.0658 99.9631 28.2164 100.49 28.5177 100.909C28.8189 101.327 29.2376 101.535 29.7725 101.535C30.0228 101.535 30.2499 101.496 30.4536 101.417C30.6585 101.34 30.8158 101.243 30.9277 101.129L31.0672 100.35H31.5933V101.331C31.4349 101.535 31.1957 101.717 30.8778 101.878C30.56 102.038 30.1912 102.118 29.7725 102.118C29.0559 102.118 28.4678 101.853 28.0082 101.323C27.5497 100.793 27.3193 100.127 27.3193 99.3241V99.2444C27.3193 98.437 27.5453 97.7691 27.9971 97.2408C28.449 96.7114 29.0404 96.4467 29.7725 96.4467C30.1912 96.4467 30.56 96.5287 30.8778 96.6915C31.1957 96.8543 31.4349 97.0371 31.5933 97.2386V98.2188" fill="#3F3F3F"/>
<path fill-rule="evenodd" clip-rule="evenodd" d="M37.2295 99.3241C37.2295 100.127 37.0002 100.793 36.5395 101.323C36.0788 101.853 35.4829 102.118 34.7508 102.118C34.0387 102.118 33.4606 101.853 33.0165 101.323C32.5723 100.793 32.3508 100.127 32.3508 99.3241V99.2444C32.3508 98.4447 32.5723 97.778 33.0165 97.2464C33.4606 96.7137 34.0387 96.4467 34.7508 96.4467C35.4829 96.4467 36.0788 96.7137 36.5395 97.2464C37.0002 97.778 37.2295 98.4447 37.2295 99.2444V99.3241ZM36.4841 99.2377C36.4841 98.5965 36.3313 98.0726 36.0245 97.6683C35.7177 97.263 35.2935 97.0603 34.7508 97.0603C34.2303 97.0603 33.8249 97.2641 33.5337 97.6695C33.2424 98.0759 33.0962 98.5987 33.0962 99.2377V99.3241C33.0962 99.9698 33.2424 100.496 33.5337 100.901C33.8249 101.305 34.2303 101.508 34.7508 101.508C35.3002 101.508 35.7277 101.307 36.03 100.902C36.3324 100.499 36.4841 99.9731 36.4841 99.3241V99.2377V99.2377Z" fill="#3F3F3F"/>
<path fill-rule="evenodd" clip-rule="evenodd" d="M37.4266 101.561L37.8353 101.505L39.7624 96.5265H40.4026L42.2953 101.505L42.6996 101.561V102.039H41.118V101.561L41.5345 101.489L41.1712 100.475H38.9639L38.5895 101.489L39.006 101.561V102.039H37.4266V101.561ZM39.1942 99.8502H40.9441L40.088 97.4845H40.0659L39.1942 99.8502V99.8502Z" fill="#3F3F3F"/>
<path fill-rule="evenodd" clip-rule="evenodd" d="M47.1551 98.1546H46.5914L46.4519 97.3671C46.3378 97.2707 46.1861 97.1921 45.9967 97.129C45.8084 97.0659 45.588 97.0337 45.3388 97.0337C44.9423 97.0337 44.6377 97.1179 44.4262 97.2863C44.2147 97.4535 44.1083 97.6728 44.1083 97.943C44.1083 98.1822 44.2158 98.3827 44.4317 98.5422C44.6477 98.7028 44.9966 98.8434 45.4784 98.9642C46.0587 99.1081 46.5006 99.3208 46.8018 99.601C47.1031 99.8812 47.2537 100.228 47.2537 100.642C47.2537 101.086 47.0732 101.443 46.711 101.713C46.3489 101.983 45.8748 102.118 45.289 102.118C44.8659 102.118 44.4882 102.049 44.1593 101.91C43.8304 101.771 43.5623 101.589 43.3552 101.364V100.339H43.9156L44.0585 101.129C44.2025 101.249 44.3741 101.345 44.5735 101.422C44.7729 101.497 45.0121 101.535 45.289 101.535C45.6655 101.535 45.9623 101.455 46.1805 101.297C46.3987 101.137 46.5084 100.921 46.5084 100.649C46.5084 100.397 46.4131 100.186 46.2248 100.015C46.0354 99.8446 45.701 99.7018 45.2214 99.5855C44.6377 99.447 44.1825 99.2421 43.8547 98.9719C43.5269 98.7017 43.363 98.3628 43.363 97.9541C43.363 97.5222 43.5457 97.1633 43.9112 96.8765C44.2778 96.5907 44.7529 96.4467 45.3388 96.4467C45.7242 96.4467 46.0764 96.5132 46.3932 96.6461C46.7099 96.779 46.9635 96.9396 47.1551 97.129V98.1546" fill="#3F3F3F"/>
<path fill-rule="evenodd" clip-rule="evenodd" d="M52.3383 96.5265V97.7459H51.7015L51.645 97.1135H50.4223V101.455L51.0392 101.561V102.039H49.06V101.561L49.6769 101.455V97.1135H48.4498L48.3966 97.7459H47.7576V96.5265H52.3383" fill="#3F3F3F"/>
<path fill-rule="evenodd" clip-rule="evenodd" d="M58.9492 98.2188H58.4232L58.2836 97.4391C58.1618 97.3206 58.0134 97.2231 57.8362 97.1478C57.6601 97.0714 57.4496 97.0337 57.2038 97.0337C56.6312 97.0337 56.1915 97.242 55.8836 97.6573C55.5757 98.0715 55.4218 98.5987 55.4218 99.2377V99.3241C55.4218 99.9631 55.5724 100.49 55.8736 100.909C56.1749 101.327 56.5935 101.535 57.1285 101.535C57.3788 101.535 57.6058 101.496 57.8096 101.417C58.0145 101.34 58.1718 101.243 58.2836 101.129L58.4232 100.35H58.9492V101.331C58.7909 101.535 58.5516 101.717 58.2338 101.878C57.9159 102.038 57.5471 102.118 57.1285 102.118C56.4119 102.118 55.8238 101.853 55.3642 101.323C54.9057 100.793 54.6753 100.127 54.6753 99.3241V99.2444C54.6753 98.437 54.9012 97.7691 55.3531 97.2408C55.805 96.7114 56.3964 96.4467 57.1285 96.4467C57.5471 96.4467 57.9159 96.5287 58.2338 96.6915C58.5516 96.8543 58.7909 97.0371 58.9492 97.2386V98.2188" fill="#3F3F3F"/>
<path fill-rule="evenodd" clip-rule="evenodd" d="M59.6757 102.039V101.561L60.2937 101.455V97.1135L59.6757 97.0072V96.5265H61.6559V97.0072L61.039 97.1135V101.455H62.9539L63.0115 100.824H63.6473V102.039H59.6757" fill="#3F3F3F"/>
<path fill-rule="evenodd" clip-rule="evenodd" d="M68.8782 99.3241C68.8782 100.127 68.6489 100.793 68.1882 101.323C67.7274 101.853 67.1316 102.118 66.3995 102.118C65.6874 102.118 65.1093 101.853 64.6651 101.323C64.221 100.793 63.9995 100.127 63.9995 99.3241V99.2444C63.9995 98.4447 64.221 97.778 64.6651 97.2464C65.1093 96.7137 65.6874 96.4467 66.3995 96.4467C67.1316 96.4467 67.7274 96.7137 68.1882 97.2464C68.6489 97.778 68.8782 98.4447 68.8782 99.2444V99.3241ZM68.1328 99.2377C68.1328 98.5965 67.98 98.0726 67.6732 97.6683C67.3664 97.263 66.9422 97.0603 66.3995 97.0603C65.879 97.0603 65.4736 97.2641 65.1824 97.6695C64.8911 98.0759 64.7449 98.5987 64.7449 99.2377V99.3241C64.7449 99.9698 64.8911 100.496 65.1824 100.901C65.4736 101.305 65.879 101.508 66.3995 101.508C66.9489 101.508 67.3764 101.307 67.6787 100.902C67.9811 100.499 68.1328 99.9731 68.1328 99.3241V99.2377V99.2377Z" fill="#3F3F3F"/>
<path fill-rule="evenodd" clip-rule="evenodd" d="M73.789 96.5265V97.7459H73.1522L73.0957 97.1135H71.873V101.455L72.4899 101.561V102.039H70.5107V101.561L71.1276 101.455V97.1135H69.9005L69.8473 97.7459H69.2083V96.5265H73.789" fill="#3F3F3F"/>
<path fill-rule="evenodd" clip-rule="evenodd" d="M74.1976 97.0072V96.5265H76.1768V97.0072L75.5599 97.1135V99.0173H78.2324V97.1135L77.6155 97.0072V96.5265H79.5957V97.0072L78.9788 97.1135V101.455L79.5957 101.561V102.039H77.6155V101.561L78.2324 101.455V99.6043H75.5599V101.455L76.1768 101.561V102.039H74.1976V101.561L74.8145 101.455V97.1135L74.1976 97.0072" fill="#3F3F3F"/>
<path fill-rule="evenodd" clip-rule="evenodd" d="M80.1483 97.0072V96.5265H82.1275V97.0072L81.5106 97.1135V101.455L82.1275 101.561V102.039H80.1483V101.561L80.7652 101.455V97.1135L80.1483 97.0072" fill="#3F3F3F"/>
<path fill-rule="evenodd" clip-rule="evenodd" d="M88.056 96.5265V97.0072L87.4392 97.1135V102.039H86.6927L84.0435 97.7835L84.0202 97.7913V101.455L84.6371 101.561V102.039H82.658V101.561L83.2749 101.455V97.1135L82.658 97.0072V96.5265H84.0202L86.6705 100.778L86.6927 100.771V97.1135L86.0758 97.0072V96.5265H88.056" fill="#3F3F3F"/>
<path fill-rule="evenodd" clip-rule="evenodd" d="M92.9503 101.414C92.7886 101.583 92.5505 101.743 92.2348 101.892C91.9192 102.043 91.5094 102.118 91.0043 102.118C90.2678 102.118 89.6665 101.859 89.2013 101.342C88.735 100.825 88.5024 100.154 88.5024 99.3285V99.2377C88.5024 98.4071 88.7328 97.7348 89.1935 97.2198C89.6543 96.7048 90.2667 96.4467 91.0309 96.4467C91.4396 96.4467 91.7995 96.511 92.1085 96.6383C92.4175 96.7657 92.6778 96.9341 92.8905 97.1434V98.1435H92.3677L92.1861 97.3826C92.062 97.2818 91.9125 97.1977 91.7375 97.1323C91.5614 97.067 91.3521 97.0337 91.1073 97.0337C90.5115 97.0337 90.053 97.2375 89.7307 97.6451C89.4095 98.0527 89.2478 98.581 89.2478 99.23V99.3285C89.2478 99.9864 89.404 100.519 89.7163 100.926C90.0275 101.332 90.4572 101.535 91.0043 101.535C91.3056 101.535 91.5515 101.504 91.7431 101.441C91.9347 101.377 92.0886 101.308 92.2049 101.232V100.024L91.3001 99.9864V99.4382H92.9503V101.414" fill="#3F3F3F"/>
<path fill-rule="evenodd" clip-rule="evenodd" d="M96.017 24.452L90.0474 25.1984L75.3705 88.1348H61.8874L48.6038 40.3228H48.3047L35.0211 88.1348H21.538L6.76141 25.1984L0.841675 24.452V15.6959H27.5087V24.452L20.8912 25.596L29.1999 65.2987L29.4989 65.3485L43.0805 15.6959H53.7781L67.4594 65.3485L67.7584 65.2987L76.0173 25.596L69.3998 24.452V15.6959H96.017V24.452" fill="#3F3F3F"/>
<path fill-rule="evenodd" clip-rule="evenodd" d="M48.4542 0.110748L50.1454 3.53744L53.9276 4.08677L51.1909 6.7548L51.8366 10.5215L48.4542 8.74281L45.0718 10.5215L45.7175 6.7548L42.9808 4.08677L46.763 3.53744L48.4542 0.110748" fill="#3F3F3F"/>
<path fill-rule="evenodd" clip-rule="evenodd" d="M58.1451 4.98386H94.1398ZM58.1451 7.75267H94.1398ZM2.7688 4.98386H38.7634ZM2.7688 7.75267H38.7634Z" fill="#3F3F3F"/>
<path d="M58.1451 5.48386H94.1398V4.48386H58.1451V5.48386ZM58.1451 8.25267H94.1398V7.25267H58.1451V8.25267ZM2.7688 5.48386H38.7634V4.48386H2.7688V5.48386ZM2.7688 8.25267H38.7634V7.25267H2.7688V8.25267Z" fill="#3F3F3F"/>
</svg>
