<svg width="529" height="103" viewBox="0 0 529 103" fill="none" xmlns="http://www.w3.org/2000/svg">
<path d="M4.56 54.4C4.08 77.08 23.52 95.92 46.68 95.44C61.92 95.44 74.88 88.12 81.72 75.76L69.48 67.12C63.84 76 56.28 80.44 46.8 80.44C32.04 80.44 21.24 69.64 21.24 54.52C21.24 39.4 32.04 28.36 46.8 28.36C56.28 28.36 63.84 32.8 69.48 41.68L81.72 33.04C74.64 20.68 61.8 13.36 46.8 13.36C23.76 12.88 4.2 31.72 4.56 54.4ZM88.0753 64.24C87.7153 81.16 102.355 95.68 119.755 95.32C137.155 95.68 152.155 81.16 151.795 64.24C152.155 47.32 137.275 33.04 119.875 33.28C102.475 32.92 87.7153 47.32 88.0753 64.24ZM135.235 64.36C135.235 73.6 128.635 80.44 119.875 80.44C110.875 80.44 104.515 73.6 104.515 64.36C104.515 54.88 110.875 48.04 119.875 48.04C128.635 48.04 135.235 55.12 135.235 64.36ZM162.643 94H178.843V3.99999H162.643V94ZM193.07 94H209.27V34.6H193.07V94ZM190.79 13C190.79 18.64 195.35 22.96 201.11 22.96C206.87 22.96 211.55 18.64 211.55 13C211.55 7.23999 206.87 2.91999 201.11 2.91999C195.35 2.91999 190.79 7.23999 190.79 13ZM286.256 64.36C286.256 46.48 274.016 33.28 257.456 33.28C249.896 33.28 244.016 35.68 239.696 40.36V3.99999H223.496V94H238.376V86.68C242.576 92.32 249.296 95.44 257.456 95.44C274.016 95.44 286.256 82.24 286.256 64.36ZM269.816 64.24C269.816 74.2 263.216 80.68 254.456 80.68C246.296 80.68 239.456 75.04 239.456 64.36C239.456 53.8 246.176 47.92 254.456 47.92C263.096 47.92 269.816 54.52 269.816 64.24ZM333.645 34.6C332.085 34.12 330.405 33.88 328.365 33.88C321.765 33.88 316.005 36.76 312.045 41.68V34.6H297.165V94H313.365V64.36C313.365 54.16 319.605 48.88 329.325 48.88H333.645V34.6ZM341.888 94H358.088V34.6H341.888V94ZM339.608 13C339.608 18.64 344.168 22.96 349.928 22.96C355.688 22.96 360.368 18.64 360.368 13C360.368 7.23999 355.688 2.91999 349.928 2.91999C344.168 2.91999 339.608 7.23999 339.608 13Z" fill="#1D3557"/>
<path d="M368 15.5H400.5C401.6 15.5 402.5 14.6 402.5 13.5C402.5 12.4 401.6 11.5 400.5 11.5H368C366.9 11.5 366 12.4 366 13.5C366 14.6 366.9 15.5 368 15.5Z" fill="#1D3557"/>
<path d="M454.7 63.8999C457.3 74.5999 458 85.3999 456.2 94.2999C453 101.9 430.6 95.1999 436.6 88.2999C438.8 85.9999 446.5 77.6999 442.7 69.2999L454.7 63.8999Z" fill="#1D3557"/>
<path d="M404.8 27.2C404.8 24 398.8 20.2 398.8 15.1C398.7 7.6 406 0 414.3 0C422.6 0 429.4 6.8 429.4 15.1C429.4 21.1 429.5 22.8 431.7 24.4L432.1 24.7H432.2C444.3 33.3 453.8 54 456.4 73.3C431.9 77 408.9 60.1 405.2 35.5C404.9 33.3 404.7 31 404.7 28.8C404.7 28.3 404.7 27.7 404.8 27.2Z" fill="#FA525D"/>
<path d="M404.8 27.2001C404.8 25.4001 403 23.5 401.3 21.3C404.1 24.7 411.1 23.5 413.3 30.4C415.2 36.3 408.8 39.2 407.2 43.6C405.5 38.8 404.7 33.8 404.7 28.8C404.7 28.3 404.7 27.7001 404.8 27.2001Z" fill="#1D3557"/>
<path d="M408.2 13.5C406.8 13.5 405.6 12.4 405.6 11C405.6 9.60002 406.7 8.40002 408.1 8.40002C409.5 8.40002 410.7 9.50002 410.7 10.9C410.7 10.9 410.7 10.9 410.7 11C410.7 12.4 409.6 13.5 408.2 13.5Z" fill="#1D3557"/>
<path opacity="0.2" d="M433.4 25.7C440.7 31.4 447 41.4999 451.2 52.7999C446.5 54.2999 441.6 55.1 436.7 55C429.9 55 424.3 49.4999 424.3 42.5999C424.3 35.4999 427.9 29.9 433.4 25.7Z" fill="#010101"/>
<path d="M482.2 11.4C478.8 35 458.6 52.5 434.8 52.5C428 52.5 422.4 47 422.4 40.1C422.5 16.9 458 11.4 482.2 11.4Z" fill="#343F49" fill-opacity="0.71"/>
<path d="M482.2 11.4C478.8 35 458.6 52.5 434.8 52.5C428 52.5 422.4 47 422.4 40.1C422.5 16.9 458 11.4 482.2 11.4Z" fill="#1D3557"/>
<path d="M481 17C475.4 37.9 456.5 52.5 434.8 52.5C431.8 52.5 428.9 51.5 426.7 49.5C426.5 49.2 426.4 49 426.2 48.7C426 47.8 426 47 426 46.2C426 24.3 456.9 17.9 481 17Z" fill="#FA525D"/>
</svg>
