<?xml version="1.0" encoding="utf-8"?>
<!-- Generator: Adobe Illustrator 24.1.1, SVG Export Plug-In . SVG Version: 6.00 Build 0)  -->
<svg version="1.1" id="Layer_1" xmlns="http://www.w3.org/2000/svg" xmlns:xlink="http://www.w3.org/1999/xlink" x="0px" y="0px"
	 viewBox="0 0 1080 1080" style="enable-background:new 0 0 1080 1080;" xml:space="preserve">
<style type="text/css">
	.st0{fill:#00444F;}
</style>
<g>
	<path class="st0" d="M465.37,472.61c-11.3,14.7-19.39,14.87-30.89,1.99c-1.69-1.89-3.3-3.87-5.09-5.67
		c-8.68-8.78-19.71-7.74-26.45,2.58c-5.92,9.08-7.05,19.54-7.92,29.94c-1.98,23.58-1.88,23.59,21.36,23.59
		c4.52,0,9.1,0.46,13.54-0.11c6.92-0.87,8.65,1.92,8.41,8.47c-0.19,5.18-2.27,6.04-6.68,5.95c-9.88-0.22-19.78,0.15-29.65-0.16
		c-5.14-0.16-7.49,0.79-7.4,6.84c0.37,25.13,0.09,50.27,0.26,75.41c0.03,4.77,0.6,9.62,1.65,14.27
		c2.46,10.82,11.09,13.44,20.55,14.15c4.04,0.31,5.93,1.1,5.95,5.78c0.02,5.62-3.39,4.74-6.7,4.74
		c-24.57,0.01-49.14,0.01-73.71-0.01c-2.97,0-6.34,0.94-6.11-4.28c0.17-3.84,0.5-5.75,5.27-6.31c13.8-1.62,16.98-5.11,17.17-19.08
		c0.38-28.52,0.14-57.05,0.46-85.57c0.06-5.13-1.9-6.26-6.43-5.92c-4.21,0.32-8.53-0.4-12.69,0.17c-7.36,1.01-9.09-2.07-8.66-8.91
		c0.29-4.65,1.85-5.72,6.04-5.5c5.35,0.29,10.75-0.22,16.09,0.15c4.61,0.32,5.82-1.49,5.61-5.81c-0.42-8.48,0.03-16.95,2.13-25.22
		c7.91-31.1,37.4-49.8,70.91-45.04c2.51,0.36,5.38,0.15,7.46,1.32c16.98,9.59,33.96,2.8,50.88,0.22
		c12.9-1.97,12.86-2.25,12.86,10.95c0,50.56-0.02,101.11,0.03,151.67c0.01,5.92,0.17,11.87,0.66,17.77
		c1.22,14.56,2.7,16.45,17.44,18.89c4.84,0.8,4.05,3.41,4.25,6.43c0.23,3.57-1.65,4.13-4.67,4.12c-23.72-0.07-47.45-0.06-71.17-0.01
		c-2.84,0.01-5.1-0.21-4.67-3.97c0.32-2.82-1.03-5.64,3.97-6.59c15.46-2.94,18.08-5.55,18.32-21.18
		c0.77-48.28,1.19-96.58-0.46-144.86C467.19,480.52,466.19,477.24,465.37,472.61z"/>
	<path class="st0" d="M304.31,502.08c-6.59-10.17-16.96-13.72-28.98-15.53c2.11-2.47,3.51-4.17,4.98-5.82
		c8.4-9.31,11.89-20.06,11.01-32.65c-0.48-6.61-3.42-8.88-9.58-8.94c-11.57-0.09-21.49,3.8-29.96,11.64
		c-1.83,1.7-3.12,4.3-6.48,4.96c1.65-9.31,2.54-17.98,0.09-26.63c-2.92-10.33-9.56-15.65-20.15-15.96
		c-16.58-0.52-26.58,8.79-27.58,25.27c-0.86,14.61,3.8,28.15,7.9,41.67c-0.66,0.38-0.93,0.68-1.13,0.63
		c-1.38-0.25-2.76-0.59-4.12-0.86c-12.77-2.45-25.29-2.6-36.89,4.37c-8.85,5.37-12.5,13.74-9.96,22.06
		c2.67,8.74,9.51,12.75,20.61,12.43c8.49-0.27,16.82-1.49,23.35-3.58c-3.35,3.99-7.34,8.72-11.32,13.47
		c-6.97,8.36-13.18,17.14-11.96,28.83c0.88,8.31,4.39,15.31,12.73,18.41c8.13,3.03,14.18-1.29,19.5-6.75
		c5.55-5.66,8.97-12.79,13.38-19.22c-12.98,51.76-41.71,91.21-92.32,114.24c18.79,4.01,33.35-1.79,46.51-12.79
		c27.9-23.37,47.21-52.49,58.49-87.11c15.33,12.16,26.97,15.04,35.89,7.81c14.85-12.07,4.01-24.66-0.72-37.02
		c23.12,1.29,36.66-4.73,38.77-17.3C307.23,512.4,307.46,506.95,304.31,502.08z M258.28,461.3c2.15-2.2,4.46-4.44,7.11-5.93
		c4.96-2.76,11.32-8.47,15.69-3.83c3.69,3.89-0.07,11.23-3.31,16.28c-9.47,14.79-25,20.83-41.87,28.67
		C242.83,482.6,248.88,470.87,258.28,461.3z M175.01,507.74c-4.19,0.07-9.26,0.07-10.48-4.94c-1.31-5.46,3.37-8.08,7.52-9.76
		c12.91-5.3,35.17-2.72,39.26,9.19C199.18,504.18,187.36,507.58,175.01,507.74z M198.99,559.25c-2.04,2.81-4.64,7.11-8.49,5.71
		c-4.17-1.54-5.09-6.36-5.14-10.76c-0.05-3.69,0.79-7.29,2.63-10.51c7.59-13.41,18.21-23.84,32.11-32.88
		C215.77,529.09,209.37,545.06,198.99,559.25z M210.84,443.72c-0.14-7.31,0-14.95,9.33-17.62c7.68-2.2,11.89,0.07,13.47,7.93
		c1.65,8.2-0.18,16.21-1.7,24.23c-1.9,10.17-4.85,20.04-8.81,32.45C217.2,473.75,211.13,459.44,210.84,443.72z M261.83,561.38
		c-2.72,2.22-6.66,2.47-10.48,1.13c-4.26-1.47-7.25-4.26-9.53-7.88c-7.68-12.18-11.37-25.52-11.93-41.69
		c13.84,11.98,24.89,23.75,31.5,39.06C262.65,554.97,264.93,558.85,261.83,561.38z M294.12,513.38c-0.7,5.82-8.92,9.74-18.14,8.13
		c-10.51-1.86-19.27-7.2-28.21-14.88c10.33-4.08,19.77-6.54,29.78-6C286.04,501.1,294.78,507.92,294.12,513.38z"/>
	<path class="st0" d="M636.43,526.01c-42.84-12.61-89.33,10.96-95.15,58.58c-3.78,31.14,10.57,59.89,37.54,72.01
		c28.67,12.84,68.09,5.12,86.89-16.58c3.94-4.53,0.2-6.25-1.52-9.13c-2.42-4.01-4.35-1.63-6.57,0.18
		c-7.27,5.93-15.26,10.64-24.34,13.29c-22.58,6.59-41.23-2.79-49.43-24.86c-3.46-9.4-4.37-19.16-4.48-29.12
		c-0.07-5.32,2.2-6.63,7.16-6.52c12.7,0.29,25.43,0.09,38.13,0.09c13-0.02,26,0,38.99-0.02c3.89,0,6.93-0.34,7.38-5.71
		C673.03,554.75,659.05,532.69,636.43,526.01z M635.35,562.63c-0.34,4.76-2.88,6.41-7.06,6.43c-7.04,0.07-14.08,0.02-21.1,0.02v0.38
		c-5.91,0-11.87-0.41-17.73,0.11c-7.2,0.63-7.25-2.47-5.09-7.77c4.76-11.71,11.23-21.67,24.86-23.84
		C623.84,535.61,636.41,547.82,635.35,562.63z"/>
	<path class="st0" d="M742.18,553.19c5.54-9.74,10.89-16.54,17.96-21.87c8.72-6.59,18.47-9.64,29.34-8.24
		c8.12,1.05,14.81,4.85,16.73,13.29c1.73,7.63-0.4,14.87-7.04,19.56c-7.05,4.97-14.32,3.76-21.28-0.92
		c-12.74-8.57-18.09-7.24-23.71,7.33c-9.47,24.56-9.93,50.18-6.75,75.9c1.05,8.47,6.11,11.25,19.62,11.78
		c4.8,0.19,6.29,1.57,6.02,6.31c-0.2,3.5-1.6,4.13-4.63,4.12c-25.41-0.08-50.82-0.08-76.22,0.01c-3.17,0.01-4.7-0.8-4.39-4.24
		c0.27-2.94-0.87-6.04,4.2-6.32c15.76-0.86,18.21-6.24,18.24-21.42c0.04-21.45,0.09-42.91-0.52-64.35
		c-0.45-15.75-4.02-19.56-19-22.74c-2.68-0.57-4.13-1.4-4.01-4.23c0.11-2.51-0.32-5,3.4-5.66c14.7-2.62,29.37-5.46,44.04-8.26
		c3.67-0.7,4.15,1.49,4.51,4.33C739.64,535.37,740.79,543.17,742.18,553.19z"/>
	<path class="st0" d="M873.07,578.87c0,16.66-0.44,33.34,0.13,49.98c0.54,15.79,2.69,18.07,18.13,21.07
		c4.48,0.87,3.45,3.36,3.69,5.98c0.27,3.05-0.53,4.58-4.1,4.56c-24-0.13-48.01-0.13-72.02,0c-3.64,0.02-4.27-1.63-4.03-4.62
		c0.21-2.63-0.95-5.71,3.72-5.85c14.2-0.41,18.61-8.21,18.6-22.9c0-21.46,0.17-42.93-0.34-64.38c-0.39-16.26-3.17-22.28-18.75-21.47
		c-3.17,0.17-4.62-1.11-4.53-4.46c0.07-2.91,0.67-4.67,4.03-5.2c16.99-2.66,33.97-5.46,50.92-8.38c5.55-0.96,4.28,2.85,4.29,5.67
		c0.06,16.66,0.03,33.33,0.03,49.99C872.93,578.87,873,578.87,873.07,578.87z"/>
	<path class="st0" d="M874.77,468.18c0.13,11.36-8.18,19.77-19.56,19.77c-10.9,0-19.45-8.18-19.74-18.89
		c-0.3-10.96,8.4-20.17,19.3-20.43C865.77,448.38,874.64,457.04,874.77,468.18z"/>
	<path class="st0" d="M932.21,662.77c-10.73-0.04-18.76-7.88-18.89-18.45c-0.14-11.45,8.18-19.86,19.5-19.68
		c10.75,0.16,19.24,8.78,19.18,19.45C951.94,654.67,943.33,662.81,932.21,662.77z"/>
	<path class="st0" d="M261.58,604.13c-16.44-1.04-28.58,6.3-38.16,18.91c-1.52,2.02-2.4,4.96-4.37,6.09
		c-7.22,4.1-3.19,7.77,0.29,11.03c2.94,2.72,6.86,3.74,10.62,3.28c18.02,0.02,34.49-14.54,37.09-32.29
		C267.74,606.6,266.59,604.45,261.58,604.13z M231.42,632.6c-1.97-0.41-4.96,0-5.68-2.45c-0.59-1.97,1.59-3.37,2.94-4.73
		c8.17-8.24,17.96-12.77,29.8-13.18C254.88,625.33,242.29,634.77,231.42,632.6z"/>
	<path class="st0" d="M156.76,561.11c-4.33-2.99-6.88-2.15-9.17,2.56c-5.57,11.53-3.44,25.95,5.8,36.21
		c4.05,4.48,9.08,9.71,15.01,7.56c5.71-2.08,4.21-9.56,5.41-14.54C173.09,579.38,167.84,568.72,156.76,561.11z M168.36,598.72
		c-12.27-7.02-16.35-15.22-14.31-28.8C164.21,574.88,169.51,585.54,168.36,598.72z"/>
</g>
</svg>
