<?xml version="1.0" standalone="no"?>
<!DOCTYPE svg PUBLIC "-//W3C//DTD SVG 20010904//EN"
 "http://www.w3.org/TR/2001/REC-SVG-20010904/DTD/svg10.dtd">
<svg version="1.0" xmlns="http://www.w3.org/2000/svg"
 width="880.000000pt" height="675.000000pt" viewBox="0 0 880.000000 675.000000"
 preserveAspectRatio="xMidYMid meet">

<g transform="translate(0.000000,675.000000) scale(0.100000,-0.100000)"
fill="#000000" stroke="none">
<path d="M3850 6341 c0 -15 -62 -21 -269 -26 -251 -7 -298 -15 -411 -71 l-92
-45 -80 10 c-69 8 -85 13 -112 40 -18 17 -39 31 -48 31 -8 0 -31 -19 -50 -42
-65 -79 -93 -104 -163 -148 -38 -24 -82 -54 -96 -67 -27 -25 -70 -112 -88
-180 -17 -64 -103 -138 -179 -153 -47 -10 -63 -19 -92 -53 -19 -22 -54 -59
-77 -81 -22 -23 -53 -61 -68 -86 -15 -25 -49 -68 -75 -96 -26 -27 -55 -66 -65
-85 -10 -19 -31 -52 -47 -74 -33 -47 -47 -126 -29 -175 25 -73 -26 -334 -85
-436 -27 -47 -30 -71 -9 -99 12 -14 14 -34 9 -81 -6 -54 -3 -68 15 -100 25
-42 95 -131 158 -203 32 -35 45 -61 54 -102 10 -52 16 -59 166 -206 212 -206
255 -226 416 -192 104 22 205 24 289 7 44 -9 66 -9 86 -1 15 6 78 32 140 57
l112 47 108 -3 107 -3 42 -64 c23 -35 47 -68 55 -72 7 -5 59 -9 115 -9 85 0
108 -3 137 -21 32 -19 36 -25 36 -63 0 -24 -7 -65 -15 -92 -8 -27 -15 -68 -15
-92 0 -23 -7 -59 -15 -79 -8 -19 -15 -47 -15 -62 0 -37 57 -130 146 -236 79
-96 117 -162 134 -241 6 -26 24 -77 39 -113 16 -36 32 -92 36 -125 4 -32 13
-77 21 -100 19 -51 13 -76 -36 -151 -74 -114 -105 -236 -91 -360 11 -92 33
-146 150 -361 58 -105 62 -117 81 -238 25 -169 40 -211 115 -320 34 -50 70
-113 80 -141 11 -27 32 -72 48 -100 23 -38 27 -53 18 -65 -35 -47 -25 -77 52
-157 60 -63 63 -65 102 -59 124 21 181 27 285 35 231 16 355 83 503 271 28 36
77 93 109 127 63 67 108 149 108 199 0 81 8 93 90 134 100 50 135 90 144 164
8 58 6 75 -20 184 l-15 63 26 31 c38 44 133 114 255 186 201 118 210 135 210
422 0 181 -1 188 -24 222 -41 62 -46 83 -72 343 -6 59 -6 61 29 96 20 20 40
54 48 79 7 28 30 64 59 95 25 28 68 77 94 110 27 33 119 130 206 215 179 175
234 252 323 445 104 228 147 349 146 413 -1 80 -10 105 -44 121 -25 12 -33 11
-79 -9 -28 -12 -73 -26 -100 -31 -27 -4 -56 -15 -66 -24 -9 -8 -28 -15 -41
-15 -14 0 -36 -8 -49 -17 -28 -20 -101 -42 -143 -43 -15 0 -45 9 -67 20 -36
18 -38 22 -30 50 17 59 -2 89 -112 175 -56 44 -126 97 -155 118 -44 32 -59 51
-92 121 -30 64 -52 94 -95 132 l-56 49 -14 92 c-8 51 -22 105 -32 121 -56 87
-77 118 -88 127 -7 6 -29 42 -50 80 -20 39 -64 104 -97 145 -57 71 -59 75 -37
80 22 6 23 10 26 113 4 176 -32 227 -162 227 -45 0 -58 4 -70 22 l-16 22 -29
-22 c-23 -17 -30 -18 -35 -7 -5 15 -30 11 -98 -18 -34 -14 -47 -14 -158 4 -67
11 -134 25 -148 33 -15 7 -45 17 -66 20 -22 4 -62 19 -88 32 -69 35 -129 34
-180 -2 -55 -39 -77 -70 -86 -124 -5 -30 -13 -46 -25 -48 -9 -2 -49 13 -88 32
-40 20 -80 36 -90 36 -10 0 -33 18 -51 41 -43 53 -65 64 -168 79 -78 12 -88
16 -123 52 -36 36 -38 40 -23 57 10 11 16 36 16 71 0 35 6 60 16 71 29 33 -7
106 -46 94 -13 -4 -20 0 -25 15 -5 16 -15 20 -46 20 -21 0 -39 -4 -39 -9z"/>
</g>
</svg>
